<?xml version="1.0" standalone="no"?>
<!DOCTYPE svg PUBLIC "-//W3C//DTD SVG 1.1//EN" "http://www.w3.org/Graphics/SVG/1.1/DTD/svg11.dtd" >
<svg xmlns="http://www.w3.org/2000/svg" xmlns:xlink="http://www.w3.org/1999/xlink" version="1.1">
<metadata>
Created by Christoph Koeberlin (http://christoph.koe.berlin)
Copyright (c) 2020 by Christoph Koeberlin, Hannes von Doehren. All rights reserved.
</metadata>
<defs>
<font id="Font" horiz-adv-x="579" >
  <font-face 
    font-family="Font"
    font-weight="400"
    font-stretch="normal"
    units-per-em="1000"
    panose-1="2 11 6 4 3 0 0 0 0 0"
    ascent="800"
    descent="-200"
    x-height="533"
    cap-height="710"
    bbox="-459 -215 1420 1015"
    underline-thickness="80"
    underline-position="-100"
    unicode-range="U+000D-1F5A4"
  />
<missing-glyph horiz-adv-x="676" 
d="M123 -60h-21v830h21v-830zM168 -60h-21v830h21v-830zM213 -60h-21v830h21v-830zM258 -60h-21v830h21v-830zM303 -60h-21v830h21v-830zM348 -60h-21v830h21v-830zM393 -60h-21v830h21v-830zM438 -60h-21v830h21v-830zM483 -60h-21v830h21v-830zM528 -60h-21v830h21v-830z
M573 -60h-21v830h21v-830z" />
    <glyph glyph-name=".notdef" horiz-adv-x="676" 
d="M123 -60h-21v830h21v-830zM168 -60h-21v830h21v-830zM213 -60h-21v830h21v-830zM258 -60h-21v830h21v-830zM303 -60h-21v830h21v-830zM348 -60h-21v830h21v-830zM393 -60h-21v830h21v-830zM438 -60h-21v830h21v-830zM483 -60h-21v830h21v-830zM528 -60h-21v830h21v-830z
M573 -60h-21v830h21v-830z" />
    <glyph glyph-name="glyph1" horiz-adv-x="0" 
 />
    <glyph glyph-name="uni000D" unicode="&#xd;" horiz-adv-x="264" 
 />
    <glyph glyph-name="space" unicode=" " horiz-adv-x="264" 
 />
    <glyph glyph-name="A" unicode="A" horiz-adv-x="618" 
d="M598 0h-82l-64 184h-288l-64 -184h-80l251 710h76zM308 601l-121 -348h241z" />
    <glyph glyph-name="Aacute" unicode="&#xc1;" horiz-adv-x="618" 
d="M598 0h-82l-64 184h-288l-64 -184h-80l251 710h76zM308 601l-121 -348h241zM336 803h-76l100 139h88z" />
    <glyph glyph-name="Abreve" unicode="&#x102;" horiz-adv-x="618" 
d="M598 0h-82l-64 184h-288l-64 -184h-80l251 710h76zM308 601l-121 -348h241zM197 836.5q-40 34.5 -40 105.5h60q0 -88 93 -88t93 88h59q0 -71 -40 -105.5t-112 -34.5q-73 0 -113 34.5z" />
    <glyph glyph-name="Acircumflex" unicode="&#xc2;" horiz-adv-x="618" 
d="M598 0h-82l-64 184h-288l-64 -184h-80l251 710h76zM308 601l-121 -348h241zM341 942l124 -139h-81l-77 88l-75 -88h-80l124 139h65z" />
    <glyph glyph-name="Adieresis" unicode="&#xc4;" horiz-adv-x="618" 
d="M598 0h-82l-64 184h-288l-64 -184h-80l251 710h76zM308 601l-121 -348h241zM253 825h-87v87h87v-87zM451 825h-85v87h85v-87z" />
    <glyph glyph-name="Agrave" unicode="&#xc0;" horiz-adv-x="618" 
d="M598 0h-82l-64 184h-288l-64 -184h-80l251 710h76zM308 601l-121 -348h241zM242 942l100 -139h-76l-112 139h88z" />
    <glyph glyph-name="Amacron" unicode="&#x100;" horiz-adv-x="618" 
d="M598 0h-82l-64 184h-288l-64 -184h-80l251 710h76zM308 601l-121 -348h241zM454 820h-289v61h289v-61z" />
    <glyph glyph-name="Aogonek" unicode="&#x104;" horiz-adv-x="618" 
d="M509.5 -117.5q15.5 -9.5 50.5 -9.5h28v-58h-38q-123 0 -123 78q0 25 13.5 46.5t45.5 44.5l28 21l-62 179h-288l-64 -184h-80l251 710h76l251 -710h-20l-42 -31q-24 -18 -33 -30.5t-9 -26.5q0 -20 15.5 -29.5zM308 601l-121 -348h241z" />
    <glyph glyph-name="Aring" unicode="&#xc5;" horiz-adv-x="618" 
d="M598 0h-82l-64 184h-288l-64 -184h-80l251 710h76zM308 601l-121 -348h241zM222 819.5q-33 31.5 -33 82.5t33.5 82t86.5 31q54 0 87.5 -31t33.5 -82q0 -52 -33.5 -83t-87.5 -31t-87 31.5zM358 852q18 18 18 50q0 30 -18.5 48.5t-48.5 18.5q-29 0 -47.5 -18.5t-18.5 -48.5
q0 -32 18 -50t48 -18q31 0 49 18z" />
    <glyph glyph-name="Atilde" unicode="&#xc3;" horiz-adv-x="618" 
d="M598 0h-82l-64 184h-288l-64 -184h-80l251 710h76zM308 601l-121 -348h241zM343 815q-19 9 -40 24q-7 5 -20.5 15.5t-23.5 16t-19 5.5q-17 0 -26.5 -17t-9.5 -48h-61q1 55 27 88.5t68 33.5q36 0 79 -33l17 -13q15 -12 25 -18t21 -6q17 0 26.5 16.5t10.5 48.5h60
q0 -55 -26.5 -88.5t-68.5 -33.5q-20 0 -39 9z" />
    <glyph glyph-name="AE" unicode="&#xc6;" horiz-adv-x="952" 
d="M894 710v-68h-347v-243h278v-68h-278v-263h347v-68h-423v184h-271l-116 -184h-86l452 710h444zM471 614l-227 -361h227v361z" />
    <glyph glyph-name="B" unicode="B" horiz-adv-x="646" 
d="M552.5 307q30.5 -44 30.5 -104q0 -57 -27.5 -103t-80.5 -73t-126 -27h-251v710h242q109 0 167.5 -49.5t58.5 -129.5q0 -54 -26.5 -95.5t-77.5 -62.5q60 -22 90.5 -66zM174 642v-244h160q72 0 113 33t41 89q0 60 -38.5 91t-113.5 31h-162zM347 68q73 0 115.5 36t42.5 99
q0 59 -40 93.5t-113 34.5h-178v-263h173z" />
    <glyph glyph-name="C" unicode="C" horiz-adv-x="639" 
d="M196.5 20q-60.5 35 -94 103.5t-33.5 167.5v128q0 99 33.5 167.5t94 103.5t139.5 35q72 0 127.5 -28.5t86.5 -76t34 -103.5h-76q-7 62 -52.5 101t-119.5 39q-88 0 -139.5 -59t-51.5 -179v-128q0 -120 51.5 -179t139.5 -59q79 0 125.5 42.5t50.5 114.5h76q-2 -66 -34 -117
t-88.5 -79.5t-129.5 -28.5q-79 0 -139.5 35z" />
    <glyph glyph-name="Cacute" unicode="&#x106;" horiz-adv-x="639" 
d="M196.5 20q-60.5 35 -94 103.5t-33.5 167.5v128q0 99 33.5 167.5t94 103.5t139.5 35q72 0 127.5 -28.5t86.5 -76t34 -103.5h-76q-7 62 -52.5 101t-119.5 39q-88 0 -139.5 -59t-51.5 -179v-128q0 -120 51.5 -179t139.5 -59q79 0 125.5 42.5t50.5 114.5h76q-2 -66 -34 -117
t-88.5 -79.5t-129.5 -28.5q-79 0 -139.5 35zM366 803h-76l100 139h88z" />
    <glyph glyph-name="Ccaron" unicode="&#x10c;" horiz-adv-x="639" 
d="M196.5 20q-60.5 35 -94 103.5t-33.5 167.5v128q0 99 33.5 167.5t94 103.5t139.5 35q72 0 127.5 -28.5t86.5 -76t34 -103.5h-76q-7 62 -52.5 101t-119.5 39q-88 0 -139.5 -59t-51.5 -179v-128q0 -120 51.5 -179t139.5 -59q79 0 125.5 42.5t50.5 114.5h76q-2 -66 -34 -117
t-88.5 -79.5t-129.5 -28.5q-79 0 -139.5 35zM341 854l75 88h80l-124 -139h-64l-125 139h82z" />
    <glyph glyph-name="Ccedilla" unicode="&#xc7;" horiz-adv-x="639" 
d="M588 210q-4 -94 -64.5 -155.5t-160.5 -68.5l-12 -35q89 -9 89 -74q0 -42 -30 -61t-94 -19h-40v58h46q26 0 36.5 6t10.5 19q0 14 -10.5 19.5t-36.5 5.5h-39l25 81q-109 9 -174 87.5t-65 217.5v128q0 99 33.5 167.5t94 103.5t139.5 35q72 0 127.5 -28.5t86.5 -76t34 -103.5
h-76q-7 62 -52.5 101t-119.5 39q-88 0 -139.5 -59t-51.5 -179v-128q0 -120 51.5 -179t139.5 -59q79 0 125.5 42.5t50.5 114.5h76z" />
    <glyph glyph-name="Ccircumflex" unicode="&#x108;" horiz-adv-x="639" 
d="M196.5 20q-60.5 35 -94 103.5t-33.5 167.5v128q0 99 33.5 167.5t94 103.5t139.5 35q72 0 127.5 -28.5t86.5 -76t34 -103.5h-76q-7 62 -52.5 101t-119.5 39q-88 0 -139.5 -59t-51.5 -179v-128q0 -120 51.5 -179t139.5 -59q79 0 125.5 42.5t50.5 114.5h76q-2 -66 -34 -117
t-88.5 -79.5t-129.5 -28.5q-79 0 -139.5 35zM372 942l124 -139h-81l-77 88l-75 -88h-80l124 139h65z" />
    <glyph glyph-name="Cdotaccent" unicode="&#x10a;" horiz-adv-x="639" 
d="M196.5 20q-60.5 35 -94 103.5t-33.5 167.5v128q0 99 33.5 167.5t94 103.5t139.5 35q72 0 127.5 -28.5t86.5 -76t34 -103.5h-76q-7 62 -52.5 101t-119.5 39q-88 0 -139.5 -59t-51.5 -179v-128q0 -120 51.5 -179t139.5 -59q79 0 125.5 42.5t50.5 114.5h76q-2 -66 -34 -117
t-88.5 -79.5t-129.5 -28.5q-79 0 -139.5 35zM382 824h-85v91h85v-91z" />
    <glyph glyph-name="D" unicode="D" horiz-adv-x="678" 
d="M98 0v710h196q151 0 233.5 -76t82.5 -224v-110q0 -148 -82.5 -224t-233.5 -76h-196zM294 70q118 0 179 55.5t61 174.5v110q0 119 -61 174.5t-179 55.5h-120v-570h120z" />
    <glyph glyph-name="Eth" unicode="&#xd0;" horiz-adv-x="705" 
d="M321 710q151 0 233 -76t82 -224v-110q0 -148 -82 -224t-233 -76h-197v333h-90v65h90v312h197zM560 410q0 119 -61 174.5t-178 55.5h-121v-242h195v-65h-195v-263h121q117 0 178 55.5t61 174.5v110z" />
    <glyph glyph-name="Dcaron" unicode="&#x10e;" horiz-adv-x="678" 
d="M98 0v710h196q151 0 233.5 -76t82.5 -224v-110q0 -148 -82.5 -224t-233.5 -76h-196zM294 70q118 0 179 55.5t61 174.5v110q0 119 -61 174.5t-179 55.5h-120v-570h120zM320 854l75 88h80l-124 -139h-64l-125 139h82z" />
    <glyph glyph-name="Dcroat" unicode="&#x110;" horiz-adv-x="705" 
d="M321 710q151 0 233 -76t82 -224v-110q0 -148 -82 -224t-233 -76h-197v333h-90v65h90v312h197zM560 410q0 119 -61 174.5t-178 55.5h-121v-242h195v-65h-195v-263h121q117 0 178 55.5t61 174.5v110z" />
    <glyph glyph-name="E" unicode="E" 
d="M521 0h-423v710h423v-68h-347v-243h277v-68h-277v-263h347v-68z" />
    <glyph glyph-name="Eacute" unicode="&#xc9;" 
d="M521 0h-423v710h423v-68h-347v-243h277v-68h-277v-263h347v-68zM334 803h-76l100 139h88z" />
    <glyph glyph-name="Ebreve" unicode="&#x114;" 
d="M521 0h-423v710h423v-68h-347v-243h277v-68h-277v-263h347v-68zM195 836.5q-40 34.5 -40 105.5h60q0 -88 93 -88t93 88h59q0 -71 -40 -105.5t-112 -34.5q-73 0 -113 34.5z" />
    <glyph glyph-name="Ecaron" unicode="&#x11a;" 
d="M521 0h-423v710h423v-68h-347v-243h277v-68h-277v-263h347v-68zM309 854l75 88h80l-124 -139h-64l-125 139h82z" />
    <glyph glyph-name="Ecircumflex" unicode="&#xca;" 
d="M521 0h-423v710h423v-68h-347v-243h277v-68h-277v-263h347v-68zM340 942l124 -139h-81l-77 88l-75 -88h-80l124 139h65z" />
    <glyph glyph-name="Edieresis" unicode="&#xcb;" 
d="M521 0h-423v710h423v-68h-347v-243h277v-68h-277v-263h347v-68zM252 825h-87v87h87v-87zM450 825h-85v87h85v-87z" />
    <glyph glyph-name="Edotaccent" unicode="&#x116;" 
d="M521 0h-423v710h423v-68h-347v-243h277v-68h-277v-263h347v-68zM351 824h-85v91h85v-91z" />
    <glyph glyph-name="Egrave" unicode="&#xc8;" 
d="M521 0h-423v710h423v-68h-347v-243h277v-68h-277v-263h347v-68zM240 942l100 -139h-76l-112 139h88z" />
    <glyph glyph-name="Emacron" unicode="&#x112;" 
d="M521 0h-423v710h423v-68h-347v-243h277v-68h-277v-263h347v-68zM453 820h-289v61h289v-61z" />
    <glyph glyph-name="Eogonek" unicode="&#x118;" 
d="M521 642h-347v-243h277v-68h-277v-263h347v-68h-21l-42 -31q-24 -18 -33 -30.5t-9 -26.5q0 -20 15.5 -29.5t50.5 -9.5h28v-58h-38q-123 0 -123 78q0 25 13.5 46.5t45.5 44.5l21 16h-331v710h423v-68z" />
    <glyph glyph-name="F" unicode="F" horiz-adv-x="549" 
d="M174 0h-76v710h413v-68h-337v-243h257v-68h-257v-331z" />
    <glyph glyph-name="G" unicode="G" horiz-adv-x="664" 
d="M337 368h260v-119q0 -83 -32.5 -142.5t-91.5 -90.5t-135 -31q-123 0 -195.5 78t-72.5 224v136q0 146 73 224t197 78q74 0 130 -27t87 -74.5t33 -106.5h-76q-4 62 -51 101t-123 39q-91 0 -142.5 -57.5t-51.5 -176.5v-136q0 -119 51.5 -176.5t142.5 -57.5q82 0 131 50.5
t49 142.5v54h-183v68z" />
    <glyph glyph-name="Gbreve" unicode="&#x11e;" horiz-adv-x="664" 
d="M337 368h260v-119q0 -83 -32.5 -142.5t-91.5 -90.5t-135 -31q-123 0 -195.5 78t-72.5 224v136q0 146 73 224t197 78q74 0 130 -27t87 -74.5t33 -106.5h-76q-4 62 -51 101t-123 39q-91 0 -142.5 -57.5t-51.5 -176.5v-136q0 -119 51.5 -176.5t142.5 -57.5q82 0 131 50.5
t49 142.5v54h-183v68zM227 836.5q-40 34.5 -40 105.5h60q0 -88 93 -88t93 88h59q0 -71 -40 -105.5t-112 -34.5q-73 0 -113 34.5z" />
    <glyph glyph-name="Gcircumflex" unicode="&#x11c;" horiz-adv-x="664" 
d="M337 368h260v-119q0 -83 -32.5 -142.5t-91.5 -90.5t-135 -31q-123 0 -195.5 78t-72.5 224v136q0 146 73 224t197 78q74 0 130 -27t87 -74.5t33 -106.5h-76q-4 62 -51 101t-123 39q-91 0 -142.5 -57.5t-51.5 -176.5v-136q0 -119 51.5 -176.5t142.5 -57.5q82 0 131 50.5
t49 142.5v54h-183v68zM371 942l124 -139h-81l-77 88l-75 -88h-80l124 139h65z" />
    <glyph glyph-name="uni0122" unicode="&#x122;" horiz-adv-x="664" 
d="M337 368h260v-119q0 -83 -32.5 -142.5t-91.5 -90.5t-135 -31q-123 0 -195.5 78t-72.5 224v136q0 146 73 224t197 78q74 0 130 -27t87 -74.5t33 -106.5h-76q-4 62 -51 101t-123 39q-91 0 -142.5 -57.5t-51.5 -176.5v-136q0 -119 51.5 -176.5t142.5 -57.5q82 0 131 50.5
t49 142.5v54h-183v68zM291 -112v68h93v-63l-56 -108h-49l54 103h-42z" />
    <glyph glyph-name="Gdotaccent" unicode="&#x120;" horiz-adv-x="664" 
d="M337 368h260v-119q0 -83 -32.5 -142.5t-91.5 -90.5t-135 -31q-123 0 -195.5 78t-72.5 224v136q0 146 73 224t197 78q74 0 130 -27t87 -74.5t33 -106.5h-76q-4 62 -51 101t-123 39q-91 0 -142.5 -57.5t-51.5 -176.5v-136q0 -119 51.5 -176.5t142.5 -57.5q82 0 131 50.5
t49 142.5v54h-183v68zM382 824h-85v91h85v-91z" />
    <glyph glyph-name="H" unicode="H" horiz-adv-x="690" 
d="M516 400v310h76v-710h-76v330h-342v-330h-76v710h76v-310h342z" />
    <glyph glyph-name="Hbar" unicode="&#x126;" horiz-adv-x="717" 
d="M606 581h89v-65h-89v-516h-76v327h-343v-327h-76v516h-89v65h89v129h76v-129h343v129h76v-129zM187 396h343v120h-343v-120z" />
    <glyph glyph-name="Hcircumflex" unicode="&#x124;" horiz-adv-x="690" 
d="M516 400v310h76v-710h-76v330h-342v-330h-76v710h76v-310h342zM377 942l124 -139h-81l-77 88l-75 -88h-80l124 139h65z" />
    <glyph glyph-name="I" unicode="I" horiz-adv-x="271" 
d="M174 0h-76v710h76v-710z" />
    <glyph glyph-name="Iacute" unicode="&#xcd;" horiz-adv-x="271" 
d="M174 0h-76v710h76v-710zM162 803h-76l100 139h88z" />
    <glyph glyph-name="Ibreve" unicode="&#x12c;" horiz-adv-x="271" 
d="M174 0h-76v710h76v-710zM23 836.5q-40 34.5 -40 105.5h60q0 -88 93 -88t93 88h59q0 -71 -40 -105.5t-112 -34.5q-73 0 -113 34.5z" />
    <glyph glyph-name="Icircumflex" unicode="&#xce;" horiz-adv-x="271" 
d="M174 0h-76v710h76v-710zM167 942l124 -139h-81l-77 88l-75 -88h-80l124 139h65z" />
    <glyph glyph-name="Idieresis" unicode="&#xcf;" horiz-adv-x="271" 
d="M174 0h-76v710h76v-710zM79 825h-87v87h87v-87zM277 825h-85v87h85v-87z" />
    <glyph glyph-name="Idotaccent" unicode="&#x130;" horiz-adv-x="271" 
d="M174 0h-76v710h76v-710zM178 824h-85v91h85v-91z" />
    <glyph glyph-name="Igrave" unicode="&#xcc;" horiz-adv-x="271" 
d="M174 0h-76v710h76v-710zM68 942l100 -139h-76l-112 139h88z" />
    <glyph glyph-name="Imacron" unicode="&#x12a;" horiz-adv-x="271" 
d="M174 0h-76v710h76v-710zM280 820h-289v61h289v-61z" />
    <glyph glyph-name="Iogonek" unicode="&#x12e;" horiz-adv-x="271" 
d="M187 -127v-58h-28q-53 0 -81 16.5t-28 56.5q0 23 12.5 44.5t46.5 56.5l10 11h-21v710h76v-710l-26 -32q-19 -23 -25.5 -35.5t-6.5 -24.5q0 -35 44 -35h27z" />
    <glyph glyph-name="Itilde" unicode="&#x128;" horiz-adv-x="271" 
d="M174 0h-76v710h76v-710zM169 815q-19 9 -40 24q-7 5 -20.5 15.5t-23.5 16t-19 5.5q-17 0 -26.5 -17t-9.5 -48h-61q1 55 27 88.5t68 33.5q36 0 79 -33l17 -13q15 -12 25 -18t21 -6q17 0 26.5 16.5t10.5 48.5h60q0 -55 -26.5 -88.5t-68.5 -33.5q-20 0 -39 9z" />
    <glyph glyph-name="J" unicode="J" horiz-adv-x="557" 
d="M93.5 39.5q-56.5 54.5 -56.5 154.5h76q0 -69 35 -105t102 -36t102.5 38t35.5 108v511h76v-511q0 -100 -56.5 -157t-154.5 -57q-103 0 -159.5 54.5z" />
    <glyph glyph-name="J.aalt" horiz-adv-x="557" 
d="M93.5 39.5q-56.5 54.5 -56.5 154.5h76q0 -69 35 -105t102 -36t102.5 38t35.5 108v511h76v-511q0 -100 -56.5 -157t-154.5 -57q-103 0 -159.5 54.5zM453 803h-76l100 139h88z" />
    <glyph glyph-name="Jcircumflex" unicode="&#x134;" horiz-adv-x="557" 
d="M93.5 39.5q-56.5 54.5 -56.5 154.5h76q0 -69 35 -105t102 -36t102.5 38t35.5 108v511h76v-511q0 -100 -56.5 -157t-154.5 -57q-103 0 -159.5 54.5zM458 942l124 -139h-81l-77 88l-75 -88h-80l124 139h65z" />
    <glyph glyph-name="K" unicode="K" horiz-adv-x="617" 
d="M601 0h-89l-239 351l-99 -117v-234h-76v710h76v-373l317 373h92l-257 -303z" />
    <glyph glyph-name="uni0136" unicode="&#x136;" horiz-adv-x="617" 
d="M601 0h-89l-239 351l-99 -117v-234h-76v710h76v-373l317 373h92l-257 -303zM275 -112v68h93v-63l-56 -108h-49l54 103h-42z" />
    <glyph glyph-name="L" unicode="L" horiz-adv-x="522" 
d="M491 0h-393v710h76v-640h317v-70z" />
    <glyph glyph-name="Lacute" unicode="&#x139;" horiz-adv-x="522" 
d="M491 0h-393v710h76v-640h317v-70zM162 803h-76l100 139h88z" />
    <glyph glyph-name="Lcaron" unicode="&#x13d;" horiz-adv-x="523" 
d="M491 0h-393v710h76v-640h317v-70zM375 508h-59l8 202h69z" />
    <glyph glyph-name="uni013B" unicode="&#x13b;" horiz-adv-x="522" 
d="M491 0h-393v710h76v-640h317v-70zM247 -112v68h93v-63l-56 -108h-49l54 103h-42z" />
    <glyph glyph-name="Ldot" unicode="&#x13f;" horiz-adv-x="527" 
d="M491 0h-393v710h76v-640h317v-70zM432 340h-85v91h85v-91z" />
    <glyph glyph-name="Lslash" unicode="&#x141;" horiz-adv-x="564" 
d="M215 331v-261h317v-70h-393v315l-91 -26v67l91 26v328h76v-313l197 55v-66z" />
    <glyph glyph-name="M" unicode="M" horiz-adv-x="818" 
d="M410 350l257 360h53v-710h-76v562l-226 -318h-19l-225 314v-558h-76v710h53z" />
    <glyph glyph-name="N" unicode="N" horiz-adv-x="705" 
d="M532 146v564h76v-710h-68l-366 564v-564h-76v710h67z" />
    <glyph glyph-name="Nacute" unicode="&#x143;" horiz-adv-x="705" 
d="M532 146v564h76v-710h-68l-366 564v-564h-76v710h67zM377 803h-76l100 139h88z" />
    <glyph glyph-name="Ncaron" unicode="&#x147;" horiz-adv-x="705" 
d="M532 146v564h76v-710h-68l-366 564v-564h-76v710h67zM352 854l75 88h80l-124 -139h-64l-125 139h82z" />
    <glyph glyph-name="uni0145" unicode="&#x145;" horiz-adv-x="705" 
d="M532 146v564h76v-710h-68l-366 564v-564h-76v710h67zM310 -112v68h93v-63l-56 -108h-49l54 103h-42z" />
    <glyph glyph-name="Eng" unicode="&#x14a;" horiz-adv-x="705" 
d="M532 710h76v-724q0 -89 -39 -131.5t-120 -42.5h-28v67h17q55 0 76.5 24t21.5 90v13l-362 556v-562h-76v710h67l367 -564v564z" />
    <glyph glyph-name="Ntilde" unicode="&#xd1;" horiz-adv-x="705" 
d="M532 146v564h76v-710h-68l-366 564v-564h-76v710h67zM384 815q-19 9 -40 24q-7 5 -20.5 15.5t-23.5 16t-19 5.5q-17 0 -26.5 -17t-9.5 -48h-61q1 55 27 88.5t68 33.5q36 0 79 -33l17 -13q15 -12 25 -18t21 -6q17 0 26.5 16.5t10.5 48.5h60q0 -55 -26.5 -88.5t-68.5 -33.5
q-20 0 -39 9z" />
    <glyph glyph-name="O" unicode="O" horiz-adv-x="680" 
d="M141.5 64.5q-72.5 79.5 -72.5 235.5v110q0 156 72.5 235.5t198.5 79.5t198.5 -80t72.5 -235v-110q0 -155 -72.5 -235t-198.5 -80t-198.5 79.5zM483.5 112.5q51.5 59.5 51.5 187.5v110q0 128 -51.5 187.5t-143.5 59.5t-143.5 -59.5t-51.5 -187.5v-110q0 -128 51.5 -187.5
t143.5 -59.5t143.5 59.5z" />
    <glyph glyph-name="Oacute" unicode="&#xd3;" horiz-adv-x="680" 
d="M141.5 64.5q-72.5 79.5 -72.5 235.5v110q0 156 72.5 235.5t198.5 79.5t198.5 -80t72.5 -235v-110q0 -155 -72.5 -235t-198.5 -80t-198.5 79.5zM483.5 112.5q51.5 59.5 51.5 187.5v110q0 128 -51.5 187.5t-143.5 59.5t-143.5 -59.5t-51.5 -187.5v-110q0 -128 51.5 -187.5
t143.5 -59.5t143.5 59.5zM366 803h-76l100 139h88z" />
    <glyph glyph-name="Obreve" unicode="&#x14e;" horiz-adv-x="680" 
d="M141.5 64.5q-72.5 79.5 -72.5 235.5v110q0 156 72.5 235.5t198.5 79.5t198.5 -80t72.5 -235v-110q0 -155 -72.5 -235t-198.5 -80t-198.5 79.5zM483.5 112.5q51.5 59.5 51.5 187.5v110q0 128 -51.5 187.5t-143.5 59.5t-143.5 -59.5t-51.5 -187.5v-110q0 -128 51.5 -187.5
t143.5 -59.5t143.5 59.5zM227 836.5q-40 34.5 -40 105.5h60q0 -88 93 -88t93 88h59q0 -71 -40 -105.5t-112 -34.5q-73 0 -113 34.5z" />
    <glyph glyph-name="Ocircumflex" unicode="&#xd4;" horiz-adv-x="680" 
d="M141.5 64.5q-72.5 79.5 -72.5 235.5v110q0 156 72.5 235.5t198.5 79.5t198.5 -80t72.5 -235v-110q0 -155 -72.5 -235t-198.5 -80t-198.5 79.5zM483.5 112.5q51.5 59.5 51.5 187.5v110q0 128 -51.5 187.5t-143.5 59.5t-143.5 -59.5t-51.5 -187.5v-110q0 -128 51.5 -187.5
t143.5 -59.5t143.5 59.5zM372 942l124 -139h-81l-77 88l-75 -88h-80l124 139h65z" />
    <glyph glyph-name="Odieresis" unicode="&#xd6;" horiz-adv-x="680" 
d="M141.5 64.5q-72.5 79.5 -72.5 235.5v110q0 156 72.5 235.5t198.5 79.5t198.5 -80t72.5 -235v-110q0 -155 -72.5 -235t-198.5 -80t-198.5 79.5zM483.5 112.5q51.5 59.5 51.5 187.5v110q0 128 -51.5 187.5t-143.5 59.5t-143.5 -59.5t-51.5 -187.5v-110q0 -128 51.5 -187.5
t143.5 -59.5t143.5 59.5zM283 825h-87v87h87v-87zM481 825h-85v87h85v-87z" />
    <glyph glyph-name="Ograve" unicode="&#xd2;" horiz-adv-x="680" 
d="M141.5 64.5q-72.5 79.5 -72.5 235.5v110q0 156 72.5 235.5t198.5 79.5t198.5 -80t72.5 -235v-110q0 -155 -72.5 -235t-198.5 -80t-198.5 79.5zM483.5 112.5q51.5 59.5 51.5 187.5v110q0 128 -51.5 187.5t-143.5 59.5t-143.5 -59.5t-51.5 -187.5v-110q0 -128 51.5 -187.5
t143.5 -59.5t143.5 59.5zM272 942l100 -139h-76l-112 139h88z" />
    <glyph glyph-name="Ohungarumlaut" unicode="&#x150;" horiz-adv-x="680" 
d="M141.5 64.5q-72.5 79.5 -72.5 235.5v110q0 156 72.5 235.5t198.5 79.5t198.5 -80t72.5 -235v-110q0 -155 -72.5 -235t-198.5 -80t-198.5 79.5zM483.5 112.5q51.5 59.5 51.5 187.5v110q0 128 -51.5 187.5t-143.5 59.5t-143.5 -59.5t-51.5 -187.5v-110q0 -128 51.5 -187.5
t143.5 -59.5t143.5 59.5zM289 803h-75l94 129h80zM463 803h-73l99 129h84z" />
    <glyph glyph-name="Omacron" unicode="&#x14c;" horiz-adv-x="680" 
d="M141.5 64.5q-72.5 79.5 -72.5 235.5v110q0 156 72.5 235.5t198.5 79.5t198.5 -80t72.5 -235v-110q0 -155 -72.5 -235t-198.5 -80t-198.5 79.5zM483.5 112.5q51.5 59.5 51.5 187.5v110q0 128 -51.5 187.5t-143.5 59.5t-143.5 -59.5t-51.5 -187.5v-110q0 -128 51.5 -187.5
t143.5 -59.5t143.5 59.5zM485 820h-289v61h289v-61z" />
    <glyph glyph-name="Oslash" unicode="&#xd8;" horiz-adv-x="691" 
d="M648 715l-77 -108q46 -78 46 -197v-110q0 -155 -72.5 -235t-197.5 -80q-108 0 -179 60l-36 -50h-88l76 107q-45 78 -45 198v110q0 155 73 235t199 80q109 0 178 -60l35 50h88zM151 301q0 -80 21 -133l312 436q-49 53 -137 53q-92 0 -144 -60t-52 -188v-108zM541 409
q0 79 -20 133l-313 -435q48 -54 139 -54q92 0 143 60t51 188v108z" />
    <glyph glyph-name="Otilde" unicode="&#xd5;" horiz-adv-x="680" 
d="M141.5 64.5q-72.5 79.5 -72.5 235.5v110q0 156 72.5 235.5t198.5 79.5t198.5 -80t72.5 -235v-110q0 -155 -72.5 -235t-198.5 -80t-198.5 79.5zM483.5 112.5q51.5 59.5 51.5 187.5v110q0 128 -51.5 187.5t-143.5 59.5t-143.5 -59.5t-51.5 -187.5v-110q0 -128 51.5 -187.5
t143.5 -59.5t143.5 59.5zM373 815q-19 9 -40 24q-7 5 -20.5 15.5t-23.5 16t-19 5.5q-17 0 -26.5 -17t-9.5 -48h-61q1 55 27 88.5t68 33.5q36 0 79 -33l17 -13q15 -12 25 -18t21 -6q17 0 26.5 16.5t10.5 48.5h60q0 -55 -26.5 -88.5t-68.5 -33.5q-20 0 -39 9z" />
    <glyph glyph-name="OE" unicode="&#x152;" horiz-adv-x="1016" 
d="M958 642h-347v-243h277v-68h-277v-263h347v-68h-419v88q-63 -103 -205 -103q-122 0 -193.5 80t-71.5 235v110q0 155 71.5 235t193.5 80q142 0 205 -103v88h419v-68zM483.5 112.5q51.5 59.5 51.5 187.5v110q0 128 -51.5 187.5t-142.5 59.5q-93 0 -144.5 -59.5
t-51.5 -187.5v-110q0 -128 51.5 -187.5t144.5 -59.5q91 0 142.5 59.5z" />
    <glyph glyph-name="P" unicode="P" horiz-adv-x="596" 
d="M491 654.5q62 -55.5 62 -152.5q0 -98 -62 -153.5t-170 -55.5h-147v-293h-76v710h223q108 0 170 -55.5zM321 361q73 0 113.5 35t40.5 106q0 70 -40.5 105t-113.5 35h-147v-281h147z" />
    <glyph glyph-name="Thorn" unicode="&#xde;" horiz-adv-x="609" 
d="M317 575q115 0 175.5 -54.5t60.5 -153.5q0 -100 -60.5 -154.5t-175.5 -54.5h-143v-158h-76v710h76v-135h143zM317 226q82 0 120 34t38 107q0 72 -38 106t-120 34h-143v-281h143z" />
    <glyph glyph-name="Q" unicode="Q" horiz-adv-x="686" 
d="M648 23l-47 -51l-83 75q-70 -62 -178 -62q-126 0 -198.5 79.5t-72.5 235.5v110q0 156 72.5 235.5t198.5 79.5t198.5 -80t72.5 -235v-110q0 -120 -49 -199zM466 95l-166 150l45 51l162 -146q28 59 28 150v110q0 128 -51.5 187.5t-143.5 59.5t-143.5 -59.5t-51.5 -187.5
v-110q0 -128 51.5 -187.5t143.5 -59.5q78 0 126 42z" />
    <glyph glyph-name="R" unicode="R" horiz-adv-x="616" 
d="M484 0l-190 312h-120v-312h-76v710h228q71 0 122 -26t77 -71.5t26 -101.5q0 -75 -44.5 -128t-126.5 -67l195 -316h-91zM174 642v-262h152q71 0 109 33t38 98t-38 98t-109 33h-152z" />
    <glyph glyph-name="Racute" unicode="&#x154;" horiz-adv-x="616" 
d="M484 0l-190 312h-120v-312h-76v710h228q71 0 122 -26t77 -71.5t26 -101.5q0 -75 -44.5 -128t-126.5 -67l195 -316h-91zM174 642v-262h152q71 0 109 33t38 98t-38 98t-109 33h-152zM330 803h-76l100 139h88z" />
    <glyph glyph-name="Rcaron" unicode="&#x158;" horiz-adv-x="616" 
d="M484 0l-190 312h-120v-312h-76v710h228q71 0 122 -26t77 -71.5t26 -101.5q0 -75 -44.5 -128t-126.5 -67l195 -316h-91zM174 642v-262h152q71 0 109 33t38 98t-38 98t-109 33h-152zM305 854l75 88h80l-124 -139h-64l-125 139h82z" />
    <glyph glyph-name="uni0156" unicode="&#x156;" horiz-adv-x="616" 
d="M484 0l-190 312h-120v-312h-76v710h228q71 0 122 -26t77 -71.5t26 -101.5q0 -75 -44.5 -128t-126.5 -67l195 -316h-91zM174 642v-262h152q71 0 109 33t38 98t-38 98t-109 33h-152zM276 -112v68h93v-63l-56 -108h-49l54 103h-42z" />
    <glyph glyph-name="S" unicode="S" horiz-adv-x="617" 
d="M175 12.5q-57 27.5 -88.5 78t-32.5 117.5h76q3 -74 49.5 -114.5t128.5 -40.5q81 0 127.5 35t46.5 95q0 51 -35 80.5t-112 53.5l-84 26q-82 26 -130 69.5t-48 122.5q0 55 28 98t80.5 67.5t121.5 24.5q111 0 175 -58t66 -158h-76q-2 71 -45.5 109.5t-119.5 38.5
q-70 0 -112 -31.5t-42 -87.5q0 -49 35 -78t104 -50l85 -26q92 -28 138.5 -73.5t46.5 -124.5q0 -61 -32 -106.5t-89 -70t-129 -24.5q-76 0 -133 27.5z" />
    <glyph glyph-name="Sacute" unicode="&#x15a;" horiz-adv-x="617" 
d="M175 12.5q-57 27.5 -88.5 78t-32.5 117.5h76q3 -74 49.5 -114.5t128.5 -40.5q81 0 127.5 35t46.5 95q0 51 -35 80.5t-112 53.5l-84 26q-82 26 -130 69.5t-48 122.5q0 55 28 98t80.5 67.5t121.5 24.5q111 0 175 -58t66 -158h-76q-2 71 -45.5 109.5t-119.5 38.5
q-70 0 -112 -31.5t-42 -87.5q0 -49 35 -78t104 -50l85 -26q92 -28 138.5 -73.5t46.5 -124.5q0 -61 -32 -106.5t-89 -70t-129 -24.5q-76 0 -133 27.5zM330 803h-76l100 139h88z" />
    <glyph glyph-name="Scaron" unicode="&#x160;" horiz-adv-x="617" 
d="M175 12.5q-57 27.5 -88.5 78t-32.5 117.5h76q3 -74 49.5 -114.5t128.5 -40.5q81 0 127.5 35t46.5 95q0 51 -35 80.5t-112 53.5l-84 26q-82 26 -130 69.5t-48 122.5q0 55 28 98t80.5 67.5t121.5 24.5q111 0 175 -58t66 -158h-76q-2 71 -45.5 109.5t-119.5 38.5
q-70 0 -112 -31.5t-42 -87.5q0 -49 35 -78t104 -50l85 -26q92 -28 138.5 -73.5t46.5 -124.5q0 -61 -32 -106.5t-89 -70t-129 -24.5q-76 0 -133 27.5zM304 854l75 88h80l-124 -139h-64l-125 139h82z" />
    <glyph glyph-name="Scedilla" unicode="&#x15e;" horiz-adv-x="617" 
d="M495 45q-63 -54 -165 -59l-12 -35q89 -9 89 -74q0 -42 -30 -61t-94 -19h-40v58h46q26 0 36.5 6t10.5 19q0 14 -10.5 19.5t-36.5 5.5h-39l26 81q-101 9 -160.5 68.5t-61.5 153.5h76q3 -74 49.5 -114.5t128.5 -40.5q81 0 127.5 35t46.5 95q0 51 -35 80.5t-112 53.5l-84 26
q-82 26 -130 69.5t-48 122.5q0 55 28 98t80.5 67.5t121.5 24.5q111 0 175 -58t66 -158h-76q-2 71 -45.5 109.5t-119.5 38.5q-70 0 -112 -31.5t-42 -87.5q0 -49 35 -78t104 -50l85 -26q92 -28 138.5 -73.5t46.5 -124.5q0 -87 -63 -141z" />
    <glyph glyph-name="Scircumflex" unicode="&#x15c;" horiz-adv-x="617" 
d="M175 12.5q-57 27.5 -88.5 78t-32.5 117.5h76q3 -74 49.5 -114.5t128.5 -40.5q81 0 127.5 35t46.5 95q0 51 -35 80.5t-112 53.5l-84 26q-82 26 -130 69.5t-48 122.5q0 55 28 98t80.5 67.5t121.5 24.5q111 0 175 -58t66 -158h-76q-2 71 -45.5 109.5t-119.5 38.5
q-70 0 -112 -31.5t-42 -87.5q0 -49 35 -78t104 -50l85 -26q92 -28 138.5 -73.5t46.5 -124.5q0 -61 -32 -106.5t-89 -70t-129 -24.5q-76 0 -133 27.5zM335 942l124 -139h-81l-77 88l-75 -88h-80l124 139h65z" />
    <glyph glyph-name="uni0218" unicode="&#x218;" horiz-adv-x="617" 
d="M175 12.5q-57 27.5 -88.5 78t-32.5 117.5h76q3 -74 49.5 -114.5t128.5 -40.5q81 0 127.5 35t46.5 95q0 51 -35 80.5t-112 53.5l-84 26q-82 26 -130 69.5t-48 122.5q0 55 28 98t80.5 67.5t121.5 24.5q111 0 175 -58t66 -158h-76q-2 71 -45.5 109.5t-119.5 38.5
q-70 0 -112 -31.5t-42 -87.5q0 -49 35 -78t104 -50l85 -26q92 -28 138.5 -73.5t46.5 -124.5q0 -61 -32 -106.5t-89 -70t-129 -24.5q-76 0 -133 27.5zM261 -112v68h93v-63l-56 -108h-49l54 103h-42z" />
    <glyph glyph-name="uni1E9E" unicode="&#x1e9e;" horiz-adv-x="651" 
d="M386 412q98 -3 158 -58t60 -145q0 -63 -30.5 -110.5t-85 -73t-126.5 -25.5h-79v68h83q74 0 117.5 38.5t43.5 102.5q0 62 -43.5 99.5t-117.5 37.5h-66v58l154 238h-280v-642h-76v710h443v-60z" />
    <glyph glyph-name="uni018F" unicode="&#x18f;" horiz-adv-x="660" 
d="M463 690.5q61 -34.5 94.5 -102.5t33.5 -165v-136q0 -98 -33.5 -165.5t-93 -102t-137.5 -34.5q-76 0 -135 34.5t-92 102.5t-33 165v93h448v43q0 119 -51.5 176.5t-141.5 57.5q-76 0 -121.5 -39t-53.5 -101h-76q5 58 35.5 105.5t86 75t129.5 27.5q80 0 141 -34.5zM464 111
q51 58 51 176v24h-371v-24q0 -118 50.5 -176t133.5 -58q85 0 136 58z" />
    <glyph glyph-name="T" unicode="T" horiz-adv-x="559" 
d="M29 710h501v-70h-213v-640h-76v640h-212v70z" />
    <glyph glyph-name="Tbar" unicode="&#x166;" horiz-adv-x="582" 
d="M541 710v-70h-212v-249h148v-65h-148v-326h-76v326h-148v65h148v249h-213v70h501z" />
    <glyph glyph-name="Tcaron" unicode="&#x164;" horiz-adv-x="559" 
d="M29 710h501v-70h-213v-640h-76v640h-212v70zM280 854l75 88h80l-124 -139h-64l-125 139h82z" />
    <glyph glyph-name="uni0162" unicode="&#x162;" horiz-adv-x="559" 
d="M317 0h-11l-17 -49q89 -9 89 -74q0 -42 -30 -61t-94 -19h-40v58h46q26 0 36.5 6t10.5 19q0 14 -10.5 19.5t-36.5 5.5h-39l30 95h-10v640h-212v70h501v-70h-213v-640z" />
    <glyph glyph-name="uni021A" unicode="&#x21a;" horiz-adv-x="559" 
d="M29 710h501v-70h-213v-640h-76v640h-212v70zM233 -112v68h93v-63l-56 -108h-49l54 103h-42z" />
    <glyph glyph-name="U" unicode="U" horiz-adv-x="689" 
d="M159 54.5q-67 69.5 -67 199.5v456h76v-456q0 -101 45.5 -151t130.5 -50t131 50t46 151v456h76v-456q0 -130 -67 -199.5t-186 -69.5q-118 0 -185 69.5z" />
    <glyph glyph-name="Uacute" unicode="&#xda;" horiz-adv-x="689" 
d="M159 54.5q-67 69.5 -67 199.5v456h76v-456q0 -101 45.5 -151t130.5 -50t131 50t46 151v456h76v-456q0 -130 -67 -199.5t-186 -69.5q-118 0 -185 69.5zM371 803h-76l100 139h88z" />
    <glyph glyph-name="Ubreve" unicode="&#x16c;" horiz-adv-x="689" 
d="M159 54.5q-67 69.5 -67 199.5v456h76v-456q0 -101 45.5 -151t130.5 -50t131 50t46 151v456h76v-456q0 -130 -67 -199.5t-186 -69.5q-118 0 -185 69.5zM232 836.5q-40 34.5 -40 105.5h60q0 -88 93 -88t93 88h59q0 -71 -40 -105.5t-112 -34.5q-73 0 -113 34.5z" />
    <glyph glyph-name="Ucircumflex" unicode="&#xdb;" horiz-adv-x="689" 
d="M159 54.5q-67 69.5 -67 199.5v456h76v-456q0 -101 45.5 -151t130.5 -50t131 50t46 151v456h76v-456q0 -130 -67 -199.5t-186 -69.5q-118 0 -185 69.5zM377 942l124 -139h-81l-77 88l-75 -88h-80l124 139h65z" />
    <glyph glyph-name="Udieresis" unicode="&#xdc;" horiz-adv-x="689" 
d="M159 54.5q-67 69.5 -67 199.5v456h76v-456q0 -101 45.5 -151t130.5 -50t131 50t46 151v456h76v-456q0 -130 -67 -199.5t-186 -69.5q-118 0 -185 69.5zM289 825h-87v87h87v-87zM487 825h-85v87h85v-87z" />
    <glyph glyph-name="Ugrave" unicode="&#xd9;" horiz-adv-x="689" 
d="M159 54.5q-67 69.5 -67 199.5v456h76v-456q0 -101 45.5 -151t130.5 -50t131 50t46 151v456h76v-456q0 -130 -67 -199.5t-186 -69.5q-118 0 -185 69.5zM277 942l100 -139h-76l-112 139h88z" />
    <glyph glyph-name="Uhungarumlaut" unicode="&#x170;" horiz-adv-x="689" 
d="M159 54.5q-67 69.5 -67 199.5v456h76v-456q0 -101 45.5 -151t130.5 -50t131 50t46 151v456h76v-456q0 -130 -67 -199.5t-186 -69.5q-118 0 -185 69.5zM294 803h-75l94 129h80zM468 803h-73l99 129h84z" />
    <glyph glyph-name="Umacron" unicode="&#x16a;" horiz-adv-x="689" 
d="M159 54.5q-67 69.5 -67 199.5v456h76v-456q0 -101 45.5 -151t130.5 -50t131 50t46 151v456h76v-456q0 -130 -67 -199.5t-186 -69.5q-118 0 -185 69.5zM490 820h-289v61h289v-61z" />
    <glyph glyph-name="Uogonek" unicode="&#x172;" horiz-adv-x="689" 
d="M521 710h76v-456q0 -87 -30.5 -147.5t-87.5 -90.5l-42 -35q-33 -28 -43.5 -41t-10.5 -28q0 -20 16 -29.5t51 -9.5h27v-58h-28q-65 0 -98.5 17t-33.5 60q0 25 14 46t52 49q-24 -2 -39 -2q-118 0 -185 69.5t-67 199.5v456h76v-456q0 -101 45.5 -151t130.5 -50t131 50
t46 151v456z" />
    <glyph glyph-name="Uring" unicode="&#x16e;" horiz-adv-x="689" 
d="M159 54.5q-67 69.5 -67 199.5v456h76v-456q0 -101 45.5 -151t130.5 -50t131 50t46 151v456h76v-456q0 -130 -67 -199.5t-186 -69.5q-118 0 -185 69.5zM258 819.5q-33 31.5 -33 82.5t33.5 82t86.5 31q54 0 87.5 -31t33.5 -82q0 -52 -33.5 -83t-87.5 -31t-87 31.5zM394 852
q18 18 18 50q0 30 -18.5 48.5t-48.5 18.5q-29 0 -47.5 -18.5t-18.5 -48.5q0 -32 18 -50t48 -18q31 0 49 18z" />
    <glyph glyph-name="Utilde" unicode="&#x168;" horiz-adv-x="689" 
d="M159 54.5q-67 69.5 -67 199.5v456h76v-456q0 -101 45.5 -151t130.5 -50t131 50t46 151v456h76v-456q0 -130 -67 -199.5t-186 -69.5q-118 0 -185 69.5zM378 815q-19 9 -40 24q-7 5 -20.5 15.5t-23.5 16t-19 5.5q-17 0 -26.5 -17t-9.5 -48h-61q1 55 27 88.5t68 33.5
q36 0 79 -33l17 -13q15 -12 25 -18t21 -6q17 0 26.5 16.5t10.5 48.5h60q0 -55 -26.5 -88.5t-68.5 -33.5q-20 0 -39 9z" />
    <glyph glyph-name="V" unicode="V" horiz-adv-x="616" 
d="M309 107l208 603h80l-251 -710h-76l-251 710h81z" />
    <glyph glyph-name="W" unicode="W" horiz-adv-x="945" 
d="M679 126l161 584h79l-200 -710h-82l-165 578l-164 -578h-83l-201 710h81l164 -588l165 588h78z" />
    <glyph glyph-name="Wacute" unicode="&#x1e82;" horiz-adv-x="945" 
d="M679 126l161 584h79l-200 -710h-82l-165 578l-164 -578h-83l-201 710h81l164 -588l165 588h78zM499 803h-76l100 139h88z" />
    <glyph glyph-name="Wcircumflex" unicode="&#x174;" horiz-adv-x="945" 
d="M679 126l161 584h79l-200 -710h-82l-165 578l-164 -578h-83l-201 710h81l164 -588l165 588h78zM505 942l124 -139h-81l-77 88l-75 -88h-80l124 139h65z" />
    <glyph glyph-name="Wdieresis" unicode="&#x1e84;" horiz-adv-x="945" 
d="M679 126l161 584h79l-200 -710h-82l-165 578l-164 -578h-83l-201 710h81l164 -588l165 588h78zM417 825h-87v87h87v-87zM615 825h-85v87h85v-87z" />
    <glyph glyph-name="Wgrave" unicode="&#x1e80;" horiz-adv-x="945" 
d="M679 126l161 584h79l-200 -710h-82l-165 578l-164 -578h-83l-201 710h81l164 -588l165 588h78zM405 942l100 -139h-76l-112 139h88z" />
    <glyph glyph-name="X" unicode="X" horiz-adv-x="605" 
d="M355 373l227 -373h-87l-192 316l-197 -316h-85l231 362l-211 348h87l175 -289l176 289h85z" />
    <glyph glyph-name="Y" unicode="Y" horiz-adv-x="614" 
d="M512 710h87l-254 -356v-354h-76v354l-254 356h90l204 -286z" />
    <glyph glyph-name="Yacute" unicode="&#xdd;" horiz-adv-x="614" 
d="M512 710h87l-254 -356v-354h-76v354l-254 356h90l204 -286zM334 803h-76l100 139h88z" />
    <glyph glyph-name="Ycircumflex" unicode="&#x176;" horiz-adv-x="614" 
d="M512 710h87l-254 -356v-354h-76v354l-254 356h90l204 -286zM340 942l124 -139h-81l-77 88l-75 -88h-80l124 139h65z" />
    <glyph glyph-name="Ydieresis" unicode="&#x178;" horiz-adv-x="614" 
d="M512 710h87l-254 -356v-354h-76v354l-254 356h90l204 -286zM252 825h-87v87h87v-87zM450 825h-85v87h85v-87z" />
    <glyph glyph-name="Ygrave" unicode="&#x1ef2;" horiz-adv-x="614" 
d="M512 710h87l-254 -356v-354h-76v354l-254 356h90l204 -286zM240 942l100 -139h-76l-112 139h88z" />
    <glyph glyph-name="uni0232" unicode="&#x232;" horiz-adv-x="614" 
d="M512 710h87l-254 -356v-354h-76v354l-254 356h90l204 -286zM453 820h-289v61h289v-61z" />
    <glyph glyph-name="Z" unicode="Z" horiz-adv-x="563" 
d="M58 710h454v-64l-373 -576h372v-70h-464v64l373 576h-362v70z" />
    <glyph glyph-name="Zacute" unicode="&#x179;" horiz-adv-x="563" 
d="M58 710h454v-64l-373 -576h372v-70h-464v64l373 576h-362v70zM311 803h-76l100 139h88z" />
    <glyph glyph-name="Zcaron" unicode="&#x17d;" horiz-adv-x="563" 
d="M58 710h454v-64l-373 -576h372v-70h-464v64l373 576h-362v70zM286 854l75 88h80l-124 -139h-64l-125 139h82z" />
    <glyph glyph-name="Zdotaccent" unicode="&#x17b;" horiz-adv-x="563" 
d="M58 710h454v-64l-373 -576h372v-70h-464v64l373 576h-362v70zM328 824h-85v91h85v-91z" />
    <glyph glyph-name="Q.aalt" horiz-adv-x="680" 
d="M620 -38v-78l-374 122q-86 28 -131.5 102.5t-45.5 191.5v110q0 156 72.5 235.5t198.5 79.5t198.5 -80t72.5 -235v-105q0 -119 -49.5 -190.5t-138.5 -93.5zM145 300q0 -119 52 -179.5t143 -60.5t143 60.5t52 179.5v110q0 128 -51.5 187.5t-143.5 59.5t-143.5 -59.5
t-51.5 -187.5v-110z" />
    <glyph glyph-name="Adieresis.aalt" horiz-adv-x="638" 
d="M608 0h-82l-64 184h-288l-64 -184h-80l251 710h76zM318 601l-121 -348h241zM552 619h-85v91h85v-91zM172 619h-85v91h85v-91z" />
    <glyph glyph-name="Odieresis.aalt" horiz-adv-x="680" 
d="M141.5 64.5q-72.5 79.5 -72.5 235.5v110q0 156 72.5 235.5t198.5 79.5t198.5 -80t72.5 -235v-110q0 -155 -72.5 -235t-198.5 -80t-198.5 79.5zM483.5 112.5q51.5 59.5 51.5 187.5v110q0 128 -51.5 187.5t-143.5 59.5t-143.5 -59.5t-51.5 -187.5v-110q0 -128 51.5 -187.5
t143.5 -59.5t143.5 59.5zM383 496h-85v91h85v-91zM383 332h-85v91h85v-91z" />
    <glyph glyph-name="Udieresis.aalt" horiz-adv-x="688" 
d="M159 54.5q-67 69.5 -67 199.5v456h76v-456q0 -101 45.5 -151t130.5 -50t131 50t46 151v456h76v-456q0 -130 -67 -199.5t-186 -69.5q-118 0 -185 69.5zM387 619h-85v91h85v-91zM387 455h-85v91h85v-91z" />
    <glyph glyph-name="a" unicode="a" horiz-adv-x="553" 
d="M415 489q54 -56 54 -145v-344h-67v55q-23 -31 -62 -49t-93 -18q-89 0 -139.5 44t-50.5 114t52 114.5t145 44.5q92 0 142 -57v94q0 64 -33 100.5t-95 36.5q-55 0 -85.5 -27t-32.5 -72h-73q1 47 25.5 84.5t67.5 59t99 21.5q92 0 146 -56zM364 74q34 28 34 72q0 45 -34 73
t-98 28t-99.5 -28.5t-35.5 -72.5t35.5 -72t99.5 -28t98 28z" />
    <glyph glyph-name="aacute" unicode="&#xe1;" horiz-adv-x="553" 
d="M415 489q54 -56 54 -145v-344h-67v55q-23 -31 -62 -49t-93 -18q-89 0 -139.5 44t-50.5 114t52 114.5t145 44.5q92 0 142 -57v94q0 64 -33 100.5t-95 36.5q-55 0 -85.5 -27t-32.5 -72h-73q1 47 25.5 84.5t67.5 59t99 21.5q92 0 146 -56zM364 74q34 28 34 72q0 45 -34 73
t-98 28t-99.5 -28.5t-35.5 -72.5t35.5 -72t99.5 -28t98 28zM301 626h-76l100 139h88z" />
    <glyph glyph-name="abreve" unicode="&#x103;" horiz-adv-x="553" 
d="M415 489q54 -56 54 -145v-344h-67v55q-23 -31 -62 -49t-93 -18q-89 0 -139.5 44t-50.5 114t52 114.5t145 44.5q92 0 142 -57v94q0 64 -33 100.5t-95 36.5q-55 0 -85.5 -27t-32.5 -72h-73q1 47 25.5 84.5t67.5 59t99 21.5q92 0 146 -56zM364 74q34 28 34 72q0 45 -34 73
t-98 28t-99.5 -28.5t-35.5 -72.5t35.5 -72t99.5 -28t98 28zM162 659.5q-40 34.5 -40 105.5h60q0 -88 93 -88t93 88h59q0 -71 -40 -105.5t-112 -34.5q-73 0 -113 34.5z" />
    <glyph glyph-name="acircumflex" unicode="&#xe2;" horiz-adv-x="553" 
d="M415 489q54 -56 54 -145v-344h-67v55q-23 -31 -62 -49t-93 -18q-89 0 -139.5 44t-50.5 114t52 114.5t145 44.5q92 0 142 -57v94q0 64 -33 100.5t-95 36.5q-55 0 -85.5 -27t-32.5 -72h-73q1 47 25.5 84.5t67.5 59t99 21.5q92 0 146 -56zM364 74q34 28 34 72q0 45 -34 73
t-98 28t-99.5 -28.5t-35.5 -72.5t35.5 -72t99.5 -28t98 28zM306 765l124 -139h-81l-77 88l-75 -88h-80l124 139h65z" />
    <glyph glyph-name="adieresis" unicode="&#xe4;" horiz-adv-x="553" 
d="M415 489q54 -56 54 -145v-344h-67v55q-23 -31 -62 -49t-93 -18q-89 0 -139.5 44t-50.5 114t52 114.5t145 44.5q92 0 142 -57v94q0 64 -33 100.5t-95 36.5q-55 0 -85.5 -27t-32.5 -72h-73q1 47 25.5 84.5t67.5 59t99 21.5q92 0 146 -56zM364 74q34 28 34 72q0 45 -34 73
t-98 28t-99.5 -28.5t-35.5 -72.5t35.5 -72t99.5 -28t98 28zM218 648h-87v87h87v-87zM416 648h-85v87h85v-87z" />
    <glyph glyph-name="agrave" unicode="&#xe0;" horiz-adv-x="553" 
d="M415 489q54 -56 54 -145v-344h-67v55q-23 -31 -62 -49t-93 -18q-89 0 -139.5 44t-50.5 114t52 114.5t145 44.5q92 0 142 -57v94q0 64 -33 100.5t-95 36.5q-55 0 -85.5 -27t-32.5 -72h-73q1 47 25.5 84.5t67.5 59t99 21.5q92 0 146 -56zM364 74q34 28 34 72q0 45 -34 73
t-98 28t-99.5 -28.5t-35.5 -72.5t35.5 -72t99.5 -28t98 28zM207 765l100 -139h-76l-112 139h88z" />
    <glyph glyph-name="amacron" unicode="&#x101;" horiz-adv-x="553" 
d="M415 489q54 -56 54 -145v-344h-67v55q-23 -31 -62 -49t-93 -18q-89 0 -139.5 44t-50.5 114t52 114.5t145 44.5q92 0 142 -57v94q0 64 -33 100.5t-95 36.5q-55 0 -85.5 -27t-32.5 -72h-73q1 47 25.5 84.5t67.5 59t99 21.5q92 0 146 -56zM364 74q34 28 34 72q0 45 -34 73
t-98 28t-99.5 -28.5t-35.5 -72.5t35.5 -72t99.5 -28t98 28zM419 643h-289v61h289v-61z" />
    <glyph glyph-name="aogonek" unicode="&#x105;" horiz-adv-x="553" 
d="M479 -127v-58h-38q-123 0 -123 78q0 25 13.5 46.5t45.5 44.5l25 19v52q-23 -31 -62 -49t-93 -18q-89 0 -139.5 44t-50.5 114t52 114.5t145 44.5q92 0 142 -57v94q0 64 -33 100.5t-95 36.5q-55 0 -85.5 -27t-32.5 -72h-73q1 47 25.5 84.5t67.5 59t99 21.5q92 0 146 -56
t54 -145v-344l-42 -31q-24 -18 -33 -30.5t-9 -26.5q0 -20 15.5 -29.5t50.5 -9.5h28zM364 74q34 28 34 72q0 45 -34 73t-98 28t-99.5 -28.5t-35.5 -72.5t35.5 -72t99.5 -28t98 28z" />
    <glyph glyph-name="aring" unicode="&#xe5;" horiz-adv-x="553" 
d="M415 489q54 -56 54 -145v-344h-67v55q-23 -31 -62 -49t-93 -18q-89 0 -139.5 44t-50.5 114t52 114.5t145 44.5q92 0 142 -57v94q0 64 -33 100.5t-95 36.5q-55 0 -85.5 -27t-32.5 -72h-73q1 47 25.5 84.5t67.5 59t99 21.5q92 0 146 -56zM364 74q34 28 34 72q0 45 -34 73
t-98 28t-99.5 -28.5t-35.5 -72.5t35.5 -72t99.5 -28t98 28zM187 642.5q-33 31.5 -33 82.5t33.5 82t86.5 31q54 0 87.5 -31t33.5 -82q0 -52 -33.5 -83t-87.5 -31t-87 31.5zM323 675q18 18 18 50q0 30 -18.5 48.5t-48.5 18.5q-29 0 -47.5 -18.5t-18.5 -48.5q0 -32 18 -50
t48 -18q31 0 49 18z" />
    <glyph glyph-name="atilde" unicode="&#xe3;" horiz-adv-x="553" 
d="M415 489q54 -56 54 -145v-344h-67v55q-23 -31 -62 -49t-93 -18q-89 0 -139.5 44t-50.5 114t52 114.5t145 44.5q92 0 142 -57v94q0 64 -33 100.5t-95 36.5q-55 0 -85.5 -27t-32.5 -72h-73q1 47 25.5 84.5t67.5 59t99 21.5q92 0 146 -56zM364 74q34 28 34 72q0 45 -34 73
t-98 28t-99.5 -28.5t-35.5 -72.5t35.5 -72t99.5 -28t98 28zM308 638q-19 9 -40 24q-7 5 -20.5 15.5t-23.5 16t-19 5.5q-17 0 -26.5 -17t-9.5 -48h-61q1 55 27 88.5t68 33.5q36 0 79 -33l17 -13q15 -12 25 -18t21 -6q17 0 26.5 16.5t10.5 48.5h60q0 -55 -26.5 -88.5
t-68.5 -33.5q-20 0 -39 9z" />
    <glyph glyph-name="ae" unicode="&#xe6;" horiz-adv-x="881" 
d="M702.5 78q33.5 25 43.5 66h73q-8 -69 -63 -112.5t-140 -43.5q-61 0 -106 24.5t-72 69.5q-20 -43 -65.5 -68.5t-115.5 -25.5q-96 0 -148 43.5t-52 114.5q0 70 52 114.5t145 44.5t142 -56v93q0 63 -33.5 100t-94.5 37q-55 0 -85.5 -27t-32.5 -72h-73q1 47 25.5 84.5
t67.5 59t99 21.5q57 0 100.5 -25t68.5 -69q26 45 70.5 70t103.5 25q99 0 153.5 -70t54.5 -184q0 -12 -2 -44h-349v-11q0 -85 36 -134.5t110 -49.5q54 0 87.5 25zM505.5 434.5q-34.5 -45.5 -36.5 -124.5h278q-3 79 -37 124.5t-101 45.5q-69 0 -103.5 -45.5zM365 74
q34 28 34 72q0 45 -34 73t-98 28q-65 0 -100.5 -28.5t-35.5 -72.5t35.5 -72t100.5 -28q64 0 98 28z" />
    <glyph glyph-name="b" unicode="b" horiz-adv-x="578" 
d="M462.5 481q51.5 -65 51.5 -165v-98q0 -101 -51.5 -165.5t-144.5 -64.5q-55 0 -94.5 25.5t-63.5 72.5v-86h-70v749h73v-287q47 84 154 84q94 0 145.5 -65zM441 302q0 81 -35.5 130t-103.5 49t-104 -48.5t-36 -129.5v-72q0 -81 36 -129.5t104 -48.5t103.5 48.5t35.5 130.5
v70z" />
    <glyph glyph-name="c" unicode="c" horiz-adv-x="528" 
d="M161 19q-48 31 -73 84t-25 119v89q0 66 25 119.5t73 84.5t114 31q85 0 139 -44t61 -119h-73q-6 46 -40 71t-87 25q-69 0 -104 -48t-35 -129v-71q0 -81 35 -129t104 -48q55 0 87.5 26t42.5 74h73q-9 -78 -63.5 -122t-139.5 -44q-66 0 -114 31z" />
    <glyph glyph-name="cacute" unicode="&#x107;" horiz-adv-x="528" 
d="M161 19q-48 31 -73 84t-25 119v89q0 66 25 119.5t73 84.5t114 31q85 0 139 -44t61 -119h-73q-6 46 -40 71t-87 25q-69 0 -104 -48t-35 -129v-71q0 -81 35 -129t104 -48q55 0 87.5 26t42.5 74h73q-9 -78 -63.5 -122t-139.5 -44q-66 0 -114 31zM305 626h-76l100 139h88z
" />
    <glyph glyph-name="ccaron" unicode="&#x10d;" horiz-adv-x="528" 
d="M161 19q-48 31 -73 84t-25 119v89q0 66 25 119.5t73 84.5t114 31q85 0 139 -44t61 -119h-73q-6 46 -40 71t-87 25q-69 0 -104 -48t-35 -129v-71q0 -81 35 -129t104 -48q55 0 87.5 26t42.5 74h73q-9 -78 -63.5 -122t-139.5 -44q-66 0 -114 31zM280 677l75 88h80l-124 -139
h-64l-125 139h82z" />
    <glyph glyph-name="ccedilla" unicode="&#xe7;" horiz-adv-x="528" 
d="M478 154q-8 -70 -53.5 -113t-116.5 -51l-13 -39q89 -9 89 -74q0 -42 -30 -61t-94 -19h-40v58h46q26 0 36.5 6t10.5 19q0 14 -10.5 19.5t-36.5 5.5h-39l26 84q-89 7 -139.5 72.5t-50.5 160.5v89q0 66 25 119.5t73 84.5t114 31q85 0 139 -44t61 -119h-73q-6 46 -40 71
t-87 25q-69 0 -104 -48t-35 -129v-71q0 -81 35 -129t104 -48q55 0 87.5 26t42.5 74h73z" />
    <glyph glyph-name="ccircumflex" unicode="&#x109;" horiz-adv-x="528" 
d="M161 19q-48 31 -73 84t-25 119v89q0 66 25 119.5t73 84.5t114 31q85 0 139 -44t61 -119h-73q-6 46 -40 71t-87 25q-69 0 -104 -48t-35 -129v-71q0 -81 35 -129t104 -48q55 0 87.5 26t42.5 74h73q-9 -78 -63.5 -122t-139.5 -44q-66 0 -114 31zM310 765l124 -139h-81
l-77 88l-75 -88h-80l124 139h65z" />
    <glyph glyph-name="cdotaccent" unicode="&#x10b;" horiz-adv-x="528" 
d="M161 19q-48 31 -73 84t-25 119v89q0 66 25 119.5t73 84.5t114 31q85 0 139 -44t61 -119h-73q-6 46 -40 71t-87 25q-69 0 -104 -48t-35 -129v-71q0 -81 35 -129t104 -48q55 0 87.5 26t42.5 74h73q-9 -78 -63.5 -122t-139.5 -44q-66 0 -114 31zM321 651h-85v91h85v-91z" />
    <glyph glyph-name="d" unicode="d" 
d="M416 749h73v-749h-69v90q-23 -48 -63.5 -75t-96.5 -27q-93 0 -144.5 64.5t-51.5 165.5v98q0 100 51.5 165t145.5 65q108 0 155 -85v288zM416 303q0 82 -35.5 130t-104.5 48q-68 0 -103.5 -49t-35.5 -130v-70q0 -81 35.5 -130t103.5 -49q69 0 104.5 48t35.5 130v72z" />
    <glyph glyph-name="eth" unicode="&#xf0;" horiz-adv-x="576" 
d="M527 736v-57l-100 -39q37 -52 53.5 -135t16.5 -203v-79q0 -66 -25.5 -119.5t-74.5 -84.5t-117 -31t-117 31t-74.5 84.5t-25.5 119.5v60q0 109 55.5 172t153.5 63q46 0 84.5 -18.5t63.5 -58.5q-6 64 -18.5 103t-36.5 67l-161 -63v59l118 45q-30 17 -67.5 24.5t-90.5 7.5
h-30v65h19q81 0 139.5 -16.5t98.5 -51.5zM424 272q0 83 -35.5 131t-108.5 48t-108.5 -48t-35.5 -131v-38q0 -83 35.5 -131t108.5 -48t108.5 48t35.5 131v38z" />
    <glyph glyph-name="dcaron" unicode="&#x10f;" horiz-adv-x="599" 
d="M623 547h-59l8 202h69zM416 749h73v-749h-69v90q-23 -48 -63.5 -75t-96.5 -27q-93 0 -144.5 64.5t-51.5 165.5v98q0 100 51.5 165t145.5 65q108 0 155 -85v288zM416 303q0 82 -35.5 130t-104.5 48q-68 0 -103.5 -49t-35.5 -130v-70q0 -81 35.5 -130t103.5 -49
q69 0 104.5 48t35.5 130v72z" />
    <glyph glyph-name="dcroat" unicode="&#x111;" 
d="M564 665v-62h-75v-603h-69v90q-23 -48 -63.5 -75t-96.5 -27q-93 0 -144.5 64.5t-51.5 165.5v91q0 100 51.5 165t145.5 65q108 0 155 -85v149h-149v62h149v84h73v-84h75zM416 296q0 82 -35.5 130t-104.5 48q-68 0 -103.5 -49t-35.5 -130v-63q0 -81 35.5 -130t103.5 -49
q69 0 104.5 48t35.5 130v65z" />
    <glyph glyph-name="e" unicode="e" horiz-adv-x="549" 
d="M370 78q33 25 43 66h73q-8 -69 -63.5 -112.5t-139.5 -43.5q-69 0 -119 31.5t-75.5 85.5t-25.5 122v79q0 68 24.5 122.5t73 86t115.5 31.5q101 0 156 -70t55 -184q0 -12 -2 -44h-349v-11q0 -85 36.5 -134.5t110.5 -49.5q54 0 87 25zM173.5 434.5q-34.5 -45.5 -37.5 -124.5
h278q-3 79 -37 124.5t-101 45.5q-68 0 -102.5 -45.5z" />
    <glyph glyph-name="eacute" unicode="&#xe9;" horiz-adv-x="549" 
d="M370 78q33 25 43 66h73q-8 -69 -63.5 -112.5t-139.5 -43.5q-69 0 -119 31.5t-75.5 85.5t-25.5 122v79q0 68 24.5 122.5t73 86t115.5 31.5q101 0 156 -70t55 -184q0 -12 -2 -44h-349v-11q0 -85 36.5 -134.5t110.5 -49.5q54 0 87 25zM173.5 434.5q-34.5 -45.5 -37.5 -124.5
h278q-3 79 -37 124.5t-101 45.5q-68 0 -102.5 -45.5zM303 626h-76l100 139h88z" />
    <glyph glyph-name="ebreve" unicode="&#x115;" horiz-adv-x="549" 
d="M370 78q33 25 43 66h73q-8 -69 -63.5 -112.5t-139.5 -43.5q-69 0 -119 31.5t-75.5 85.5t-25.5 122v79q0 68 24.5 122.5t73 86t115.5 31.5q101 0 156 -70t55 -184q0 -12 -2 -44h-349v-11q0 -85 36.5 -134.5t110.5 -49.5q54 0 87 25zM173.5 434.5q-34.5 -45.5 -37.5 -124.5
h278q-3 79 -37 124.5t-101 45.5q-68 0 -102.5 -45.5zM164 659.5q-40 34.5 -40 105.5h60q0 -88 93 -88t93 88h59q0 -71 -40 -105.5t-112 -34.5q-73 0 -113 34.5z" />
    <glyph glyph-name="ecaron" unicode="&#x11b;" horiz-adv-x="549" 
d="M370 78q33 25 43 66h73q-8 -69 -63.5 -112.5t-139.5 -43.5q-69 0 -119 31.5t-75.5 85.5t-25.5 122v79q0 68 24.5 122.5t73 86t115.5 31.5q101 0 156 -70t55 -184q0 -12 -2 -44h-349v-11q0 -85 36.5 -134.5t110.5 -49.5q54 0 87 25zM173.5 434.5q-34.5 -45.5 -37.5 -124.5
h278q-3 79 -37 124.5t-101 45.5q-68 0 -102.5 -45.5zM277 677l75 88h80l-124 -139h-64l-125 139h82z" />
    <glyph glyph-name="ecircumflex" unicode="&#xea;" horiz-adv-x="549" 
d="M370 78q33 25 43 66h73q-8 -69 -63.5 -112.5t-139.5 -43.5q-69 0 -119 31.5t-75.5 85.5t-25.5 122v79q0 68 24.5 122.5t73 86t115.5 31.5q101 0 156 -70t55 -184q0 -12 -2 -44h-349v-11q0 -85 36.5 -134.5t110.5 -49.5q54 0 87 25zM173.5 434.5q-34.5 -45.5 -37.5 -124.5
h278q-3 79 -37 124.5t-101 45.5q-68 0 -102.5 -45.5zM308 765l124 -139h-81l-77 88l-75 -88h-80l124 139h65z" />
    <glyph glyph-name="edieresis" unicode="&#xeb;" horiz-adv-x="549" 
d="M370 78q33 25 43 66h73q-8 -69 -63.5 -112.5t-139.5 -43.5q-69 0 -119 31.5t-75.5 85.5t-25.5 122v79q0 68 24.5 122.5t73 86t115.5 31.5q101 0 156 -70t55 -184q0 -12 -2 -44h-349v-11q0 -85 36.5 -134.5t110.5 -49.5q54 0 87 25zM173.5 434.5q-34.5 -45.5 -37.5 -124.5
h278q-3 79 -37 124.5t-101 45.5q-68 0 -102.5 -45.5zM220 648h-87v87h87v-87zM418 648h-85v87h85v-87z" />
    <glyph glyph-name="edotaccent" unicode="&#x117;" horiz-adv-x="549" 
d="M370 78q33 25 43 66h73q-8 -69 -63.5 -112.5t-139.5 -43.5q-69 0 -119 31.5t-75.5 85.5t-25.5 122v79q0 68 24.5 122.5t73 86t115.5 31.5q101 0 156 -70t55 -184q0 -12 -2 -44h-349v-11q0 -85 36.5 -134.5t110.5 -49.5q54 0 87 25zM173.5 434.5q-34.5 -45.5 -37.5 -124.5
h278q-3 79 -37 124.5t-101 45.5q-68 0 -102.5 -45.5zM319 651h-85v91h85v-91z" />
    <glyph glyph-name="egrave" unicode="&#xe8;" horiz-adv-x="549" 
d="M370 78q33 25 43 66h73q-8 -69 -63.5 -112.5t-139.5 -43.5q-69 0 -119 31.5t-75.5 85.5t-25.5 122v79q0 68 24.5 122.5t73 86t115.5 31.5q101 0 156 -70t55 -184q0 -12 -2 -44h-349v-11q0 -85 36.5 -134.5t110.5 -49.5q54 0 87 25zM173.5 434.5q-34.5 -45.5 -37.5 -124.5
h278q-3 79 -37 124.5t-101 45.5q-68 0 -102.5 -45.5zM209 765l100 -139h-76l-112 139h88z" />
    <glyph glyph-name="emacron" unicode="&#x113;" horiz-adv-x="549" 
d="M370 78q33 25 43 66h73q-8 -69 -63.5 -112.5t-139.5 -43.5q-69 0 -119 31.5t-75.5 85.5t-25.5 122v79q0 68 24.5 122.5t73 86t115.5 31.5q101 0 156 -70t55 -184q0 -12 -2 -44h-349v-11q0 -85 36.5 -134.5t110.5 -49.5q54 0 87 25zM173.5 434.5q-34.5 -45.5 -37.5 -124.5
h278q-3 79 -37 124.5t-101 45.5q-68 0 -102.5 -45.5zM421 643h-289v61h289v-61z" />
    <glyph glyph-name="eogonek" unicode="&#x119;" horiz-adv-x="549" 
d="M370 78q33 25 43 66h73q-4 -35 -21.5 -65t-45.5 -51l-42 -42q-32 -32 -41.5 -45t-9.5 -29q0 -20 16 -29.5t51 -9.5h27v-58h-27q-66 0 -99.5 17t-33.5 60q0 24 14.5 46.5t50.5 52.5q-19 -3 -42 -3q-69 0 -119 31.5t-75.5 85.5t-25.5 122v79q0 68 24.5 122.5t73 86
t115.5 31.5q101 0 156 -70t55 -184q0 -12 -2 -44h-349v-11q0 -85 36.5 -134.5t110.5 -49.5q54 0 87 25zM173.5 434.5q-34.5 -45.5 -37.5 -124.5h278q-3 79 -37 124.5t-101 45.5q-68 0 -102.5 -45.5z" />
    <glyph glyph-name="uni0259" unicode="&#x259;" horiz-adv-x="549" 
d="M385 513.5q50 -31.5 75.5 -85.5t25.5 -122v-79q0 -68 -24.5 -122.5t-73 -86t-115.5 -31.5q-101 0 -156 70t-55 184q0 12 2 44h349v11q0 85 -36.5 134.5t-110.5 49.5q-54 0 -87 -25t-43 -66h-73q8 69 63.5 112.5t139.5 43.5q69 0 119 -31.5zM375.5 98.5
q34.5 45.5 37.5 124.5h-278q3 -79 37 -124.5t101 -45.5q68 0 102.5 45.5z" />
    <glyph glyph-name="f" unicode="f" horiz-adv-x="377" 
d="M307 684q-52 0 -75.5 -24t-23.5 -85v-42h142v-65h-142v-468h-73v468h-104v65h104v46q0 170 167 170h48v-65h-43z" />
    <glyph glyph-name="g" unicode="g" 
d="M419 533h70v-514q0 -62 -25.5 -111.5t-73 -77.5t-112.5 -28q-90 0 -144.5 46t-60.5 122h73q18 -100 132 -100q69 0 103.5 42t34.5 116v99q-23 -43 -62.5 -66.5t-93.5 -23.5q-62 0 -106.5 28.5t-67 77.5t-22.5 109v79q0 60 22.5 109t67 77.5t107.5 28.5q110 0 158 -87v74z
M380 145.5q36 43.5 36 114.5v62q0 71 -36 114.5t-104 43.5q-67 0 -103 -44t-36 -116v-59q0 -71 35.5 -115t103.5 -44t104 43.5z" />
    <glyph glyph-name="gbreve" unicode="&#x11f;" 
d="M419 533h70v-514q0 -62 -25.5 -111.5t-73 -77.5t-112.5 -28q-90 0 -144.5 46t-60.5 122h73q18 -100 132 -100q69 0 103.5 42t34.5 116v99q-23 -43 -62.5 -66.5t-93.5 -23.5q-62 0 -106.5 28.5t-67 77.5t-22.5 109v79q0 60 22.5 109t67 77.5t107.5 28.5q110 0 158 -87v74z
M380 145.5q36 43.5 36 114.5v62q0 71 -36 114.5t-104 43.5q-67 0 -103 -44t-36 -116v-59q0 -71 35.5 -115t103.5 -44t104 43.5zM176 659.5q-40 34.5 -40 105.5h60q0 -88 93 -88t93 88h59q0 -71 -40 -105.5t-112 -34.5q-73 0 -113 34.5z" />
    <glyph glyph-name="gcircumflex" unicode="&#x11d;" 
d="M419 533h70v-514q0 -62 -25.5 -111.5t-73 -77.5t-112.5 -28q-90 0 -144.5 46t-60.5 122h73q18 -100 132 -100q69 0 103.5 42t34.5 116v99q-23 -43 -62.5 -66.5t-93.5 -23.5q-62 0 -106.5 28.5t-67 77.5t-22.5 109v79q0 60 22.5 109t67 77.5t107.5 28.5q110 0 158 -87v74z
M380 145.5q36 43.5 36 114.5v62q0 71 -36 114.5t-104 43.5q-67 0 -103 -44t-36 -116v-59q0 -71 35.5 -115t103.5 -44t104 43.5zM321 765l124 -139h-81l-77 88l-75 -88h-80l124 139h65z" />
    <glyph glyph-name="uni0123" unicode="&#x123;" 
d="M419 533h70v-514q0 -62 -25.5 -111.5t-73 -77.5t-112.5 -28q-90 0 -144.5 46t-60.5 122h73q18 -100 132 -100q69 0 103.5 42t34.5 116v99q-23 -43 -62.5 -66.5t-93.5 -23.5q-62 0 -106.5 28.5t-67 77.5t-22.5 109v79q0 60 22.5 109t67 77.5t107.5 28.5q110 0 158 -87v74z
M380 145.5q36 43.5 36 114.5v62q0 71 -36 114.5t-104 43.5q-67 0 -103 -44t-36 -116v-59q0 -71 35.5 -115t103.5 -44t104 43.5zM298 775h49l-54 -103h42v-69h-92v64z" />
    <glyph glyph-name="gdotaccent" unicode="&#x121;" 
d="M419 533h70v-514q0 -62 -25.5 -111.5t-73 -77.5t-112.5 -28q-90 0 -144.5 46t-60.5 122h73q18 -100 132 -100q69 0 103.5 42t34.5 116v99q-23 -43 -62.5 -66.5t-93.5 -23.5q-62 0 -106.5 28.5t-67 77.5t-22.5 109v79q0 60 22.5 109t67 77.5t107.5 28.5q110 0 158 -87v74z
M380 145.5q36 43.5 36 114.5v62q0 71 -36 114.5t-104 43.5q-67 0 -103 -44t-36 -116v-59q0 -71 35.5 -115t103.5 -44t104 43.5zM332 651h-85v91h85v-91z" />
    <glyph glyph-name="h" unicode="h" 
d="M446.5 496q47.5 -50 47.5 -135v-361h-73v350q0 61 -31.5 96t-88.5 35q-64 0 -101 -39.5t-37 -104.5v-337h-73v749h73v-287q22 40 62 62t93 22q81 0 128.5 -50z" />
    <glyph glyph-name="hbar" unicode="&#x127;" 
d="M446.5 489q47.5 -50 47.5 -135v-354h-73v343q0 61 -31.5 96t-88.5 35q-64 0 -101 -39.5t-37 -104.5v-330h-73v603h-86v62h86v84h73v-84h149v-62h-149v-151q21 41 61.5 64t93.5 23q81 0 128.5 -50z" />
    <glyph glyph-name="hcircumflex" unicode="&#x125;" 
d="M446.5 496q47.5 -50 47.5 -135v-361h-73v350q0 61 -31.5 96t-88.5 35q-64 0 -101 -39.5t-37 -104.5v-337h-73v749h73v-287q22 40 62 62t93 22q81 0 128.5 -50zM320 926l124 -139h-81l-77 88l-75 -88h-80l124 139h65z" />
    <glyph glyph-name="i" unicode="i" horiz-adv-x="253" 
d="M163 0h-73v533h73v-533zM169 651h-85v91h85v-91z" />
    <glyph glyph-name="dotlessi" unicode="&#x131;" horiz-adv-x="253" 
d="M163 0h-73v533h73v-533z" />
    <glyph glyph-name="iacute" unicode="&#xed;" horiz-adv-x="253" 
d="M163 0h-73v533h73v-533zM153 626h-76l100 139h88z" />
    <glyph glyph-name="ibreve" unicode="&#x12d;" horiz-adv-x="253" 
d="M163 0h-73v533h73v-533zM14 659.5q-40 34.5 -40 105.5h60q0 -88 93 -88t93 88h59q0 -71 -40 -105.5t-112 -34.5q-73 0 -113 34.5z" />
    <glyph glyph-name="icircumflex" unicode="&#xee;" horiz-adv-x="253" 
d="M163 0h-73v533h73v-533zM158 765l124 -139h-81l-77 88l-75 -88h-80l124 139h65z" />
    <glyph glyph-name="idieresis" unicode="&#xef;" horiz-adv-x="253" 
d="M163 0h-73v533h73v-533zM70 648h-87v87h87v-87zM268 648h-85v87h85v-87z" />
    <glyph glyph-name="igrave" unicode="&#xec;" horiz-adv-x="253" 
d="M163 0h-73v533h73v-533zM59 765l100 -139h-76l-112 139h88z" />
    <glyph glyph-name="imacron" unicode="&#x12b;" horiz-adv-x="253" 
d="M163 0h-73v533h73v-533zM271 643h-289v61h289v-61z" />
    <glyph glyph-name="iogonek" unicode="&#x12f;" horiz-adv-x="253" 
d="M84 742h85v-91h-85v91zM176 -127v-58h-28q-53 0 -81 16.5t-28 56.5q0 23 14 46.5t47 55.5l9 10h-19v533h73v-533l-24 -30q-20 -24 -26.5 -36.5t-6.5 -25.5q0 -35 43 -35h27z" />
    <glyph glyph-name="itilde" unicode="&#x129;" horiz-adv-x="253" 
d="M163 0h-73v533h73v-533zM160 638q-19 9 -40 24q-7 5 -20.5 15.5t-23.5 16t-19 5.5q-17 0 -26.5 -17t-9.5 -48h-61q1 55 27 88.5t68 33.5q36 0 79 -33l17 -13q15 -12 25 -18t21 -6q17 0 26.5 16.5t10.5 48.5h60q0 -55 -26.5 -88.5t-68.5 -33.5q-20 0 -39 9z" />
    <glyph glyph-name="j" unicode="j" horiz-adv-x="261" 
d="M-16 -188v65h16q35 0 56 9.5t31.5 34.5t10.5 73v539h73v-546q0 -85 -37 -130t-122 -45h-28zM177 651h-85v91h85v-91z" />
    <glyph glyph-name="uni0237" unicode="&#x237;" horiz-adv-x="261" 
d="M-16 -188v65h16q35 0 56 9.5t31.5 34.5t10.5 73v539h73v-546q0 -85 -37 -130t-122 -45h-28z" />
    <glyph glyph-name="j.aalt" horiz-adv-x="261" 
d="M-16 -188v65h16q35 0 56 9.5t31.5 34.5t10.5 73v539h73v-546q0 -85 -37 -130t-122 -45h-28zM161 626h-76l100 139h88z" />
    <glyph glyph-name="jcircumflex" unicode="&#x135;" horiz-adv-x="261" 
d="M-16 -188v65h16q35 0 56 9.5t31.5 34.5t10.5 73v539h73v-546q0 -85 -37 -130t-122 -45h-28zM166 765l124 -139h-81l-77 88l-75 -88h-80l124 139h65z" />
    <glyph glyph-name="k" unicode="k" horiz-adv-x="521" 
d="M504 0h-86l-184 259l-71 -73v-186h-73v749h73v-476l234 260h90l-202 -226z" />
    <glyph glyph-name="uni0137" unicode="&#x137;" horiz-adv-x="521" 
d="M504 0h-86l-184 259l-71 -73v-186h-73v749h73v-476l234 260h90l-202 -226zM224 -112v68h93v-63l-56 -108h-49l54 103h-42z" />
    <glyph glyph-name="l" unicode="l" horiz-adv-x="277" 
d="M160 126q0 -35 19 -48t57 -13h13v-65h-30q-132 0 -132 114v635h73v-623z" />
    <glyph glyph-name="lacute" unicode="&#x13a;" horiz-adv-x="277" 
d="M160 126q0 -35 19 -48t57 -13h13v-65h-30q-132 0 -132 114v635h73v-623zM150 803h-76l100 139h88z" />
    <glyph glyph-name="lcaron" unicode="&#x13e;" horiz-adv-x="277" 
d="M160 126q0 -35 19 -48t57 -13h13v-65h-30q-132 0 -132 114v635h73v-623zM294 547h-59l8 202h69z" />
    <glyph glyph-name="uni013C" unicode="&#x13c;" horiz-adv-x="277" 
d="M160 126q0 -35 19 -48t57 -13h13v-65h-30q-132 0 -132 114v635h73v-623zM114 -112v68h93v-63l-56 -108h-49l54 103h-42z" />
    <glyph glyph-name="ldot" unicode="&#x140;" horiz-adv-x="314" 
d="M160 126q0 -35 19 -48t57 -13h13v-65h-30q-132 0 -132 114v635h73v-623zM323 336h-85v91h85v-91z" />
    <glyph glyph-name="lslash" unicode="&#x142;" horiz-adv-x="397" 
d="M347 410l-118 -40v-244q0 -35 19 -48t58 -13h12v-65h-30q-64 0 -98 28.5t-34 85.5v235l-117 -40v67l117 40v333h73v-313l118 40v-66z" />
    <glyph glyph-name="m" unicode="m" horiz-adv-x="851" 
d="M720.5 499q44.5 -47 44.5 -131v-368h-73v359q0 58 -26.5 90t-79.5 32q-54 0 -88 -39t-34 -101v-341h-73v359q0 58 -27 90t-80 32t-87 -39t-34 -101v-341h-73v533h70v-74q20 41 57.5 64t88.5 23q50 0 87.5 -25t55.5 -70q22 43 62 69t90 26q75 0 119.5 -47z" />
    <glyph glyph-name="n" unicode="n" 
d="M446.5 496q47.5 -50 47.5 -135v-361h-73v350q0 61 -31.5 96t-88.5 35q-64 0 -101 -39.5t-37 -104.5v-337h-73v533h70v-77q21 42 62.5 66t95.5 24q81 0 128.5 -50z" />
    <glyph glyph-name="nacute" unicode="&#x144;" 
d="M446.5 496q47.5 -50 47.5 -135v-361h-73v350q0 61 -31.5 96t-88.5 35q-64 0 -101 -39.5t-37 -104.5v-337h-73v533h70v-77q21 42 62.5 66t95.5 24q81 0 128.5 -50zM315 626h-76l100 139h88z" />
    <glyph glyph-name="ncaron" unicode="&#x148;" 
d="M446.5 496q47.5 -50 47.5 -135v-361h-73v350q0 61 -31.5 96t-88.5 35q-64 0 -101 -39.5t-37 -104.5v-337h-73v533h70v-77q21 42 62.5 66t95.5 24q81 0 128.5 -50zM289 677l75 88h80l-124 -139h-64l-125 139h82z" />
    <glyph glyph-name="uni0146" unicode="&#x146;" 
d="M446.5 496q47.5 -50 47.5 -135v-361h-73v350q0 61 -31.5 96t-88.5 35q-64 0 -101 -39.5t-37 -104.5v-337h-73v533h70v-77q21 42 62.5 66t95.5 24q81 0 128.5 -50zM243 -112v68h93v-63l-56 -108h-49l54 103h-42z" />
    <glyph glyph-name="eng" unicode="&#x14b;" 
d="M446.5 496q47.5 -50 47.5 -135v-374q0 -86 -37.5 -130.5t-120.5 -44.5h-25v67h13q34 0 54.5 8.5t31.5 33.5t11 73v356q0 61 -31.5 95.5t-88.5 34.5q-64 0 -101 -39t-37 -104v-337h-73v533h70v-77q21 42 62.5 66t95.5 24q81 0 128.5 -50z" />
    <glyph glyph-name="ntilde" unicode="&#xf1;" 
d="M446.5 496q47.5 -50 47.5 -135v-361h-73v350q0 61 -31.5 96t-88.5 35q-64 0 -101 -39.5t-37 -104.5v-337h-73v533h70v-77q21 42 62.5 66t95.5 24q81 0 128.5 -50zM322 638q-19 9 -40 24q-7 5 -20.5 15.5t-23.5 16t-19 5.5q-17 0 -26.5 -17t-9.5 -48h-61q1 55 27 88.5
t68 33.5q36 0 79 -33l17 -13q15 -12 25 -18t21 -6q17 0 26.5 16.5t10.5 48.5h60q0 -55 -26.5 -88.5t-68.5 -33.5q-20 0 -39 9z" />
    <glyph glyph-name="o" unicode="o" horiz-adv-x="561" 
d="M163 19.5q-49 31.5 -74.5 86t-25.5 121.5v79q0 67 25.5 122t74.5 86.5t117 31.5t117.5 -31.5t75 -86.5t25.5 -122v-79q0 -67 -25.5 -121.5t-75 -86t-117.5 -31.5t-117 31.5zM389 103q36 49 36 134v60q0 84 -36 133t-109 49q-72 0 -108 -49t-36 -133v-60q0 -85 36 -134
t108 -49q73 0 109 49z" />
    <glyph glyph-name="oacute" unicode="&#xf3;" horiz-adv-x="561" 
d="M163 19.5q-49 31.5 -74.5 86t-25.5 121.5v79q0 67 25.5 122t74.5 86.5t117 31.5t117.5 -31.5t75 -86.5t25.5 -122v-79q0 -67 -25.5 -121.5t-75 -86t-117.5 -31.5t-117 31.5zM389 103q36 49 36 134v60q0 84 -36 133t-109 49q-72 0 -108 -49t-36 -133v-60q0 -85 36 -134
t108 -49q73 0 109 49zM307 626h-76l100 139h88z" />
    <glyph glyph-name="obreve" unicode="&#x14f;" horiz-adv-x="561" 
d="M163 19.5q-49 31.5 -74.5 86t-25.5 121.5v79q0 67 25.5 122t74.5 86.5t117 31.5t117.5 -31.5t75 -86.5t25.5 -122v-79q0 -67 -25.5 -121.5t-75 -86t-117.5 -31.5t-117 31.5zM389 103q36 49 36 134v60q0 84 -36 133t-109 49q-72 0 -108 -49t-36 -133v-60q0 -85 36 -134
t108 -49q73 0 109 49zM168 659.5q-40 34.5 -40 105.5h60q0 -88 93 -88t93 88h59q0 -71 -40 -105.5t-112 -34.5q-73 0 -113 34.5z" />
    <glyph glyph-name="ocircumflex" unicode="&#xf4;" horiz-adv-x="561" 
d="M163 19.5q-49 31.5 -74.5 86t-25.5 121.5v79q0 67 25.5 122t74.5 86.5t117 31.5t117.5 -31.5t75 -86.5t25.5 -122v-79q0 -67 -25.5 -121.5t-75 -86t-117.5 -31.5t-117 31.5zM389 103q36 49 36 134v60q0 84 -36 133t-109 49q-72 0 -108 -49t-36 -133v-60q0 -85 36 -134
t108 -49q73 0 109 49zM312 765l124 -139h-81l-77 88l-75 -88h-80l124 139h65z" />
    <glyph glyph-name="odieresis" unicode="&#xf6;" horiz-adv-x="561" 
d="M163 19.5q-49 31.5 -74.5 86t-25.5 121.5v79q0 67 25.5 122t74.5 86.5t117 31.5t117.5 -31.5t75 -86.5t25.5 -122v-79q0 -67 -25.5 -121.5t-75 -86t-117.5 -31.5t-117 31.5zM389 103q36 49 36 134v60q0 84 -36 133t-109 49q-72 0 -108 -49t-36 -133v-60q0 -85 36 -134
t108 -49q73 0 109 49zM224 648h-87v87h87v-87zM422 648h-85v87h85v-87z" />
    <glyph glyph-name="ograve" unicode="&#xf2;" horiz-adv-x="561" 
d="M163 19.5q-49 31.5 -74.5 86t-25.5 121.5v79q0 67 25.5 122t74.5 86.5t117 31.5t117.5 -31.5t75 -86.5t25.5 -122v-79q0 -67 -25.5 -121.5t-75 -86t-117.5 -31.5t-117 31.5zM389 103q36 49 36 134v60q0 84 -36 133t-109 49q-72 0 -108 -49t-36 -133v-60q0 -85 36 -134
t108 -49q73 0 109 49zM213 765l100 -139h-76l-112 139h88z" />
    <glyph glyph-name="ohungarumlaut" unicode="&#x151;" horiz-adv-x="561" 
d="M163 19.5q-49 31.5 -74.5 86t-25.5 121.5v79q0 67 25.5 122t74.5 86.5t117 31.5t117.5 -31.5t75 -86.5t25.5 -122v-79q0 -67 -25.5 -121.5t-75 -86t-117.5 -31.5t-117 31.5zM389 103q36 49 36 134v60q0 84 -36 133t-109 49q-72 0 -108 -49t-36 -133v-60q0 -85 36 -134
t108 -49q73 0 109 49zM229 626h-75l94 129h80zM403 626h-73l99 129h84z" />
    <glyph glyph-name="omacron" unicode="&#x14d;" horiz-adv-x="561" 
d="M163 19.5q-49 31.5 -74.5 86t-25.5 121.5v79q0 67 25.5 122t74.5 86.5t117 31.5t117.5 -31.5t75 -86.5t25.5 -122v-79q0 -67 -25.5 -121.5t-75 -86t-117.5 -31.5t-117 31.5zM389 103q36 49 36 134v60q0 84 -36 133t-109 49q-72 0 -108 -49t-36 -133v-60q0 -85 36 -134
t108 -49q73 0 109 49zM425 643h-289v61h289v-61z" />
    <glyph glyph-name="oslash" unicode="&#xf8;" horiz-adv-x="568" 
d="M510 538l-54 -77q45 -63 45 -154v-80q0 -67 -25.5 -121.5t-74.5 -86t-117 -31.5q-76 0 -128 38l-22 -31h-77l54 78q-44 62 -44 154v80q0 67 25.5 121t74.5 85.5t118 31.5q76 0 127 -39l21 32h77zM140 237q0 -59 18 -102l216 314q-35 30 -90 30q-73 0 -108.5 -49
t-35.5 -133v-60zM428 297q0 60 -18 103l-217 -315q34 -31 92 -31q72 0 107.5 49.5t35.5 133.5v60z" />
    <glyph glyph-name="otilde" unicode="&#xf5;" horiz-adv-x="561" 
d="M163 19.5q-49 31.5 -74.5 86t-25.5 121.5v79q0 67 25.5 122t74.5 86.5t117 31.5t117.5 -31.5t75 -86.5t25.5 -122v-79q0 -67 -25.5 -121.5t-75 -86t-117.5 -31.5t-117 31.5zM389 103q36 49 36 134v60q0 84 -36 133t-109 49q-72 0 -108 -49t-36 -133v-60q0 -85 36 -134
t108 -49q73 0 109 49zM314 638q-19 9 -40 24q-7 5 -20.5 15.5t-23.5 16t-19 5.5q-17 0 -26.5 -17t-9.5 -48h-61q1 55 27 88.5t68 33.5q36 0 79 -33l17 -13q15 -12 25 -18t21 -6q17 0 26.5 16.5t10.5 48.5h60q0 -55 -26.5 -88.5t-68.5 -33.5q-20 0 -39 9z" />
    <glyph glyph-name="oe" unicode="&#x153;" horiz-adv-x="910" 
d="M731 78q33 25 44 66h73q-9 -69 -63.5 -112.5t-137.5 -43.5q-65 0 -112.5 28.5t-73.5 79.5q-25 -51 -72 -79.5t-113 -28.5t-114.5 31.5t-73.5 86t-25 121.5v79q0 67 25.5 122t74 86.5t115.5 31.5q66 0 112 -28.5t71 -78.5q26 51 71.5 79t108.5 28q99 0 153 -70t54 -184
q0 -28 -1 -44h-350v-11q0 -85 36.5 -134.5t110.5 -49.5q54 0 87 25zM534.5 434.5q-34.5 -45.5 -37.5 -124.5h278q-3 79 -37 124.5t-101 45.5q-68 0 -102.5 -45.5zM424 297q0 84 -35.5 133t-108.5 49t-108.5 -49t-35.5 -133v-60q0 -85 35.5 -134t108.5 -49t108.5 49t35.5 134
v60z" />
    <glyph glyph-name="p" unicode="p" 
d="M463.5 481q51.5 -65 51.5 -165v-99q0 -100 -51.5 -164.5t-145.5 -64.5q-108 0 -155 86v-262h-73v721h70v-87q23 47 63.5 73.5t95.5 26.5q93 0 144.5 -65zM442 301q0 82 -35.5 130.5t-103.5 48.5t-104 -48t-36 -129v-73q0 -81 35.5 -129t104.5 -48q68 0 103.5 48.5
t35.5 129.5v70z" />
    <glyph glyph-name="thorn" unicode="&#xfe;" 
d="M463.5 481q51.5 -65 51.5 -165v-98q0 -101 -51.5 -165.5t-145.5 -64.5q-108 0 -155 86v-262h-73v937h73v-289q47 86 155 86q94 0 145.5 -65zM442 302q0 81 -35.5 130t-103.5 49t-104 -48.5t-36 -129.5v-72q0 -81 36 -129.5t104 -48.5t103.5 48.5t35.5 130.5v70z" />
    <glyph glyph-name="q" unicode="q" 
d="M420 533h69v-721h-73v262q-47 -86 -155 -86q-63 0 -107.5 30t-67 82t-22.5 117v99q0 100 51.5 165t144.5 65q56 0 96.5 -27t63.5 -75v89zM380.5 100.5q35.5 47.5 35.5 129.5v73q0 81 -35.5 129t-104.5 48q-68 0 -103.5 -48.5t-35.5 -130.5v-70q0 -81 35.5 -129.5
t103.5 -48.5q69 0 104.5 47.5z" />
    <glyph glyph-name="r" unicode="r" horiz-adv-x="366" 
d="M334 546v-79h-29q-65 0 -103.5 -37.5t-38.5 -104.5v-325h-73v533h67v-92q17 49 57 77t101 28h19z" />
    <glyph glyph-name="racute" unicode="&#x155;" horiz-adv-x="366" 
d="M334 546v-79h-29q-65 0 -103.5 -37.5t-38.5 -104.5v-325h-73v533h67v-92q17 49 57 77t101 28h19zM245 626h-76l100 139h88z" />
    <glyph glyph-name="rcaron" unicode="&#x159;" horiz-adv-x="366" 
d="M334 546v-79h-29q-65 0 -103.5 -37.5t-38.5 -104.5v-325h-73v533h67v-92q17 49 57 77t101 28h19zM220 677l75 88h80l-124 -139h-64l-125 139h82z" />
    <glyph glyph-name="uni0157" unicode="&#x157;" horiz-adv-x="366" 
d="M334 546v-79h-29q-65 0 -103.5 -37.5t-38.5 -104.5v-325h-73v533h67v-92q17 49 57 77t101 28h19zM79 -112v68h93v-63l-56 -108h-49l54 103h-42z" />
    <glyph glyph-name="s" unicode="s" horiz-adv-x="517" 
d="M152.5 10q-46.5 22 -72 59.5t-27.5 83.5h73q4 -46 41 -73t92 -27q56 0 91.5 23.5t35.5 62.5q0 36 -28.5 55.5t-83.5 35.5l-59 17q-71 20 -110 54.5t-39 96.5q0 42 23 75.5t65.5 53t98.5 19.5q84 0 138.5 -42.5t57.5 -123.5h-73q-3 48 -34 74t-90 26q-54 0 -83.5 -23
t-29.5 -55q0 -35 25 -53.5t74 -33.5l59 -18q81 -23 121.5 -57.5t40.5 -96.5q0 -45 -24.5 -80t-70 -55t-105.5 -20t-106.5 22z" />
    <glyph glyph-name="sacute" unicode="&#x15b;" horiz-adv-x="517" 
d="M152.5 10q-46.5 22 -72 59.5t-27.5 83.5h73q4 -46 41 -73t92 -27q56 0 91.5 23.5t35.5 62.5q0 36 -28.5 55.5t-83.5 35.5l-59 17q-71 20 -110 54.5t-39 96.5q0 42 23 75.5t65.5 53t98.5 19.5q84 0 138.5 -42.5t57.5 -123.5h-73q-3 48 -34 74t-90 26q-54 0 -83.5 -23
t-29.5 -55q0 -35 25 -53.5t74 -33.5l59 -18q81 -23 121.5 -57.5t40.5 -96.5q0 -45 -24.5 -80t-70 -55t-105.5 -20t-106.5 22zM282 626h-76l100 139h88z" />
    <glyph glyph-name="scaron" unicode="&#x161;" horiz-adv-x="517" 
d="M152.5 10q-46.5 22 -72 59.5t-27.5 83.5h73q4 -46 41 -73t92 -27q56 0 91.5 23.5t35.5 62.5q0 36 -28.5 55.5t-83.5 35.5l-59 17q-71 20 -110 54.5t-39 96.5q0 42 23 75.5t65.5 53t98.5 19.5q84 0 138.5 -42.5t57.5 -123.5h-73q-3 48 -34 74t-90 26q-54 0 -83.5 -23
t-29.5 -55q0 -35 25 -53.5t74 -33.5l59 -18q81 -23 121.5 -57.5t40.5 -96.5q0 -45 -24.5 -80t-70 -55t-105.5 -20t-106.5 22zM257 677l75 88h80l-124 -139h-64l-125 139h82z" />
    <glyph glyph-name="scedilla" unicode="&#x15f;" horiz-adv-x="517" 
d="M410.5 36.5q-48.5 -42.5 -129.5 -47.5l-13 -38q89 -9 89 -74q0 -42 -30 -61t-94 -19h-40v58h46q26 0 36.5 6t10.5 19q0 14 -10.5 19.5t-36.5 5.5h-39l27 85q-78 8 -125 53.5t-49 109.5h73q4 -46 41 -73t92 -27q56 0 91.5 23.5t35.5 62.5q0 36 -28.5 55.5t-83.5 35.5
l-59 17q-71 20 -110 54.5t-39 96.5q0 42 23 75.5t65.5 53t98.5 19.5q84 0 138.5 -42.5t57.5 -123.5h-73q-3 48 -34 74t-90 26q-54 0 -83.5 -23t-29.5 -55q0 -35 25 -53.5t74 -33.5l59 -18q81 -23 121.5 -57.5t40.5 -96.5q0 -64 -48.5 -106.5z" />
    <glyph glyph-name="scircumflex" unicode="&#x15d;" horiz-adv-x="517" 
d="M152.5 10q-46.5 22 -72 59.5t-27.5 83.5h73q4 -46 41 -73t92 -27q56 0 91.5 23.5t35.5 62.5q0 36 -28.5 55.5t-83.5 35.5l-59 17q-71 20 -110 54.5t-39 96.5q0 42 23 75.5t65.5 53t98.5 19.5q84 0 138.5 -42.5t57.5 -123.5h-73q-3 48 -34 74t-90 26q-54 0 -83.5 -23
t-29.5 -55q0 -35 25 -53.5t74 -33.5l59 -18q81 -23 121.5 -57.5t40.5 -96.5q0 -45 -24.5 -80t-70 -55t-105.5 -20t-106.5 22zM288 765l124 -139h-81l-77 88l-75 -88h-80l124 139h65z" />
    <glyph glyph-name="uni0219" unicode="&#x219;" horiz-adv-x="517" 
d="M152.5 10q-46.5 22 -72 59.5t-27.5 83.5h73q4 -46 41 -73t92 -27q56 0 91.5 23.5t35.5 62.5q0 36 -28.5 55.5t-83.5 35.5l-59 17q-71 20 -110 54.5t-39 96.5q0 42 23 75.5t65.5 53t98.5 19.5q84 0 138.5 -42.5t57.5 -123.5h-73q-3 48 -34 74t-90 26q-54 0 -83.5 -23
t-29.5 -55q0 -35 25 -53.5t74 -33.5l59 -18q81 -23 121.5 -57.5t40.5 -96.5q0 -45 -24.5 -80t-70 -55t-105.5 -20t-106.5 22zM212 -112v68h93v-63l-56 -108h-49l54 103h-42z" />
    <glyph glyph-name="germandbls" unicode="&#xdf;" horiz-adv-x="594" 
d="M499 354q36 -44 36 -110v-40q0 -95 -63 -149.5t-175 -54.5h-20v65h20q81 0 123 36.5t42 104.5v39q0 61 -42.5 96.5t-119.5 35.5h-18v64h18q54 0 82.5 29.5t28.5 84.5v28q0 53 -32 82.5t-89 29.5q-62 0 -94.5 -33t-32.5 -99v-563h-73v559q0 94 54 148t147 54q87 0 140 -48
t53 -127v-25q0 -52 -23.5 -89.5t-67.5 -56.5q70 -17 106 -61z" />
    <glyph glyph-name="t" unicode="t" horiz-adv-x="380" 
d="M344 468h-139v-312q0 -45 23 -68t73 -23h41v-65h-52q-77 0 -117.5 36.5t-40.5 106.5v325h-106v65h106v162h73v-162h139v-65z" />
    <glyph glyph-name="tbar" unicode="&#x167;" horiz-adv-x="397" 
d="M355 468h-139v-117h139v-62h-139v-133q0 -91 96 -91h41v-65h-52q-77 0 -117.5 36.5t-40.5 106.5v146h-105v62h105v117h-105v65h105v162h73v-162h139v-65z" />
    <glyph glyph-name="tcaron" unicode="&#x165;" horiz-adv-x="380" 
d="M344 468h-139v-312q0 -45 23 -68t73 -23h41v-65h-52q-77 0 -117.5 36.5t-40.5 106.5v325h-106v65h106v162h73v-162h139v-65zM338 614h-59l8 202h69z" />
    <glyph glyph-name="uni0163" unicode="&#x163;" horiz-adv-x="380" 
d="M344 468h-139v-312q0 -45 23 -68t73 -23h41v-65h-52q-11 0 -33 2l-17 -51q89 -9 89 -74q0 -42 -30 -61t-94 -19h-40v58h46q26 0 36.5 6t10.5 19q0 14 -10.5 19.5t-36.5 5.5h-39l34 110q-74 32 -74 128v325h-106v65h106v162h73v-162h139v-65z" />
    <glyph glyph-name="uni021B" unicode="&#x21b;" horiz-adv-x="380" 
d="M344 468h-139v-312q0 -45 23 -68t73 -23h41v-65h-52q-77 0 -117.5 36.5t-40.5 106.5v325h-106v65h106v162h73v-162h139v-65zM184 -112v68h93v-63l-56 -108h-49l54 103h-42z" />
    <glyph glyph-name="u" unicode="u" horiz-adv-x="578" 
d="M416 533h73v-533h-69v82q-21 -44 -62.5 -69t-96.5 -25q-81 0 -128.5 49.5t-47.5 134.5v361h73v-350q0 -61 31.5 -95.5t88.5 -34.5q64 0 101 39.5t37 103.5v337z" />
    <glyph glyph-name="uacute" unicode="&#xfa;" horiz-adv-x="578" 
d="M416 533h73v-533h-69v82q-21 -44 -62.5 -69t-96.5 -25q-81 0 -128.5 49.5t-47.5 134.5v361h73v-350q0 -61 31.5 -95.5t88.5 -34.5q64 0 101 39.5t37 103.5v337zM309 626h-76l100 139h88z" />
    <glyph glyph-name="ubreve" unicode="&#x16d;" horiz-adv-x="578" 
d="M416 533h73v-533h-69v82q-21 -44 -62.5 -69t-96.5 -25q-81 0 -128.5 49.5t-47.5 134.5v361h73v-350q0 -61 31.5 -95.5t88.5 -34.5q64 0 101 39.5t37 103.5v337zM170 659.5q-40 34.5 -40 105.5h60q0 -88 93 -88t93 88h59q0 -71 -40 -105.5t-112 -34.5q-73 0 -113 34.5z
" />
    <glyph glyph-name="ucircumflex" unicode="&#xfb;" horiz-adv-x="578" 
d="M416 533h73v-533h-69v82q-21 -44 -62.5 -69t-96.5 -25q-81 0 -128.5 49.5t-47.5 134.5v361h73v-350q0 -61 31.5 -95.5t88.5 -34.5q64 0 101 39.5t37 103.5v337zM314 765l124 -139h-81l-77 88l-75 -88h-80l124 139h65z" />
    <glyph glyph-name="udieresis" unicode="&#xfc;" horiz-adv-x="578" 
d="M416 533h73v-533h-69v82q-21 -44 -62.5 -69t-96.5 -25q-81 0 -128.5 49.5t-47.5 134.5v361h73v-350q0 -61 31.5 -95.5t88.5 -34.5q64 0 101 39.5t37 103.5v337zM226 648h-87v87h87v-87zM424 648h-85v87h85v-87z" />
    <glyph glyph-name="ugrave" unicode="&#xf9;" horiz-adv-x="578" 
d="M416 533h73v-533h-69v82q-21 -44 -62.5 -69t-96.5 -25q-81 0 -128.5 49.5t-47.5 134.5v361h73v-350q0 -61 31.5 -95.5t88.5 -34.5q64 0 101 39.5t37 103.5v337zM215 765l100 -139h-76l-112 139h88z" />
    <glyph glyph-name="uhungarumlaut" unicode="&#x171;" horiz-adv-x="578" 
d="M416 533h73v-533h-69v82q-21 -44 -62.5 -69t-96.5 -25q-81 0 -128.5 49.5t-47.5 134.5v361h73v-350q0 -61 31.5 -95.5t88.5 -34.5q64 0 101 39.5t37 103.5v337zM231 626h-75l94 129h80zM405 626h-73l99 129h84z" />
    <glyph glyph-name="umacron" unicode="&#x16b;" horiz-adv-x="578" 
d="M416 533h73v-533h-69v82q-21 -44 -62.5 -69t-96.5 -25q-81 0 -128.5 49.5t-47.5 134.5v361h73v-350q0 -61 31.5 -95.5t88.5 -34.5q64 0 101 39.5t37 103.5v337zM427 643h-289v61h289v-61z" />
    <glyph glyph-name="uogonek" unicode="&#x173;" horiz-adv-x="578" 
d="M499 -127v-58h-38q-123 0 -123 78q0 25 13.5 46.5t45.5 44.5l23 18v80q-21 -44 -62.5 -69t-96.5 -25q-81 0 -128.5 49.5t-47.5 134.5v361h73v-350q0 -61 31.5 -95.5t88.5 -34.5q64 0 101 39.5t37 103.5v337h73v-533l-42 -31q-24 -18 -33 -30.5t-9 -26.5q0 -20 15.5 -29.5
t50.5 -9.5h28z" />
    <glyph glyph-name="uring" unicode="&#x16f;" horiz-adv-x="578" 
d="M416 533h73v-533h-69v82q-21 -44 -62.5 -69t-96.5 -25q-81 0 -128.5 49.5t-47.5 134.5v361h73v-350q0 -61 31.5 -95.5t88.5 -34.5q64 0 101 39.5t37 103.5v337zM195 642.5q-33 31.5 -33 82.5t33.5 82t86.5 31q54 0 87.5 -31t33.5 -82q0 -52 -33.5 -83t-87.5 -31t-87 31.5
zM331 675q18 18 18 50q0 30 -18.5 48.5t-48.5 18.5q-29 0 -47.5 -18.5t-18.5 -48.5q0 -32 18 -50t48 -18q31 0 49 18z" />
    <glyph glyph-name="utilde" unicode="&#x169;" horiz-adv-x="578" 
d="M416 533h73v-533h-69v82q-21 -44 -62.5 -69t-96.5 -25q-81 0 -128.5 49.5t-47.5 134.5v361h73v-350q0 -61 31.5 -95.5t88.5 -34.5q64 0 101 39.5t37 103.5v337zM316 638q-19 9 -40 24q-7 5 -20.5 15.5t-23.5 16t-19 5.5q-17 0 -26.5 -17t-9.5 -48h-61q1 55 27 88.5
t68 33.5q36 0 79 -33l17 -13q15 -12 25 -18t21 -6q17 0 26.5 16.5t10.5 48.5h60q0 -55 -26.5 -88.5t-68.5 -33.5q-20 0 -39 9z" />
    <glyph glyph-name="v" unicode="v" horiz-adv-x="517" 
d="M260 93l154 440h77l-197 -533h-72l-196 533h78z" />
    <glyph glyph-name="w" unicode="w" horiz-adv-x="789" 
d="M564 112l120 421h77l-163 -533h-69l-135 408l-133 -408h-70l-162 533h78l122 -418l135 418h62z" />
    <glyph glyph-name="wacute" unicode="&#x1e83;" horiz-adv-x="789" 
d="M564 112l120 421h77l-163 -533h-69l-135 408l-133 -408h-70l-162 533h78l122 -418l135 418h62zM422 626h-76l100 139h88z" />
    <glyph glyph-name="wcircumflex" unicode="&#x175;" horiz-adv-x="789" 
d="M564 112l120 421h77l-163 -533h-69l-135 408l-133 -408h-70l-162 533h78l122 -418l135 418h62zM428 765l124 -139h-81l-77 88l-75 -88h-80l124 139h65z" />
    <glyph glyph-name="wdieresis" unicode="&#x1e85;" horiz-adv-x="789" 
d="M564 112l120 421h77l-163 -533h-69l-135 408l-133 -408h-70l-162 533h78l122 -418l135 418h62zM339 648h-87v87h87v-87zM537 648h-85v87h85v-87z" />
    <glyph glyph-name="wgrave" unicode="&#x1e81;" horiz-adv-x="789" 
d="M564 112l120 421h77l-163 -533h-69l-135 408l-133 -408h-70l-162 533h78l122 -418l135 418h62zM328 765l100 -139h-76l-112 139h88z" />
    <glyph glyph-name="x" unicode="x" horiz-adv-x="505" 
d="M301 276l176 -276h-85l-142 222l-137 -222h-85l176 273l-166 260h84l133 -208l127 208h85z" />
    <glyph glyph-name="y" unicode="y" horiz-adv-x="507" 
d="M255 159l152 374h80l-310 -721h-78l119 266l-192 455h80z" />
    <glyph glyph-name="yacute" unicode="&#xfd;" horiz-adv-x="507" 
d="M255 159l152 374h80l-310 -721h-78l119 266l-192 455h80zM281 626h-76l100 139h88z" />
    <glyph glyph-name="ycircumflex" unicode="&#x177;" horiz-adv-x="507" 
d="M255 159l152 374h80l-310 -721h-78l119 266l-192 455h80zM287 765l124 -139h-81l-77 88l-75 -88h-80l124 139h65z" />
    <glyph glyph-name="ydieresis" unicode="&#xff;" horiz-adv-x="507" 
d="M255 159l152 374h80l-310 -721h-78l119 266l-192 455h80zM198 648h-87v87h87v-87zM396 648h-85v87h85v-87z" />
    <glyph glyph-name="ygrave" unicode="&#x1ef3;" horiz-adv-x="507" 
d="M255 159l152 374h80l-310 -721h-78l119 266l-192 455h80zM187 765l100 -139h-76l-112 139h88z" />
    <glyph glyph-name="uni0233" unicode="&#x233;" horiz-adv-x="507" 
d="M255 159l152 374h80l-310 -721h-78l119 266l-192 455h80zM400 643h-289v61h289v-61z" />
    <glyph glyph-name="z" unicode="z" horiz-adv-x="478" 
d="M426 487l-283 -422h285v-65h-380v46l283 422h-275v65h370v-46z" />
    <glyph glyph-name="zacute" unicode="&#x17a;" horiz-adv-x="478" 
d="M426 487l-283 -422h285v-65h-380v46l283 422h-275v65h370v-46zM265 626h-76l100 139h88z" />
    <glyph glyph-name="zcaron" unicode="&#x17e;" horiz-adv-x="478" 
d="M426 487l-283 -422h285v-65h-380v46l283 422h-275v65h370v-46zM240 677l75 88h80l-124 -139h-64l-125 139h82z" />
    <glyph glyph-name="zdotaccent" unicode="&#x17c;" horiz-adv-x="478" 
d="M426 487l-283 -422h285v-65h-380v46l283 422h-275v65h370v-46zM281 651h-85v91h85v-91z" />
    <glyph glyph-name="l.aalt" horiz-adv-x="253" 
d="M163 0h-73v749h73v-749z" />
    <glyph glyph-name="lacute.aalt" horiz-adv-x="253" 
d="M163 0h-73v749h73v-749zM153 803h-76l100 139h88z" />
    <glyph glyph-name="lcaron.aalt" horiz-adv-x="272" 
d="M163 0h-73v749h73v-749zM297 547h-59l8 202h69z" />
    <glyph glyph-name="uni013C.aalt" horiz-adv-x="253" 
d="M163 0h-73v749h73v-749zM79 -112v68h93v-63l-56 -108h-49l54 103h-42z" />
    <glyph glyph-name="ldot.aalt" horiz-adv-x="314" 
d="M163 0h-73v749h73v-749zM326 336h-85v91h85v-91z" />
    <glyph glyph-name="lslash.aalt" horiz-adv-x="386" 
d="M230 436l118 40v-66l-118 -40v-370h-73v349l-118 -40v67l118 40v333h73v-313z" />
    <glyph glyph-name="a.salt" 
d="M420 533h69v-533h-69v90q-23 -48 -63.5 -75t-96.5 -27q-93 0 -144.5 64.5t-51.5 165.5v98q0 100 51.5 165t144.5 65q56 0 96.5 -26.5t63.5 -74.5v88zM416 303q0 81 -35.5 129t-104.5 48q-68 0 -103.5 -48.5t-35.5 -130.5v-69q0 -81 35.5 -130t103.5 -49q69 0 104.5 48
t35.5 130v72z" />
    <glyph glyph-name="aacute.aalt" 
d="M420 533h69v-533h-69v90q-23 -48 -63.5 -75t-96.5 -27q-93 0 -144.5 64.5t-51.5 165.5v98q0 100 51.5 165t144.5 65q56 0 96.5 -26.5t63.5 -74.5v88zM416 303q0 81 -35.5 129t-104.5 48q-68 0 -103.5 -48.5t-35.5 -130.5v-69q0 -81 35.5 -130t103.5 -49q69 0 104.5 48
t35.5 130v72zM309 626h-76l100 139h88z" />
    <glyph glyph-name="abreve.aalt" 
d="M420 533h69v-533h-69v90q-23 -48 -63.5 -75t-96.5 -27q-93 0 -144.5 64.5t-51.5 165.5v98q0 100 51.5 165t144.5 65q56 0 96.5 -26.5t63.5 -74.5v88zM416 303q0 81 -35.5 129t-104.5 48q-68 0 -103.5 -48.5t-35.5 -130.5v-69q0 -81 35.5 -130t103.5 -49q69 0 104.5 48
t35.5 130v72zM170 659.5q-40 34.5 -40 105.5h60q0 -88 93 -88t93 88h59q0 -71 -40 -105.5t-112 -34.5q-73 0 -113 34.5z" />
    <glyph glyph-name="acircumflex.aalt" 
d="M420 533h69v-533h-69v90q-23 -48 -63.5 -75t-96.5 -27q-93 0 -144.5 64.5t-51.5 165.5v98q0 100 51.5 165t144.5 65q56 0 96.5 -26.5t63.5 -74.5v88zM416 303q0 81 -35.5 129t-104.5 48q-68 0 -103.5 -48.5t-35.5 -130.5v-69q0 -81 35.5 -130t103.5 -49q69 0 104.5 48
t35.5 130v72zM314 765l124 -139h-81l-77 88l-75 -88h-80l124 139h65z" />
    <glyph glyph-name="adieresis.aalt" 
d="M420 533h69v-533h-69v90q-23 -48 -63.5 -75t-96.5 -27q-93 0 -144.5 64.5t-51.5 165.5v98q0 100 51.5 165t144.5 65q56 0 96.5 -26.5t63.5 -74.5v88zM416 303q0 81 -35.5 129t-104.5 48q-68 0 -103.5 -48.5t-35.5 -130.5v-69q0 -81 35.5 -130t103.5 -49q69 0 104.5 48
t35.5 130v72zM226 648h-87v87h87v-87zM424 648h-85v87h85v-87z" />
    <glyph glyph-name="agrave.aalt" 
d="M420 533h69v-533h-69v90q-23 -48 -63.5 -75t-96.5 -27q-93 0 -144.5 64.5t-51.5 165.5v98q0 100 51.5 165t144.5 65q56 0 96.5 -26.5t63.5 -74.5v88zM416 303q0 81 -35.5 129t-104.5 48q-68 0 -103.5 -48.5t-35.5 -130.5v-69q0 -81 35.5 -130t103.5 -49q69 0 104.5 48
t35.5 130v72zM215 765l100 -139h-76l-112 139h88z" />
    <glyph glyph-name="amacron.aalt" 
d="M420 533h69v-533h-69v90q-23 -48 -63.5 -75t-96.5 -27q-93 0 -144.5 64.5t-51.5 165.5v98q0 100 51.5 165t144.5 65q56 0 96.5 -26.5t63.5 -74.5v88zM416 303q0 81 -35.5 129t-104.5 48q-68 0 -103.5 -48.5t-35.5 -130.5v-69q0 -81 35.5 -130t103.5 -49q69 0 104.5 48
t35.5 130v72zM427 643h-289v61h289v-61z" />
    <glyph glyph-name="aogonek.aalt" 
d="M499 -127v-58h-38q-123 0 -123 78q0 25 13.5 46.5t45.5 44.5l23 18v88q-23 -48 -63.5 -75t-96.5 -27q-93 0 -144.5 64.5t-51.5 165.5v98q0 100 51.5 165t144.5 65q56 0 96.5 -26.5t63.5 -74.5v88h69v-533l-42 -31q-24 -18 -33 -30.5t-9 -26.5q0 -20 15.5 -29.5t50.5 -9.5
h28zM416 303q0 81 -35.5 129t-104.5 48q-68 0 -103.5 -48.5t-35.5 -130.5v-69q0 -81 35.5 -130t103.5 -49q69 0 104.5 48t35.5 130v72z" />
    <glyph glyph-name="aring.aalt" 
d="M420 533h69v-533h-69v90q-23 -48 -63.5 -75t-96.5 -27q-93 0 -144.5 64.5t-51.5 165.5v98q0 100 51.5 165t144.5 65q56 0 96.5 -26.5t63.5 -74.5v88zM416 303q0 81 -35.5 129t-104.5 48q-68 0 -103.5 -48.5t-35.5 -130.5v-69q0 -81 35.5 -130t103.5 -49q69 0 104.5 48
t35.5 130v72zM195 642.5q-33 31.5 -33 82.5t33.5 82t86.5 31q54 0 87.5 -31t33.5 -82q0 -52 -33.5 -83t-87.5 -31t-87 31.5zM331 675q18 18 18 50q0 30 -18.5 48.5t-48.5 18.5q-29 0 -47.5 -18.5t-18.5 -48.5q0 -32 18 -50t48 -18q31 0 49 18z" />
    <glyph glyph-name="atilde.aalt" 
d="M420 533h69v-533h-69v90q-23 -48 -63.5 -75t-96.5 -27q-93 0 -144.5 64.5t-51.5 165.5v98q0 100 51.5 165t144.5 65q56 0 96.5 -26.5t63.5 -74.5v88zM416 303q0 81 -35.5 129t-104.5 48q-68 0 -103.5 -48.5t-35.5 -130.5v-69q0 -81 35.5 -130t103.5 -49q69 0 104.5 48
t35.5 130v72zM316 638q-19 9 -40 24q-7 5 -20.5 15.5t-23.5 16t-19 5.5q-17 0 -26.5 -17t-9.5 -48h-61q1 55 27 88.5t68 33.5q36 0 79 -33l17 -13q15 -12 25 -18t21 -6q17 0 26.5 16.5t10.5 48.5h60q0 -55 -26.5 -88.5t-68.5 -33.5q-20 0 -39 9z" />
    <glyph glyph-name="uniFB01" unicode="&#xfb01;" horiz-adv-x="630" 
d="M307 684q-52 0 -75.5 -24t-23.5 -85v-42h142v-65h-142v-468h-73v468h-104v65h104v46q0 170 167 170h48v-65h-43zM540 0h-73v533h73v-533zM546 651h-85v91h85v-91z" />
    <glyph glyph-name="uniFB02" unicode="&#xfb02;" horiz-adv-x="654" 
d="M307 684q-52 0 -75.5 -24t-23.5 -85v-42h142v-65h-142v-468h-73v468h-104v65h104v46q0 170 167 170h48v-65h-43zM537 126q0 -35 19 -48t57 -13h13v-65h-30q-132 0 -132 114v635h73v-623z" />
    <glyph glyph-name="uniFB02.aalt" horiz-adv-x="630" 
d="M307 684q-52 0 -75.5 -24t-23.5 -85v-42h142v-65h-142v-468h-73v468h-104v65h104v46q0 170 167 170h48v-65h-43zM540 0h-73v749h73v-749z" />
    <glyph glyph-name="ordfeminine" unicode="&#xaa;" horiz-adv-x="364" 
d="M258 697.5q29 -27.5 29 -75.5v-168h-45v28q-28 -33 -81 -33q-46 0 -72 22.5t-26 59.5q0 35 26.5 57.5t72.5 22.5q47 0 73 -24v37q0 26 -15.5 40.5t-41.5 14.5q-25 0 -39.5 -11t-14.5 -29h-53q0 39 30 62.5t77 23.5q51 0 80 -27.5zM220 501.5q16 11.5 16 29.5t-16 29.5
t-44 11.5q-30 0 -45.5 -10.5t-15.5 -30.5q0 -19 16 -30t45 -11q28 0 44 11.5z" />
    <glyph glyph-name="ordmasculine" unicode="&#xba;" horiz-adv-x="356" 
d="M93.5 480.5q-30.5 31.5 -30.5 87.5v37q0 56 31 88.5t84 32.5t84 -32.5t31 -88.5v-37q0 -56 -31 -87.5t-84 -31.5q-54 0 -84.5 31.5zM223.5 514q16.5 19 16.5 55v35q0 36 -16.5 55t-45.5 19t-45.5 -19t-16.5 -55v-35q0 -36 16.5 -55t45.5 -19t45.5 19z" />
    <glyph glyph-name="uni207F" unicode="&#x207f;" horiz-adv-x="434" 
d="M331.5 743q33.5 -35 33.5 -90v-228h-65v213q0 37 -20.5 60t-55.5 23q-40 0 -63.5 -26t-23.5 -67v-203h-65v345h60v-58l1 -2q15 32 43.5 50t66.5 18q55 0 88.5 -35z" />
    <glyph glyph-name="uni0410" unicode="&#x410;" horiz-adv-x="618" 
d="M598 0h-82l-64 184h-288l-64 -184h-80l251 710h76zM308 601l-121 -348h241z" />
    <glyph glyph-name="uni0411" unicode="&#x411;" horiz-adv-x="621" 
d="M334 406q77 0 130.5 -27t80.5 -73t27 -103t-27 -103t-80.5 -73t-130.5 -27h-236v710h426v-70h-350v-234h160zM332 68q78 0 120 35.5t42 99.5t-42 99.5t-120 35.5h-158v-270h158z" />
    <glyph glyph-name="uni0412" unicode="&#x412;" horiz-adv-x="646" 
d="M552.5 307q30.5 -44 30.5 -104q0 -57 -27.5 -103t-80.5 -73t-126 -27h-251v710h242q109 0 167.5 -49.5t58.5 -129.5q0 -54 -26.5 -95.5t-77.5 -62.5q60 -22 90.5 -66zM174 642v-244h160q72 0 113 33t41 89q0 60 -38.5 91t-113.5 31h-162zM347 68q73 0 115.5 36t42.5 99
q0 59 -40 93.5t-113 34.5h-178v-263h173z" />
    <glyph glyph-name="uni0413" unicode="&#x413;" horiz-adv-x="522" 
d="M98 0v710h394v-70h-318v-640h-76z" />
    <glyph glyph-name="uni0403" unicode="&#x403;" horiz-adv-x="522" 
d="M98 0v710h394v-70h-318v-640h-76zM321 803h-76l100 139h88z" />
    <glyph glyph-name="uni0490" unicode="&#x490;" horiz-adv-x="525" 
d="M418 710v139h77v-209h-321v-640h-76v710h320z" />
    <glyph glyph-name="uni0414" unicode="&#x414;" horiz-adv-x="703" 
d="M582 70h80v-209h-76v139h-482v-139h-76v209h64q18 23 27.5 58t9.5 98v484h453v-640zM506 70v570h-304v-408q0 -102 -33 -162h337z" />
    <glyph glyph-name="uni0415" unicode="&#x415;" 
d="M521 0h-423v710h423v-68h-347v-243h277v-68h-277v-263h347v-68z" />
    <glyph glyph-name="uni0400" unicode="&#x400;" 
d="M521 0h-423v710h423v-68h-347v-243h277v-68h-277v-263h347v-68zM240 942l100 -139h-76l-112 139h88z" />
    <glyph glyph-name="uni0401" unicode="&#x401;" 
d="M521 0h-423v710h423v-68h-347v-243h277v-68h-277v-263h347v-68zM252 825h-87v87h87v-87zM450 825h-85v87h85v-87z" />
    <glyph glyph-name="uni0416" unicode="&#x416;" horiz-adv-x="916" 
d="M898 0h-89l-226 330h-87v-330h-76v330h-87l-226 -330h-89l253 368l-234 342h85l212 -310h86v310h76v-310h86l212 310h85l-234 -342z" />
    <glyph glyph-name="uni0417" unicode="&#x417;" horiz-adv-x="606" 
d="M505.5 298.5q35.5 -46.5 35.5 -109.5q0 -59 -30 -105.5t-84.5 -72.5t-125.5 -26q-72 0 -126.5 24.5t-84.5 67.5t-34 98h76q3 -52 48.5 -87t120.5 -35t118.5 38t43.5 101q0 61 -45.5 99.5t-119.5 38.5h-72v69h72q70 0 114 36t44 92q0 58 -42.5 92.5t-112.5 34.5
t-114.5 -33.5t-47.5 -83.5h-75q3 54 33 96t82.5 65.5t121.5 23.5q68 0 121 -24t82.5 -67t29.5 -99q0 -59 -34.5 -102.5t-95.5 -64.5q66 -20 101.5 -66.5z" />
    <glyph glyph-name="uni0418" unicode="&#x418;" horiz-adv-x="705" 
d="M174 146l366 564h68v-710h-76v564l-367 -564h-67v710h76v-564z" />
    <glyph glyph-name="uni0419" unicode="&#x419;" horiz-adv-x="705" 
d="M174 146l366 564h68v-710h-76v564l-367 -564h-67v710h76v-564zM239 836.5q-40 34.5 -40 105.5h60q0 -88 93 -88t93 88h59q0 -71 -40 -105.5t-112 -34.5q-73 0 -113 34.5z" />
    <glyph glyph-name="uni040D" unicode="&#x40d;" horiz-adv-x="705" 
d="M174 146l366 564h68v-710h-76v564l-367 -564h-67v710h76v-564zM284 942l100 -139h-76l-112 139h88z" />
    <glyph glyph-name="uni041A" unicode="&#x41a;" horiz-adv-x="614" 
d="M597 0h-92l-242 330h-89v-330h-76v710h76v-310h89l228 310h88l-253 -342z" />
    <glyph glyph-name="uni040C" unicode="&#x40c;" horiz-adv-x="614" 
d="M597 0h-92l-242 330h-89v-330h-76v710h76v-310h89l228 310h88l-253 -342zM359 803h-76l100 139h88z" />
    <glyph glyph-name="uni041B" unicode="&#x41b;" horiz-adv-x="671" 
d="M574 0h-76v640h-292v-467q0 -89 -43 -135t-125 -46h-12v69h4q54 0 78.5 25t24.5 93v531h441v-710z" />
    <glyph glyph-name="uni041C" unicode="&#x41c;" horiz-adv-x="818" 
d="M410 350l257 360h53v-710h-76v562l-226 -318h-19l-225 314v-558h-76v710h53z" />
    <glyph glyph-name="uni041D" unicode="&#x41d;" horiz-adv-x="690" 
d="M516 400v310h76v-710h-76v330h-342v-330h-76v710h76v-310h342z" />
    <glyph glyph-name="uni041E" unicode="&#x41e;" horiz-adv-x="680" 
d="M141.5 64.5q-72.5 79.5 -72.5 235.5v110q0 156 72.5 235.5t198.5 79.5t198.5 -80t72.5 -235v-110q0 -155 -72.5 -235t-198.5 -80t-198.5 79.5zM483.5 112.5q51.5 59.5 51.5 187.5v110q0 128 -51.5 187.5t-143.5 59.5t-143.5 -59.5t-51.5 -187.5v-110q0 -128 51.5 -187.5
t143.5 -59.5t143.5 59.5z" />
    <glyph glyph-name="uni041F" unicode="&#x41f;" horiz-adv-x="680" 
d="M174 0h-76v710h484v-710h-76v640h-332v-640z" />
    <glyph glyph-name="uni0420" unicode="&#x420;" horiz-adv-x="596" 
d="M491 654.5q62 -55.5 62 -152.5q0 -98 -62 -153.5t-170 -55.5h-147v-293h-76v710h223q108 0 170 -55.5zM321 361q73 0 113.5 35t40.5 106q0 70 -40.5 105t-113.5 35h-147v-281h147z" />
    <glyph glyph-name="uni0421" unicode="&#x421;" horiz-adv-x="639" 
d="M196.5 20q-60.5 35 -94 103.5t-33.5 167.5v128q0 99 33.5 167.5t94 103.5t139.5 35q72 0 127.5 -28.5t86.5 -76t34 -103.5h-76q-7 62 -52.5 101t-119.5 39q-88 0 -139.5 -59t-51.5 -179v-128q0 -120 51.5 -179t139.5 -59q79 0 125.5 42.5t50.5 114.5h76q-2 -66 -34 -117
t-88.5 -79.5t-129.5 -28.5q-79 0 -139.5 35z" />
    <glyph glyph-name="uni0422" unicode="&#x422;" horiz-adv-x="559" 
d="M29 710h501v-70h-213v-640h-76v640h-212v70z" />
    <glyph glyph-name="uni0423" unicode="&#x423;" horiz-adv-x="584" 
d="M303 280l189 430h82l-319 -710h-79l86 197l-234 513h84z" />
    <glyph glyph-name="uni040E" unicode="&#x40e;" horiz-adv-x="584" 
d="M303 280l189 430h82l-319 -710h-79l86 197l-234 513h84zM189 836.5q-40 34.5 -40 105.5h60q0 -88 93 -88t93 88h59q0 -71 -40 -105.5t-112 -34.5q-73 0 -113 34.5z" />
    <glyph glyph-name="uni0424" unicode="&#x424;" horiz-adv-x="864" 
d="M505 666q134 0 214 -76t80 -221v-28q0 -145 -80 -221t-214 -76h-35v-72h-76v72h-35q-134 0 -214 76t-80 221v28q0 145 80 221t214 76h35v72h76v-72h35zM141 341q0 -117 58 -172.5t160 -55.5h35v484h-35q-103 0 -160.5 -55.5t-57.5 -172.5v-28zM723 369q0 117 -57.5 172.5
t-160.5 55.5h-35v-484h35q102 0 160 55.5t58 172.5v28z" />
    <glyph glyph-name="uni0425" unicode="&#x425;" horiz-adv-x="605" 
d="M355 373l227 -373h-87l-192 316l-197 -316h-85l231 362l-211 348h87l175 -289l176 289h85z" />
    <glyph glyph-name="uni0427" unicode="&#x427;" horiz-adv-x="621" 
d="M447 710h77v-710h-77v297q-66 -34 -157 -34q-110 0 -171 66.5t-61 199.5v181h76v-181q0 -198 164 -198q80 0 149 38v341z" />
    <glyph glyph-name="uni0426" unicode="&#x426;" horiz-adv-x="697" 
d="M575 710v-640h89v-209h-76v139h-490v710h76v-640h325v640h76z" />
    <glyph glyph-name="uni0428" unicode="&#x428;" horiz-adv-x="1065" 
d="M967 0h-869v710h76v-640h320v640h76v-640h321v640h76v-710z" />
    <glyph glyph-name="uni0429" unicode="&#x429;" horiz-adv-x="1089" 
d="M967 710v-640h89v-209h-76v139h-882v710h76v-640h320v640h76v-640h321v640h76z" />
    <glyph glyph-name="uni040F" unicode="&#x40f;" horiz-adv-x="672" 
d="M499 710h76v-710h-201v-139h-76v139h-200v710h76v-640h325v640z" />
    <glyph glyph-name="uni042C" unicode="&#x42c;" horiz-adv-x="615" 
d="M340 417q107 0 169.5 -55.5t62.5 -153.5q0 -97 -62.5 -152.5t-169.5 -55.5h-242v710h76v-293h166zM340 68q73 0 113.5 35t40.5 105q0 71 -40.5 106t-113.5 35h-166v-281h166z" />
    <glyph glyph-name="uni042A" unicode="&#x42a;" horiz-adv-x="758" 
d="M484 417q107 0 169.5 -55.5t62.5 -153.5q0 -97 -62.5 -152.5t-169.5 -55.5h-243v640h-212v70h288v-293h167zM484 68q72 0 113 35t41 105q0 71 -41 106t-113 35h-167v-281h167z" />
    <glyph glyph-name="uni042B" unicode="&#x42b;" horiz-adv-x="847" 
d="M340 417q107 0 169.5 -55.5t62.5 -153.5q0 -97 -62.5 -152.5t-169.5 -55.5h-242v710h76v-293h166zM340 68q73 0 113.5 35t40.5 105q0 71 -40.5 106t-113.5 35h-166v-281h166zM750 0h-76v710h76v-710z" />
    <glyph glyph-name="uni0409" unicode="&#x409;" horiz-adv-x="988" 
d="M714 417q107 0 169 -55.5t62 -153.5q0 -97 -62 -152.5t-169 -55.5h-243v640h-265v-467q0 -89 -43 -135t-125 -46h-12v69h4q35 0 56.5 9t34 34.5t12.5 74.5v531h414v-293h167zM714 68q72 0 113 35t41 105q0 71 -41 106t-113 35h-167v-281h167z" />
    <glyph glyph-name="uni040A" unicode="&#x40a;" horiz-adv-x="1030" 
d="M755 417q108 0 170 -55.5t62 -153.5q0 -97 -62 -152.5t-170 -55.5h-242v348h-339v-348h-76v710h76v-293h339v293h76v-293h166zM755 68q73 0 113.5 35t40.5 105q0 71 -40.5 106t-113.5 35h-166v-281h166z" />
    <glyph glyph-name="uni0405" unicode="&#x405;" horiz-adv-x="617" 
d="M175 12.5q-57 27.5 -88.5 78t-32.5 117.5h76q3 -74 49.5 -114.5t128.5 -40.5q81 0 127.5 35t46.5 95q0 51 -35 80.5t-112 53.5l-84 26q-82 26 -130 69.5t-48 122.5q0 55 28 98t80.5 67.5t121.5 24.5q111 0 175 -58t66 -158h-76q-2 71 -45.5 109.5t-119.5 38.5
q-70 0 -112 -31.5t-42 -87.5q0 -49 35 -78t104 -50l85 -26q92 -28 138.5 -73.5t46.5 -124.5q0 -61 -32 -106.5t-89 -70t-129 -24.5q-76 0 -133 27.5z" />
    <glyph glyph-name="uni0404" unicode="&#x404;" horiz-adv-x="639" 
d="M588 210q-2 -66 -34 -117t-88.5 -79.5t-129.5 -28.5q-79 0 -139.5 35t-94 103.5t-33.5 167.5v128q0 99 33.5 167.5t94 103.5t139.5 35q72 0 127.5 -28.5t86.5 -76t34 -103.5h-76q-7 62 -52.5 101t-119.5 39q-88 0 -139.5 -59t-51.5 -179v-18h286v-72h-286v-38
q0 -120 51.5 -179t139.5 -59q79 0 125.5 42.5t50.5 114.5h76z" />
    <glyph glyph-name="uni042D" unicode="&#x42d;" horiz-adv-x="639" 
d="M442 690q60 -35 93.5 -103.5t33.5 -167.5v-128q0 -99 -33.5 -167.5t-93.5 -103.5t-139 -35q-73 0 -129.5 28.5t-88.5 79.5t-34 117h76q3 -71 50 -114t126 -43q88 0 139 59t51 179v38h-285v72h285v18q0 120 -51 179t-139 59q-74 0 -119.5 -39t-52.5 -101h-76
q3 56 34 103.5t86.5 76t127.5 28.5q79 0 139 -35z" />
    <glyph glyph-name="uni0406" unicode="&#x406;" horiz-adv-x="271" 
d="M174 0h-76v710h76v-710z" />
    <glyph glyph-name="uni0407" unicode="&#x407;" horiz-adv-x="271" 
d="M174 0h-76v710h76v-710zM26 912h76v-87h-76v87zM168 912h78v-87h-78v87z" />
    <glyph glyph-name="uni0408" unicode="&#x408;" horiz-adv-x="557" 
d="M93.5 39.5q-56.5 54.5 -56.5 154.5h76q0 -69 35 -105t102 -36t102.5 38t35.5 108v511h76v-511q0 -100 -56.5 -157t-154.5 -57q-103 0 -159.5 54.5z" />
    <glyph glyph-name="uni040B" unicode="&#x40b;" horiz-adv-x="746" 
d="M628.5 359.5q61.5 -66.5 61.5 -199.5v-160h-76v160q0 198 -165 198q-77 0 -149 -37v-321h-76v640h-195v70h501v-70h-230v-249q68 35 158 35q109 0 170.5 -66.5z" />
    <glyph glyph-name="uni042E" unicode="&#x42e;" horiz-adv-x="893" 
d="M753 645.5q71 -79.5 71 -233.5v-114q0 -154 -71 -233.5t-195 -79.5q-123 0 -194.5 79.5t-71.5 233.5v32h-118v-330h-76v710h76v-310h118v12q0 154 71.5 233.5t194.5 79.5q124 0 195 -79.5zM748 412q0 126 -50 185.5t-140 59.5q-89 0 -139.5 -59.5t-50.5 -185.5v-114
q0 -126 50.5 -185.5t139.5 -59.5q90 0 140 59.5t50 185.5v114z" />
    <glyph glyph-name="uni042F" unicode="&#x42f;" horiz-adv-x="615" 
d="M518 0h-76v312h-121l-190 -312h-91l196 316q-83 14 -127.5 67t-44.5 128q0 56 26 101.5t77 71.5t122 26h229v-710zM442 380v262h-153q-71 0 -109 -33.5t-38 -97.5t38 -97.5t109 -33.5h153z" />
    <glyph glyph-name="uni0402" unicode="&#x402;" horiz-adv-x="738" 
d="M628 367.5q62 -58.5 62 -156.5v-10q0 -96 -55 -150.5t-144 -54.5h-21v65h9q64 0 99.5 38.5t35.5 102.5v8q0 66 -41.5 107t-119.5 41q-81 0 -153 -37v-321h-76v640h-195v70h501v-70h-230v-249q68 35 161 35q105 0 167 -58.5z" />
    <glyph glyph-name="uni0462" unicode="&#x462;" horiz-adv-x="704" 
d="M428 417q108 0 170 -55.5t62 -153.5q0 -97 -62 -152.5t-170 -55.5h-242v532h-144v72h144v106h76v-106h241v-72h-241v-115h166zM428 68q73 0 113.5 35t40.5 105q0 71 -40.5 106t-113.5 35h-166v-281h166z" />
    <glyph glyph-name="uni0472" unicode="&#x472;" horiz-adv-x="680" 
d="M538.5 645q72.5 -80 72.5 -235v-110q0 -155 -72.5 -235t-198.5 -80t-198.5 79.5t-72.5 235.5v110q0 156 72.5 235.5t198.5 79.5t198.5 -80zM196.5 597.5q-51.5 -59.5 -51.5 -187.5v-18q19 10 46.5 17t57.5 7t52 -5t46 -14q28 -9 47 -13.5t47 -4.5q52 0 94 26v5
q0 128 -51.5 187.5t-143.5 59.5t-143.5 -59.5zM483.5 112.5q51.5 59.5 51.5 187.5v33q-46 -24 -106 -24q-28 0 -48 4.5t-48 14.5q-24 9 -45.5 14t-49.5 5q-49 0 -93 -26v-21q0 -128 51.5 -187.5t143.5 -59.5t143.5 59.5z" />
    <glyph glyph-name="uni0474" unicode="&#x474;" horiz-adv-x="684" 
d="M658 719v-70h-22q-40 0 -62.5 -19t-40.5 -71l-194 -559h-75l-244 710h80l202 -594l160 470q21 63 54 98t100 35h42z" />
    <glyph glyph-name="uni0492" unicode="&#x492;" horiz-adv-x="552" 
d="M519 710v-70h-318v-251h192v-68h-192v-321h-76v321h-91v68h91v321h394z" />
    <glyph glyph-name="uni0496" unicode="&#x496;" horiz-adv-x="966" 
d="M645 368l205 -298h99v-209h-76v139h-64l-226 330h-87v-330h-76v330h-87l-226 -330h-89l253 368l-234 342h85l212 -310h86v310h76v-310h86l212 310h85z" />
    <glyph glyph-name="uni0498" unicode="&#x498;" horiz-adv-x="606" 
d="M486 52.5q-55 -55.5 -147 -65.5v-126h-76v126q-92 10 -147 61t-60 127h76q3 -52 48.5 -87t120.5 -35t118.5 38t43.5 101q0 61 -45.5 99.5t-119.5 38.5h-72v69h72q70 0 114 36t44 92q0 58 -42.5 92.5t-112.5 34.5t-114.5 -33.5t-47.5 -83.5h-75q3 54 33 96t82.5 65.5
t121.5 23.5q68 0 121 -24t82.5 -67t29.5 -99q0 -59 -34.5 -102.5t-95.5 -64.5q66 -20 101.5 -66.5t35.5 -109.5q0 -81 -55 -136.5z" />
    <glyph glyph-name="uni049A" unicode="&#x49a;" horiz-adv-x="663" 
d="M326 368l220 -298h99v-209h-76v139h-64l-242 330h-89v-330h-76v710h76v-310h89l228 310h88z" />
    <glyph glyph-name="uni049C" unicode="&#x49c;" horiz-adv-x="623" 
d="M605 0h-91l-231 330h-16v-122h-58v122h-35v-330h-76v710h76v-310h35v115h58v-115h16l216 310h88l-241 -342z" />
    <glyph glyph-name="uni04A0" unicode="&#x4a0;" horiz-adv-x="758" 
d="M741 0h-92l-242 330h-90v-330h-76v640h-212v70h288v-310h90l227 310h89l-253 -342z" />
    <glyph glyph-name="uni04A2" unicode="&#x4a2;" horiz-adv-x="714" 
d="M592 710v-640h89v-209h-76v139h-89v330h-342v-330h-76v710h76v-310h342v310h76z" />
    <glyph glyph-name="uni04A4" unicode="&#x4a4;" horiz-adv-x="833" 
d="M805 710v-70h-213v-640h-76v330h-342v-330h-76v710h76v-310h342v310h289z" />
    <glyph glyph-name="uni04AA" unicode="&#x4aa;" horiz-adv-x="639" 
d="M588 210q-4 -90 -60 -150t-149 -72v-127h-76v126q-107 10 -170.5 88.5t-63.5 215.5v128q0 99 33.5 167.5t94 103.5t139.5 35q72 0 127.5 -28.5t86.5 -76t34 -103.5h-76q-7 62 -52.5 101t-119.5 39q-88 0 -139.5 -59t-51.5 -179v-128q0 -120 51.5 -179t139.5 -59
q79 0 125.5 42.5t50.5 114.5h76z" />
    <glyph glyph-name="uni04AE" unicode="&#x4ae;" horiz-adv-x="614" 
d="M512 710h87l-254 -356v-354h-76v354l-254 356h90l204 -286z" />
    <glyph glyph-name="uni04B0" unicode="&#x4b0;" horiz-adv-x="614" 
d="M512 710h87l-251 -351h139v-68h-142v-291h-76v291h-141v68h138l-251 351h90l204 -286z" />
    <glyph glyph-name="uni04B2" unicode="&#x4b2;" horiz-adv-x="652" 
d="M355 373l184 -303h96v-209h-76v139h-64l-192 316l-197 -316h-85l231 362l-211 348h87l175 -289l176 289h85z" />
    <glyph glyph-name="uni04B6" unicode="&#x4b6;" horiz-adv-x="646" 
d="M524 70h89v-209h-76v139h-90v297q-66 -34 -157 -34q-110 0 -171 66.5t-61 199.5v181h76v-181q0 -198 164 -198q80 0 149 38v341h77v-640z" />
    <glyph glyph-name="uni04B8" unicode="&#x4b8;" horiz-adv-x="621" 
d="M447 710h77v-710h-77v297q-57 -27 -127 -33v-91h-57v91q-97 8 -151 74.5t-54 190.5v181h76v-181q0 -176 129 -196v147h57v-148q66 4 127 37v341z" />
    <glyph glyph-name="uni04BA" unicode="&#x4ba;" horiz-adv-x="621" 
d="M502 380.5q61 -66.5 61 -199.5v-181h-76v181q0 198 -164 198q-79 0 -149 -37v-342h-76v710h76v-297q66 34 157 34q110 0 171 -66.5z" />
    <glyph glyph-name="uni04C0" unicode="&#x4c0;" horiz-adv-x="271" 
d="M174 0h-76v710h76v-710z" />
    <glyph glyph-name="uni04C1" unicode="&#x4c1;" horiz-adv-x="916" 
d="M898 0h-89l-226 330h-87v-330h-76v330h-87l-226 -330h-89l253 368l-234 342h85l212 -310h86v310h76v-310h86l212 310h85l-234 -342zM345 836.5q-40 34.5 -40 105.5h60q0 -88 93 -88t93 88h59q0 -71 -40 -105.5t-112 -34.5q-73 0 -113 34.5z" />
    <glyph glyph-name="uni04D0" unicode="&#x4d0;" horiz-adv-x="618" 
d="M598 0h-82l-64 184h-288l-64 -184h-80l251 710h76zM308 601l-121 -348h241zM197 836.5q-40 34.5 -40 105.5h60q0 -88 93 -88t93 88h59q0 -71 -40 -105.5t-112 -34.5q-73 0 -113 34.5z" />
    <glyph glyph-name="uni04D4" unicode="&#x4d4;" horiz-adv-x="952" 
d="M894 710v-68h-347v-243h278v-68h-278v-263h347v-68h-423v184h-271l-116 -184h-86l452 710h444zM471 614l-227 -361h227v361z" />
    <glyph glyph-name="uni04D6" unicode="&#x4d6;" 
d="M521 0h-423v710h423v-68h-347v-243h277v-68h-277v-263h347v-68zM195 836.5q-40 34.5 -40 105.5h60q0 -88 93 -88t93 88h59q0 -71 -40 -105.5t-112 -34.5q-73 0 -113 34.5z" />
    <glyph glyph-name="uni04D8" unicode="&#x4d8;" horiz-adv-x="660" 
d="M463 690.5q61 -34.5 94.5 -102.5t33.5 -165v-136q0 -98 -33.5 -165.5t-93 -102t-137.5 -34.5q-76 0 -135 34.5t-92 102.5t-33 165v93h448v43q0 119 -51.5 176.5t-141.5 57.5q-76 0 -121.5 -39t-53.5 -101h-76q5 58 35.5 105.5t86 75t129.5 27.5q80 0 141 -34.5zM464 111
q51 58 51 176v24h-371v-24q0 -118 50.5 -176t133.5 -58q85 0 136 58z" />
    <glyph glyph-name="uni04DA" unicode="&#x4da;" horiz-adv-x="660" 
d="M463 690.5q61 -34.5 94.5 -102.5t33.5 -165v-136q0 -98 -33.5 -165.5t-93 -102t-137.5 -34.5q-76 0 -135 34.5t-92 102.5t-33 165v93h448v43q0 119 -51.5 176.5t-141.5 57.5q-76 0 -121.5 -39t-53.5 -101h-76q5 58 35.5 105.5t86 75t129.5 27.5q80 0 141 -34.5zM464 111
q51 58 51 176v24h-371v-24q0 -118 50.5 -176t133.5 -58q85 0 136 58zM271 825h-87v87h87v-87zM469 825h-85v87h85v-87z" />
    <glyph glyph-name="uni04E2" unicode="&#x4e2;" horiz-adv-x="705" 
d="M174 146l366 564h68v-710h-76v564l-367 -564h-67v710h76v-564zM496 820h-289v61h289v-61z" />
    <glyph glyph-name="uni04E6" unicode="&#x4e6;" horiz-adv-x="680" 
d="M141.5 64.5q-72.5 79.5 -72.5 235.5v110q0 156 72.5 235.5t198.5 79.5t198.5 -80t72.5 -235v-110q0 -155 -72.5 -235t-198.5 -80t-198.5 79.5zM483.5 112.5q51.5 59.5 51.5 187.5v110q0 128 -51.5 187.5t-143.5 59.5t-143.5 -59.5t-51.5 -187.5v-110q0 -128 51.5 -187.5
t143.5 -59.5t143.5 59.5zM283 825h-87v87h87v-87zM481 825h-85v87h85v-87z" />
    <glyph glyph-name="uni04E8" unicode="&#x4e8;" horiz-adv-x="680" 
d="M538.5 645q72.5 -80 72.5 -235v-110q0 -155 -72.5 -235t-198.5 -80t-198.5 79.5t-72.5 235.5v110q0 156 72.5 235.5t198.5 79.5t198.5 -80zM196.5 597.5q-51.5 -59.5 -51.5 -187.5v-11h390v11q0 128 -51.5 187.5t-143.5 59.5t-143.5 -59.5zM483.5 112.5
q51.5 59.5 51.5 187.5v31h-390v-31q0 -128 51.5 -187.5t143.5 -59.5t143.5 59.5z" />
    <glyph glyph-name="uni04EE" unicode="&#x4ee;" horiz-adv-x="584" 
d="M303 280l189 430h82l-319 -710h-79l86 197l-234 513h84zM446 820h-289v61h289v-61z" />
    <glyph glyph-name="uni04F0" unicode="&#x4f0;" horiz-adv-x="584" 
d="M303 280l189 430h82l-319 -710h-79l86 197l-234 513h84zM246 825h-87v87h87v-87zM444 825h-85v87h85v-87z" />
    <glyph glyph-name="uni04F2" unicode="&#x4f2;" horiz-adv-x="584" 
d="M303 280l189 430h82l-319 -710h-79l86 197l-234 513h84zM251 803h-75l94 129h80zM425 803h-73l99 129h84z" />
    <glyph glyph-name="uni04F8" unicode="&#x4f8;" horiz-adv-x="847" 
d="M340 417q107 0 169.5 -55.5t62.5 -153.5q0 -97 -62.5 -152.5t-169.5 -55.5h-242v710h76v-293h166zM340 68q73 0 113.5 35t40.5 105q0 71 -40.5 106t-113.5 35h-166v-281h166zM750 0h-76v710h76v-710zM367 825h-87v87h87v-87zM565 825h-85v87h85v-87z" />
    <glyph glyph-name="uni0430" unicode="&#x430;" horiz-adv-x="553" 
d="M415 489q54 -56 54 -145v-344h-67v55q-23 -31 -62 -49t-93 -18q-89 0 -139.5 44t-50.5 114t52 114.5t145 44.5q92 0 142 -57v94q0 64 -33 100.5t-95 36.5q-55 0 -85.5 -27t-32.5 -72h-73q1 47 25.5 84.5t67.5 59t99 21.5q92 0 146 -56zM364 74q34 28 34 72q0 45 -34 73
t-98 28t-99.5 -28.5t-35.5 -72.5t35.5 -72t99.5 -28t98 28z" />
    <glyph glyph-name="uni0431" unicode="&#x431;" horiz-adv-x="576" 
d="M416.5 469q45.5 -28 71.5 -80t26 -122v-46q0 -71 -28 -123.5t-77.5 -81t-111.5 -28.5q-98 0 -158 61t-60 175v146q0 147 50 214t147 84l58 9q53 8 72.5 24t21.5 48h71q-2 -63 -33.5 -93t-105.5 -42l-57 -9q-51 -8 -83 -28t-49.5 -60.5t-19.5 -108.5q24 43 65 66t97 23
q58 0 103.5 -28zM441 261q0 82 -40 126t-104 44q-65 0 -105 -44.5t-40 -125.5v-35q0 -82 40 -127t105 -45q64 0 104 45t40 127v35z" />
    <glyph glyph-name="uni0432" unicode="&#x432;" horiz-adv-x="541" 
d="M456 233q26 -33 26 -79q0 -43 -21.5 -78t-63.5 -55.5t-99 -20.5h-208v533h197q89 0 135 -36.5t46 -96.5q0 -42 -22 -73t-64 -46q48 -15 74 -48zM163 469v-163h117q54 0 84 21t30 60q0 41 -29 61.5t-82 20.5h-120zM294 64q51 0 82.5 24.5t31.5 66.5q0 41 -30 64.5
t-83 23.5h-132v-179h131z" />
    <glyph glyph-name="uni0433" unicode="&#x433;" horiz-adv-x="433" 
d="M90 0v533h318v-65h-245v-468h-73z" />
    <glyph glyph-name="uni0453" unicode="&#x453;" horiz-adv-x="433" 
d="M90 0v533h318v-65h-245v-468h-73zM276 626h-76l100 139h88z" />
    <glyph glyph-name="uni0491" unicode="&#x491;" horiz-adv-x="433" 
d="M337 533v124h71v-189h-245v-468h-73v533h247z" />
    <glyph glyph-name="uni0434" unicode="&#x434;" horiz-adv-x="586" 
d="M476 65h70v-189h-72v124h-371v-124h-71v189h54q16 18 23.5 53t7.5 104v311h359v-468zM403 67v400h-213v-240q0 -116 -27 -160h240z" />
    <glyph glyph-name="uni0435" unicode="&#x435;" horiz-adv-x="549" 
d="M370 78q33 25 43 66h73q-8 -69 -63.5 -112.5t-139.5 -43.5q-69 0 -119 31.5t-75.5 85.5t-25.5 122v79q0 68 24.5 122.5t73 86t115.5 31.5q101 0 156 -70t55 -184q0 -12 -2 -44h-349v-11q0 -85 36.5 -134.5t110.5 -49.5q54 0 87 25zM173.5 434.5q-34.5 -45.5 -37.5 -124.5
h278q-3 79 -37 124.5t-101 45.5q-68 0 -102.5 -45.5z" />
    <glyph glyph-name="uni0450" unicode="&#x450;" horiz-adv-x="549" 
d="M370 78q33 25 43 66h73q-8 -69 -63.5 -112.5t-139.5 -43.5q-69 0 -119 31.5t-75.5 85.5t-25.5 122v79q0 68 24.5 122.5t73 86t115.5 31.5q101 0 156 -70t55 -184q0 -12 -2 -44h-349v-11q0 -85 36.5 -134.5t110.5 -49.5q54 0 87 25zM173.5 434.5q-34.5 -45.5 -37.5 -124.5
h278q-3 79 -37 124.5t-101 45.5q-68 0 -102.5 -45.5zM209 765l100 -139h-76l-112 139h88z" />
    <glyph glyph-name="uni0451" unicode="&#x451;" horiz-adv-x="549" 
d="M370 78q33 25 43 66h73q-8 -69 -63.5 -112.5t-139.5 -43.5q-69 0 -119 31.5t-75.5 85.5t-25.5 122v79q0 68 24.5 122.5t73 86t115.5 31.5q101 0 156 -70t55 -184q0 -12 -2 -44h-349v-11q0 -85 36.5 -134.5t110.5 -49.5q54 0 87 25zM173.5 434.5q-34.5 -45.5 -37.5 -124.5
h278q-3 79 -37 124.5t-101 45.5q-68 0 -102.5 -45.5zM220 648h-87v87h87v-87zM418 648h-85v87h85v-87z" />
    <glyph glyph-name="uni0436" unicode="&#x436;" horiz-adv-x="758" 
d="M736 0h-86l-169 240h-66v-240h-72v240h-67l-168 -240h-86l197 277l-178 256h83l155 -226h64v226h72v-226h64l154 226h84l-178 -256z" />
    <glyph glyph-name="uni0437" unicode="&#x437;" horiz-adv-x="502" 
d="M414.5 227.5q26.5 -34.5 26.5 -83.5q0 -70 -53.5 -113t-141.5 -43q-87 0 -140.5 42t-57.5 109h72q3 -37 36.5 -61.5t89.5 -24.5t89 25.5t33 68.5t-34.5 69t-90.5 26h-64v65h64q52 0 84.5 24t32.5 61q0 41 -31 63.5t-83 22.5t-84.5 -23t-36.5 -58h-71q4 65 56 105.5
t136 40.5q83 0 135.5 -40t52.5 -107q0 -42 -25.5 -72.5t-70.5 -45.5q50 -16 76.5 -50.5z" />
    <glyph glyph-name="uni0438" unicode="&#x438;" horiz-adv-x="591" 
d="M163 132l275 401h64v-533h-73v401l-275 -401h-64v533h73v-401z" />
    <glyph glyph-name="uni0439" unicode="&#x439;" horiz-adv-x="591" 
d="M163 132l275 401h64v-533h-73v401l-275 -401h-64v533h73v-401zM183 659.5q-40 34.5 -40 105.5h60q0 -88 93 -88t93 88h59q0 -71 -40 -105.5t-112 -34.5q-73 0 -113 34.5z" />
    <glyph glyph-name="uni045D" unicode="&#x45d;" horiz-adv-x="591" 
d="M163 132l275 401h64v-533h-73v401l-275 -401h-64v533h73v-401zM228 765l100 -139h-76l-112 139h88z" />
    <glyph glyph-name="uni043A" unicode="&#x43a;" horiz-adv-x="516" 
d="M499 0h-86l-180 241h-72v-241h-71v533h71v-226h69l164 226h85l-188 -255z" />
    <glyph glyph-name="uni045C" unicode="&#x45c;" horiz-adv-x="516" 
d="M499 0h-86l-180 241h-72v-241h-71v533h71v-226h69l164 226h85l-188 -255zM306 626h-76l100 139h88z" />
    <glyph glyph-name="uni043B" unicode="&#x43b;" horiz-adv-x="560" 
d="M470 0h-73v467h-209v-325q0 -73 -36.5 -110t-107.5 -37h-13v63h4q41 0 61.5 18t20.5 70v387h353v-533z" />
    <glyph glyph-name="uni043C" unicode="&#x43c;" horiz-adv-x="683" 
d="M343 272l199 261h51v-533h-73v399l-170 -222h-17l-170 218v-395h-73v533h50z" />
    <glyph glyph-name="uni043D" unicode="&#x43d;" horiz-adv-x="578" 
d="M415 307v226h73v-533h-73v241h-252v-241h-73v533h73v-226h252z" />
    <glyph glyph-name="uni043E" unicode="&#x43e;" horiz-adv-x="561" 
d="M163 19.5q-49 31.5 -74.5 86t-25.5 121.5v79q0 67 25.5 122t74.5 86.5t117 31.5t117.5 -31.5t75 -86.5t25.5 -122v-79q0 -67 -25.5 -121.5t-75 -86t-117.5 -31.5t-117 31.5zM389 103q36 49 36 134v60q0 84 -36 133t-109 49q-72 0 -108 -49t-36 -133v-60q0 -85 36 -134
t108 -49q73 0 109 49z" />
    <glyph glyph-name="uni043F" unicode="&#x43f;" horiz-adv-x="571" 
d="M163 0h-73v533h391v-533h-73v467h-245v-467z" />
    <glyph glyph-name="uni0440" unicode="&#x440;" 
d="M463.5 481q51.5 -65 51.5 -165v-99q0 -100 -51.5 -164.5t-145.5 -64.5q-108 0 -155 86v-262h-73v721h70v-87q23 47 63.5 73.5t95.5 26.5q93 0 144.5 -65zM442 301q0 82 -35.5 130.5t-103.5 48.5t-104 -48t-36 -129v-73q0 -81 35.5 -129t104.5 -48q68 0 103.5 48.5
t35.5 129.5v70z" />
    <glyph glyph-name="uni0441" unicode="&#x441;" horiz-adv-x="528" 
d="M161 19q-48 31 -73 84t-25 119v89q0 66 25 119.5t73 84.5t114 31q85 0 139 -44t61 -119h-73q-6 46 -40 71t-87 25q-69 0 -104 -48t-35 -129v-71q0 -81 35 -129t104 -48q55 0 87.5 26t42.5 74h73q-9 -78 -63.5 -122t-139.5 -44q-66 0 -114 31z" />
    <glyph glyph-name="uni0442" unicode="&#x442;" horiz-adv-x="455" 
d="M27 533h401v-66h-164v-467h-73v467h-164v66z" />
    <glyph glyph-name="uni0443" unicode="&#x443;" horiz-adv-x="507" 
d="M255 159l152 374h80l-310 -721h-78l119 266l-192 455h80z" />
    <glyph glyph-name="uni045E" unicode="&#x45e;" horiz-adv-x="507" 
d="M255 159l152 374h80l-310 -721h-78l119 266l-192 455h80zM142 659.5q-40 34.5 -40 105.5h60q0 -88 93 -88t93 88h59q0 -71 -40 -105.5t-112 -34.5q-73 0 -113 34.5z" />
    <glyph glyph-name="uni0444" unicode="&#x444;" horiz-adv-x="675" 
d="M376 546q73 0 126.5 -31.5t81.5 -86.5t28 -122v-79q0 -67 -28 -121.5t-81.5 -86t-126.5 -31.5h-2v-175h-73v175h-2q-74 0 -127.5 31.5t-81.5 86t-28 121.5v79q0 67 28 122t81.5 86.5t127.5 31.5h2v203h73v-203h2zM135 237q0 -84 41 -133.5t123 -49.5h2v425h-2
q-82 0 -123 -49.5t-41 -132.5v-60zM539 297q0 83 -40.5 132.5t-122.5 49.5h-2v-425h2q82 0 122.5 49.5t40.5 133.5v60z" />
    <glyph glyph-name="uni0445" unicode="&#x445;" horiz-adv-x="505" 
d="M301 276l176 -276h-85l-142 222l-137 -222h-85l176 273l-166 260h84l133 -208l127 208h85z" />
    <glyph glyph-name="uni0447" unicode="&#x447;" horiz-adv-x="518" 
d="M356 533h73v-533h-73v216q-51 -23 -117 -23q-86 0 -135.5 49t-49.5 144v147h73v-142q0 -132 123 -132q57 0 106 23v251z" />
    <glyph glyph-name="uni0446" unicode="&#x446;" horiz-adv-x="592" 
d="M481 533v-468h72v-189h-71v124h-392v533h73v-466h245v466h73z" />
    <glyph glyph-name="uni0448" unicode="&#x448;" horiz-adv-x="822" 
d="M732 0h-642v533h71v-466h214v466h72v-466h214v466h71v-533z" />
    <glyph glyph-name="uni0449" unicode="&#x449;" horiz-adv-x="844" 
d="M732 533v-468h74v-189h-71v124h-645v533h71v-466h214v466h72v-466h214v466h71z" />
    <glyph glyph-name="uni045F" unicode="&#x45f;" horiz-adv-x="571" 
d="M408 533h73v-533h-160v-124h-71v124h-160v533h73v-466h245v466z" />
    <glyph glyph-name="uni044C" unicode="&#x44c;" horiz-adv-x="502" 
d="M270 323q89 0 139 -42.5t50 -119.5q0 -78 -49.5 -119.5t-139.5 -41.5h-180v533h73v-210h107zM270 65q55 0 85 24t30 72q0 49 -30 73t-85 24h-107v-193h107z" />
    <glyph glyph-name="uni044A" unicode="&#x44a;" horiz-adv-x="596" 
d="M364 323q89 0 139.5 -42.5t50.5 -119.5t-50 -119t-140 -42h-180v467h-157v66h230v-210h107zM364 65q55 0 85.5 24t30.5 72q0 49 -30 73t-86 24h-107v-193h107z" />
    <glyph glyph-name="uni044B" unicode="&#x44b;" horiz-adv-x="706" 
d="M270 323q89 0 139 -42.5t50 -119.5q0 -78 -49.5 -119.5t-139.5 -41.5h-180v533h73v-210h107zM270 65q55 0 85 24t30 72q0 49 -30 73t-85 24h-107v-193h107zM617 0h-73v533h73v-533z" />
    <glyph glyph-name="uni0459" unicode="&#x459;" horiz-adv-x="783" 
d="M551 323q89 0 139.5 -42.5t50.5 -119.5t-50 -119t-140 -42h-180v467h-183v-325q0 -73 -36.5 -110t-107.5 -37h-13v63h4q39 0 60.5 16.5t21.5 71.5v387h327v-210h107zM551 65q55 0 85.5 24t30.5 72q0 49 -30 73t-86 24h-107v-193h107z" />
    <glyph glyph-name="uni045A" unicode="&#x45a;" horiz-adv-x="827" 
d="M596 323q89 0 139 -42.5t50 -119.5t-50 -119t-139 -42h-181v256h-252v-256h-73v533h73v-212h252v212h73v-210h108zM596 65q55 0 85 24t30 72q0 49 -30 73t-85 24h-108v-193h108z" />
    <glyph glyph-name="uni0455" unicode="&#x455;" horiz-adv-x="517" 
d="M152.5 10q-46.5 22 -72 59.5t-27.5 83.5h73q4 -46 41 -73t92 -27q56 0 91.5 23.5t35.5 62.5q0 36 -28.5 55.5t-83.5 35.5l-59 17q-71 20 -110 54.5t-39 96.5q0 42 23 75.5t65.5 53t98.5 19.5q84 0 138.5 -42.5t57.5 -123.5h-73q-3 48 -34 74t-90 26q-54 0 -83.5 -23
t-29.5 -55q0 -35 25 -53.5t74 -33.5l59 -18q81 -23 121.5 -57.5t40.5 -96.5q0 -45 -24.5 -80t-70 -55t-105.5 -20t-106.5 22z" />
    <glyph glyph-name="uni0454" unicode="&#x454;" horiz-adv-x="528" 
d="M478 154q-9 -78 -63.5 -122t-139.5 -44q-66 0 -114 31t-73 84t-25 119v89q0 66 25 119.5t73 84.5t114 31q85 0 139 -44t61 -119h-73q-6 46 -40 71t-87 25q-68 0 -103 -46.5t-36 -125.5h204v-65h-204v-11q0 -81 35 -129t104 -48q55 0 87.5 26t42.5 74h73z" />
    <glyph glyph-name="uni044D" unicode="&#x44d;" horiz-adv-x="528" 
d="M367 515q48 -31 73 -84.5t25 -119.5v-89q0 -66 -25 -119t-73 -84t-114 -31q-85 0 -139.5 44t-63.5 122h73q10 -48 42.5 -74t87.5 -26q69 0 104 48t35 129v11h-204v65h204q-1 79 -36 125.5t-103 46.5q-53 0 -87 -25t-40 -71h-73q7 75 61 119t139 44q66 0 114 -31z" />
    <glyph glyph-name="uni0456" unicode="&#x456;" horiz-adv-x="253" 
d="M163 0h-73v533h73v-533zM169 651h-85v91h85v-91z" />
    <glyph glyph-name="uni0457" unicode="&#x457;" horiz-adv-x="253" 
d="M163 0h-73v533h73v-533zM16 735h76v-87h-76v87zM159 735h77v-87h-77v87z" />
    <glyph glyph-name="uni0458" unicode="&#x458;" horiz-adv-x="261" 
d="M-16 -188v65h16q35 0 56 9.5t31.5 34.5t10.5 73v539h73v-546q0 -85 -37 -130t-122 -45h-28zM177 651h-85v91h85v-91z" />
    <glyph glyph-name="uni045B" unicode="&#x45b;" 
d="M446.5 489q47.5 -50 47.5 -135v-354h-73v343q0 61 -31.5 96t-88.5 35q-64 0 -101 -39.5t-37 -104.5v-330h-73v603h-86v62h86v84h73v-84h149v-62h-149v-151q21 41 61.5 64t93.5 23q81 0 128.5 -50z" />
    <glyph glyph-name="uni044E" unicode="&#x44e;" horiz-adv-x="755" 
d="M592 514.5q49 -31.5 74.5 -86t25.5 -122.5v-79q0 -68 -25.5 -122t-74.5 -85.5t-117 -31.5t-117.5 31.5t-75 86t-25.5 121.5v14h-94v-241h-73v533h73v-226h94q0 67 25.5 121.5t75 86t117.5 31.5t117 -31.5zM619 297q0 84 -36 133t-108 49q-73 0 -109 -49t-36 -133v-60
q0 -85 36 -134t109 -49q72 0 108 49t36 134v60z" />
    <glyph glyph-name="uni044F" unicode="&#x44f;" horiz-adv-x="518" 
d="M428 0h-73v226h-89l-144 -226h-83l152 232q-62 13 -95 51.5t-33 96.5q0 70 48.5 111.5t138.5 41.5h178v-533zM355 289v180h-105q-55 0 -84 -22t-29 -68t29 -68t84 -22h105z" />
    <glyph glyph-name="uni0452" unicode="&#x452;" horiz-adv-x="578" 
d="M446.5 489q47.5 -50 47.5 -135v-363q0 -86 -37 -132.5t-122 -46.5h-28v65h17q35 0 55.5 9t31 34.5t10.5 72.5v350q0 61 -31.5 96t-88.5 35q-64 0 -101 -39.5t-37 -104.5v-330h-73v603h-86v62h86v84h73v-84h149v-62h-149v-151q21 41 61.5 64t93.5 23q81 0 128.5 -50z" />
    <glyph glyph-name="uni0463" unicode="&#x463;" horiz-adv-x="576" 
d="M342 323q90 0 140 -42t50 -120q0 -77 -50 -119t-140 -42h-180v468h-135v65h135v216h73v-216h193v-65h-193v-145h107zM342 65q55 0 85.5 24t30.5 72q0 49 -30 73t-86 24h-107v-193h107z" />
    <glyph glyph-name="uni0473" unicode="&#x473;" horiz-adv-x="561" 
d="M397.5 514.5q49.5 -31.5 75 -86.5t25.5 -122v-79q0 -67 -25.5 -121.5t-75 -86t-117.5 -31.5t-117 31.5t-74.5 86t-25.5 121.5v79q0 67 25.5 122t74.5 86.5t117 31.5t117.5 -31.5zM174 432.5q-36 -46.5 -38 -125.5q32 16 73 16q24 0 40.5 -4t37.5 -12q19 -7 33.5 -10.5
t34.5 -3.5q37 0 70 18q-3 78 -39 123t-106 45t-106 -46.5zM389 103q36 49 36 134v8q-29 -16 -77 -16q-22 0 -37 3.5t-37 11.5q-18 7 -34 11t-37 4q-31 0 -67 -17v-5q0 -85 36 -134t108 -49q73 0 109 49z" />
    <glyph glyph-name="uni0475" unicode="&#x475;" horiz-adv-x="570" 
d="M536 540v-67h-17q-30 0 -47.5 -13t-31.5 -49l-151 -411h-70l-193 533h77l151 -425l119 330q17 49 44.5 75.5t83.5 26.5h35z" />
    <glyph glyph-name="uni0493" unicode="&#x493;" horiz-adv-x="475" 
d="M449 533v-65h-245v-160h148v-65h-148v-243h-73v243h-86v65h86v225h318z" />
    <glyph glyph-name="uni0497" unicode="&#x497;" horiz-adv-x="799" 
d="M539 277l151 -212h87v-189h-72v124h-55l-169 240h-66v-240h-72v240h-67l-168 -240h-86l197 277l-178 256h83l155 -226h64v226h72v-226h64l154 226h84z" />
    <glyph glyph-name="uni0499" unicode="&#x499;" horiz-adv-x="502" 
d="M398 40.5q-43 -41.5 -116 -50.5v-114h-71v114q-73 8 -116.5 49t-46.5 100h72q3 -37 36.5 -61.5t89.5 -24.5t89 25.5t33 68.5t-34.5 69t-90.5 26h-64v65h64q52 0 84.5 24t32.5 61q0 41 -31 63.5t-83 22.5t-84.5 -23t-36.5 -58h-71q4 65 56 105.5t136 40.5q83 0 135.5 -40
t52.5 -107q0 -42 -25.5 -72.5t-70.5 -45.5q50 -16 76.5 -50.5t26.5 -83.5q0 -62 -43 -103.5z" />
    <glyph glyph-name="uni049B" unicode="&#x49b;" horiz-adv-x="559" 
d="M291 278l159 -213h89v-189h-71v124h-55l-180 241h-72v-241h-71v533h71v-226h69l164 226h85z" />
    <glyph glyph-name="uni049D" unicode="&#x49d;" horiz-adv-x="530" 
d="M507 0h-84l-171 241h-12v-86h-49v86h-28v-241h-73v533h73v-226h28v83h49v-83h11l160 226h82l-182 -257z" />
    <glyph glyph-name="uni04A1" unicode="&#x4a1;" horiz-adv-x="612" 
d="M595 0h-86l-180 241h-72v-241h-71v467h-159v66h230v-226h69l164 226h85l-188 -255z" />
    <glyph glyph-name="uni04A3" unicode="&#x4a3;" horiz-adv-x="598" 
d="M488 533v-468h73v-189h-72v124h-74v241h-252v-241h-73v533h73v-226h252v226h73z" />
    <glyph glyph-name="uni04A5" unicode="&#x4a5;" horiz-adv-x="672" 
d="M646 533v-66h-158v-467h-73v241h-252v-241h-73v533h73v-226h252v226h231z" />
    <glyph glyph-name="uni04AB" unicode="&#x4ab;" horiz-adv-x="528" 
d="M478 154q-7 -67 -48.5 -109t-107.5 -53v-116h-71v113q-88 9 -138 74t-50 159v89q0 66 25 119.5t73 84.5t114 31q85 0 139 -44t61 -119h-73q-6 46 -40 71t-87 25q-69 0 -104 -48t-35 -129v-71q0 -81 35 -129t104 -48q55 0 87.5 26t42.5 74h73z" />
    <glyph glyph-name="uni04AF" unicode="&#x4af;" horiz-adv-x="511" 
d="M412 533h76l-195 -413v-308h-73v303l-198 418h79l155 -333z" />
    <glyph glyph-name="uni04B1" unicode="&#x4b1;" horiz-adv-x="511" 
d="M488 533l-195 -413v-115h118v-65h-118v-128h-73v128h-116v65h116v110l-198 418h79l155 -333l156 333h76z" />
    <glyph glyph-name="uni04B3" unicode="&#x4b3;" horiz-adv-x="542" 
d="M301 276l134 -211h84v-189h-71v124h-56l-142 222l-137 -222h-85l176 273l-166 260h84l133 -208l127 208h85z" />
    <glyph glyph-name="uni04B7" unicode="&#x4b7;" horiz-adv-x="538" 
d="M429 65h72v-189h-71v124h-74v216q-51 -23 -117 -23q-86 0 -135.5 49t-49.5 144v147h73v-142q0 -132 123 -132q57 0 106 23v251h73v-468z" />
    <glyph glyph-name="uni04B9" unicode="&#x4b9;" horiz-adv-x="525" 
d="M362 533h73v-533h-73v217q-40 -19 -93 -23v-67h-49v67q-77 5 -121.5 54t-44.5 138v147h73v-142q0 -113 93 -130v102h49v-104q52 4 93 24v250z" />
    <glyph glyph-name="uni04BB" unicode="&#x4bb;" 
d="M446.5 496q47.5 -50 47.5 -135v-361h-73v350q0 61 -31.5 96t-88.5 35q-64 0 -101 -39.5t-37 -104.5v-337h-73v749h73v-287q22 40 62 62t93 22q81 0 128.5 -50z" />
    <glyph glyph-name="uni04CF" unicode="&#x4cf;" horiz-adv-x="253" 
d="M163 0h-73v749h73v-749z" />
    <glyph glyph-name="uni04C2" unicode="&#x4c2;" horiz-adv-x="758" 
d="M736 0h-86l-169 240h-66v-240h-72v240h-67l-168 -240h-86l197 277l-178 256h83l155 -226h64v226h72v-226h64l154 226h84l-178 -256zM266 659.5q-40 34.5 -40 105.5h60q0 -88 93 -88t93 88h59q0 -71 -40 -105.5t-112 -34.5q-73 0 -113 34.5z" />
    <glyph glyph-name="uni04D1" unicode="&#x4d1;" horiz-adv-x="553" 
d="M415 489q54 -56 54 -145v-344h-67v55q-23 -31 -62 -49t-93 -18q-89 0 -139.5 44t-50.5 114t52 114.5t145 44.5q92 0 142 -57v94q0 64 -33 100.5t-95 36.5q-55 0 -85.5 -27t-32.5 -72h-73q1 47 25.5 84.5t67.5 59t99 21.5q92 0 146 -56zM364 74q34 28 34 72q0 45 -34 73
t-98 28t-99.5 -28.5t-35.5 -72.5t35.5 -72t99.5 -28t98 28zM162 659.5q-40 34.5 -40 105.5h60q0 -88 93 -88t93 88h59q0 -71 -40 -105.5t-112 -34.5q-73 0 -113 34.5z" />
    <glyph glyph-name="uni04D5" unicode="&#x4d5;" horiz-adv-x="881" 
d="M702.5 78q33.5 25 43.5 66h73q-8 -69 -63 -112.5t-140 -43.5q-61 0 -106 24.5t-72 69.5q-20 -43 -65.5 -68.5t-115.5 -25.5q-96 0 -148 43.5t-52 114.5q0 70 52 114.5t145 44.5t142 -56v93q0 63 -33.5 100t-94.5 37q-55 0 -85.5 -27t-32.5 -72h-73q1 47 25.5 84.5
t67.5 59t99 21.5q57 0 100.5 -25t68.5 -69q26 45 70.5 70t103.5 25q99 0 153.5 -70t54.5 -184q0 -12 -2 -44h-349v-11q0 -85 36 -134.5t110 -49.5q54 0 87.5 25zM505.5 434.5q-34.5 -45.5 -36.5 -124.5h278q-3 79 -37 124.5t-101 45.5q-69 0 -103.5 -45.5zM365 74
q34 28 34 72q0 45 -34 73t-98 28q-65 0 -100.5 -28.5t-35.5 -72.5t35.5 -72t100.5 -28q64 0 98 28z" />
    <glyph glyph-name="uni04D7" unicode="&#x4d7;" horiz-adv-x="549" 
d="M370 78q33 25 43 66h73q-8 -69 -63.5 -112.5t-139.5 -43.5q-69 0 -119 31.5t-75.5 85.5t-25.5 122v79q0 68 24.5 122.5t73 86t115.5 31.5q101 0 156 -70t55 -184q0 -12 -2 -44h-349v-11q0 -85 36.5 -134.5t110.5 -49.5q54 0 87 25zM173.5 434.5q-34.5 -45.5 -37.5 -124.5
h278q-3 79 -37 124.5t-101 45.5q-68 0 -102.5 -45.5zM164 659.5q-40 34.5 -40 105.5h60q0 -88 93 -88t93 88h59q0 -71 -40 -105.5t-112 -34.5q-73 0 -113 34.5z" />
    <glyph glyph-name="uni04D9" unicode="&#x4d9;" horiz-adv-x="549" 
d="M385 513.5q50 -31.5 75.5 -85.5t25.5 -122v-79q0 -68 -24.5 -122.5t-73 -86t-115.5 -31.5q-101 0 -156 70t-55 184q0 12 2 44h349v11q0 85 -36.5 134.5t-110.5 49.5q-54 0 -87 -25t-43 -66h-73q8 69 63.5 112.5t139.5 43.5q69 0 119 -31.5zM375.5 98.5
q34.5 45.5 37.5 124.5h-278q3 -79 37 -124.5t101 -45.5q68 0 102.5 45.5z" />
    <glyph glyph-name="uni04DB" unicode="&#x4db;" horiz-adv-x="549" 
d="M385 513.5q50 -31.5 75.5 -85.5t25.5 -122v-79q0 -68 -24.5 -122.5t-73 -86t-115.5 -31.5q-101 0 -156 70t-55 184q0 12 2 44h349v11q0 85 -36.5 134.5t-110.5 49.5q-54 0 -87 -25t-43 -66h-73q8 69 63.5 112.5t139.5 43.5q69 0 119 -31.5zM375.5 98.5
q34.5 45.5 37.5 124.5h-278q3 -79 37 -124.5t101 -45.5q68 0 102.5 45.5zM218 648h-87v87h87v-87zM416 648h-85v87h85v-87z" />
    <glyph glyph-name="uni04E3" unicode="&#x4e3;" horiz-adv-x="591" 
d="M163 132l275 401h64v-533h-73v401l-275 -401h-64v533h73v-401zM440 643h-289v61h289v-61z" />
    <glyph glyph-name="uni04E7" unicode="&#x4e7;" horiz-adv-x="561" 
d="M163 19.5q-49 31.5 -74.5 86t-25.5 121.5v79q0 67 25.5 122t74.5 86.5t117 31.5t117.5 -31.5t75 -86.5t25.5 -122v-79q0 -67 -25.5 -121.5t-75 -86t-117.5 -31.5t-117 31.5zM389 103q36 49 36 134v60q0 84 -36 133t-109 49q-72 0 -108 -49t-36 -133v-60q0 -85 36 -134
t108 -49q73 0 109 49zM224 648h-87v87h87v-87zM422 648h-85v87h85v-87z" />
    <glyph glyph-name="uni04E9" unicode="&#x4e9;" horiz-adv-x="561" 
d="M397.5 514.5q49.5 -31.5 75 -86.5t25.5 -122v-79q0 -67 -25.5 -121.5t-75 -86t-117.5 -31.5t-117 31.5t-74.5 86t-25.5 121.5v79q0 67 25.5 122t74.5 86.5t117 31.5t117.5 -31.5zM174 433q-36 -46 -38 -126h289q-2 80 -38 126t-107 46q-70 0 -106 -46zM389 103
q36 49 36 134v5h-289v-5q0 -85 36 -134t108 -49q73 0 109 49z" />
    <glyph glyph-name="uni04EF" unicode="&#x4ef;" horiz-adv-x="507" 
d="M255 159l152 374h80l-310 -721h-78l119 266l-192 455h80zM400 643h-289v61h289v-61z" />
    <glyph glyph-name="uni04F1" unicode="&#x4f1;" horiz-adv-x="507" 
d="M255 159l152 374h80l-310 -721h-78l119 266l-192 455h80zM198 648h-87v87h87v-87zM396 648h-85v87h85v-87z" />
    <glyph glyph-name="uni04F3" unicode="&#x4f3;" horiz-adv-x="507" 
d="M255 159l152 374h80l-310 -721h-78l119 266l-192 455h80zM204 626h-75l94 129h80zM378 626h-73l99 129h84z" />
    <glyph glyph-name="uni04F9" unicode="&#x4f9;" horiz-adv-x="706" 
d="M270 323q89 0 139 -42.5t50 -119.5q0 -78 -49.5 -119.5t-139.5 -41.5h-180v533h73v-210h107zM270 65q55 0 85 24t30 72q0 49 -30 73t-85 24h-107v-193h107zM617 0h-73v533h73v-533zM297 648h-87v87h87v-87zM495 648h-85v87h85v-87z" />
    <glyph glyph-name="uni0430.aalt" 
d="M420 533h69v-533h-69v90q-23 -48 -63.5 -75t-96.5 -27q-93 0 -144.5 64.5t-51.5 165.5v98q0 100 51.5 165t144.5 65q56 0 96.5 -26.5t63.5 -74.5v88zM416 303q0 81 -35.5 129t-104.5 48q-68 0 -103.5 -48.5t-35.5 -130.5v-69q0 -81 35.5 -130t103.5 -49q69 0 104.5 48
t35.5 130v72z" />
    <glyph glyph-name="Alpha" unicode="&#x391;" horiz-adv-x="618" 
d="M598 0h-82l-64 184h-288l-64 -184h-80l251 710h76zM308 601l-121 -348h241z" />
    <glyph glyph-name="Beta" unicode="&#x392;" horiz-adv-x="646" 
d="M552.5 307q30.5 -44 30.5 -104q0 -57 -27.5 -103t-80.5 -73t-126 -27h-251v710h242q109 0 167.5 -49.5t58.5 -129.5q0 -54 -26.5 -95.5t-77.5 -62.5q60 -22 90.5 -66zM174 642v-244h160q72 0 113 33t41 89q0 60 -38.5 91t-113.5 31h-162zM347 68q73 0 115.5 36t42.5 99
q0 59 -40 93.5t-113 34.5h-178v-263h173z" />
    <glyph glyph-name="Gamma" unicode="&#x393;" horiz-adv-x="522" 
d="M98 0v710h394v-70h-318v-640h-76z" />
    <glyph glyph-name="uni0394" unicode="&#x394;" horiz-adv-x="620" 
d="M273 710h75l241 -651v-59h-557v59zM309 601l-189 -529h377z" />
    <glyph glyph-name="Pi" unicode="&#x3a0;" horiz-adv-x="679" 
d="M581 710v-710h-76v639h-331v-639h-76v710h483z" />
    <glyph glyph-name="uni03A9" unicode="&#x3a9;" horiz-adv-x="674" 
d="M466 70h140v-70h-207v223q64 12 96 58t32 123v57q0 94 -50.5 145t-139.5 51t-139.5 -51t-50.5 -145v-57q0 -77 32 -123t96 -58v-223h-207v70h140v110q-67 21 -102 77t-35 146v58q0 80 32.5 140t92.5 92t141 32t141 -32t92.5 -92t32.5 -140v-58q0 -90 -35 -146t-102 -77
v-110z" />
    <glyph glyph-name="alpha" unicode="&#x3b1;" 
d="M420 533h69v-533h-69v90q-23 -48 -63.5 -75t-96.5 -27q-93 0 -144.5 64.5t-51.5 165.5v98q0 100 51.5 165t144.5 65q56 0 96.5 -26.5t63.5 -74.5v88zM416 303q0 81 -35.5 129t-104.5 48q-68 0 -103.5 -48.5t-35.5 -130.5v-69q0 -81 35.5 -130t103.5 -49q69 0 104.5 48
t35.5 130v72z" />
    <glyph glyph-name="beta" unicode="&#x3b2;" horiz-adv-x="594" 
d="M498.5 348q36.5 -48 36.5 -119v-29q0 -100 -55 -156t-154 -56q-114 0 -163 88v-263h-73v746q0 94 54 148t147 54q87 0 140 -48t53 -127v-25q0 -53 -23.5 -90t-68.5 -56q70 -19 106.5 -67zM462 230q0 68 -42.5 107.5t-119.5 39.5h-31v64h31q54 0 82.5 29.5t28.5 84.5v28
q0 53 -32 82.5t-89 29.5q-62 0 -94.5 -33t-32.5 -99v-333q0 -82 38.5 -129.5t113.5 -47.5q72 0 109.5 38.5t37.5 110.5v28z" />
    <glyph glyph-name="gamma" unicode="&#x3b3;" horiz-adv-x="511" 
d="M412 533h76l-195 -413v-308h-73v303l-198 418h79l155 -333z" />
    <glyph glyph-name="delta" unicode="&#x3b4;" horiz-adv-x="561" 
d="M408 477q89 -74 89 -197v-54q0 -70 -26 -124t-75 -84t-116 -30t-116 30t-75 84t-26 124v52q0 65 25 116t72.5 80.5t111.5 31.5l-168 142v62h365v-65h-262zM425 270q0 79 -36 125.5t-109 46.5q-72 0 -108 -46.5t-36 -125.5v-42q0 -80 36 -126t108 -46q73 0 109 46t36 126
v42z" />
    <glyph glyph-name="uni03BC" unicode="&#x3bc;" horiz-adv-x="584" 
d="M421 533h73v-533h-69v88q-18 -46 -60 -73t-99 -27q-59 0 -103 28v-204h-73v721h73v-350q0 -61 31.5 -95.5t88.5 -34.5q64 0 101 39.5t37 103.5v337z" />
    <glyph glyph-name="pi" unicode="&#x3c0;" horiz-adv-x="562" 
d="M472 533v-533h-73v465h-236v-465h-73v533h382z" />
    <glyph glyph-name="zero" unicode="0" horiz-adv-x="619" 
d="M187.5 17q-53.5 30 -84 89.5t-30.5 146.5v205q0 87 30.5 147t84 90t121.5 30q69 0 122.5 -30t84 -90t30.5 -147v-205q0 -87 -30.5 -146.5t-84.5 -89.5t-122 -30t-121.5 30zM426 103q44 48 44 151v204q0 103 -44 151t-117 48t-116.5 -48.5t-43.5 -150.5v-204
q0 -103 43.5 -151t116.5 -48t117 48z" />
    <glyph glyph-name="one" unicode="1" horiz-adv-x="444" 
d="M416 0h-353v70h142v570h-155v70h231v-640h135v-70z" />
    <glyph glyph-name="two" unicode="2" horiz-adv-x="555" 
d="M167 70h327v-70h-429v64l260 290q50 56 68.5 93.5t18.5 78.5q0 57 -36 94t-100 37q-69 0 -105.5 -39.5t-38.5 -106.5h-76q1 64 29 112.5t77.5 75t113.5 26.5q100 0 156 -54.5t56 -142.5q0 -52 -22 -100.5t-71 -103.5z" />
    <glyph glyph-name="three" unicode="3" horiz-adv-x="556" 
d="M271 423q107 -4 165 -57.5t58 -139.5v-29q0 -61 -28 -109t-78.5 -74.5t-116.5 -26.5q-63 0 -111.5 25t-76 68t-30.5 97h76q3 -52 41.5 -87t100.5 -35q66 0 106 38.5t40 103.5v29q0 62 -42.5 98t-123.5 36h-75v54l209 226h-317v70h416v-64z" />
    <glyph glyph-name="four" unicode="4" horiz-adv-x="575" 
d="M432 405v-168h106v-70h-106v-167h-76v167h-319v63l268 480h82l-264 -473h233v168h76z" />
    <glyph glyph-name="five" unicode="5" horiz-adv-x="572" 
d="M411.5 438q46.5 -26 73.5 -75t27 -116v-44q0 -64 -28 -113t-78.5 -76t-115.5 -27q-63 0 -111 24t-75.5 63.5t-31.5 86.5h76q5 -42 42.5 -74t99.5 -32q64 0 104.5 39.5t40.5 108.5v44q0 70 -40.5 109.5t-105.5 39.5q-56 0 -91 -26.5t-47 -68.5h-71v409h406v-70h-330v-247
q23 33 62.5 52t88.5 19q58 0 104.5 -26z" />
    <glyph glyph-name="six" unicode="6" horiz-adv-x="564" 
d="M406.5 421.5q51.5 -28.5 81 -80t29.5 -117.5q0 -72 -30.5 -125.5t-84 -82.5t-121.5 -29t-122 28.5t-85 80t-31 117.5q0 50 19 99t67 112l217 286h89l-205 -268q30 8 60 8q65 0 116.5 -28.5zM396 98.5q44 43.5 44 120.5q0 76 -44 119.5t-116 43.5t-115.5 -43.5
t-43.5 -119.5q0 -77 43.5 -120.5t115.5 -43.5t116 43.5z" />
    <glyph glyph-name="seven" unicode="7" horiz-adv-x="470" 
d="M26 640v70h421v-64l-263 -646h-83l263 640h-338z" />
    <glyph glyph-name="eight" unicode="8" horiz-adv-x="608" 
d="M512 310.5q34 -46.5 34 -112.5q0 -65 -30.5 -113t-85.5 -73.5t-126 -25.5t-126 25.5t-85.5 73.5t-30.5 113q0 66 34 112.5t94 67.5q-49 20 -76 61t-27 96q0 54 27.5 97t77 67.5t112.5 24.5t112.5 -24.5t77.5 -67.5t28 -97q0 -55 -27 -96t-77 -61q60 -21 94 -67.5z
M202 623.5q-39 -33.5 -39 -91.5t38.5 -91.5t102.5 -33.5t102.5 33.5t38.5 91.5t-38.5 91.5t-102.5 33.5q-63 0 -102 -33.5zM424 92.5q45 39.5 45 107.5q0 67 -45 105.5t-120 38.5t-120 -38.5t-45 -105.5q0 -68 45.5 -107.5t119.5 -39.5q75 0 120 39.5z" />
    <glyph glyph-name="nine" unicode="9" horiz-adv-x="564" 
d="M405 694.5q54 -28.5 85 -80t31 -117.5q0 -50 -19 -99t-67 -112l-217 -286h-89l204 267q-33 -7 -59 -7q-65 0 -117 28.5t-81.5 80t-29.5 117.5q0 72 30.5 125.5t84.5 82.5t122 29t122 -28.5zM399 371.5q44 43.5 44 119.5q0 77 -44 120.5t-116 43.5t-115.5 -43.5
t-43.5 -120.5q0 -76 43.5 -119.5t115.5 -43.5t116 43.5z" />
    <glyph glyph-name="zero.zero" horiz-adv-x="619" 
d="M431.5 695q53.5 -30 84 -90t30.5 -147v-205q0 -87 -30.5 -146.5t-84.5 -89.5t-122 -30t-121.5 30t-84 89.5t-30.5 146.5v205q0 87 30.5 147t84 90t121.5 30q69 0 122.5 -30zM192.5 608.5q-43.5 -48.5 -43.5 -150.5v-152l319 190q-8 83 -50.5 122t-108.5 39
q-73 0 -116.5 -48.5zM426 103q44 48 44 151v168l-320 -191q5 -91 48 -133.5t111 -42.5q73 0 117 48z" />
    <glyph glyph-name="one.ss04" horiz-adv-x="389" 
d="M26 580v71l265 66v-717h-76v627z" />
    <glyph glyph-name="zero.tnum" horiz-adv-x="590" 
d="M173.5 17q-53.5 30 -84 89.5t-30.5 146.5v205q0 87 30.5 147t84 90t121.5 30q69 0 122.5 -30t84 -90t30.5 -147v-205q0 -87 -30.5 -146.5t-84.5 -89.5t-122 -30t-121.5 30zM412 103q44 48 44 151v204q0 103 -44 151t-117 48t-116.5 -48.5t-43.5 -150.5v-204
q0 -103 43.5 -151t116.5 -48t117 48z" />
    <glyph glyph-name="one.tnum" horiz-adv-x="590" 
d="M526 0h-425v70h179v570h-191v70h268v-640h169v-70z" />
    <glyph glyph-name="two.tnum" horiz-adv-x="590" 
d="M184 70h327v-70h-429v64l260 290q50 56 68.5 93.5t18.5 78.5q0 57 -36 94t-100 37q-69 0 -105.5 -39.5t-38.5 -106.5h-76q1 64 29 112.5t77.5 75t113.5 26.5q100 0 156 -54.5t56 -142.5q0 -52 -22 -100.5t-71 -103.5z" />
    <glyph glyph-name="three.tnum" horiz-adv-x="590" 
d="M288 423q107 -4 165 -57.5t58 -139.5v-29q0 -61 -28 -109t-78.5 -74.5t-116.5 -26.5q-63 0 -111.5 25t-76 68t-30.5 97h76q3 -52 41.5 -87t100.5 -35q66 0 106 38.5t40 103.5v29q0 62 -42.5 98t-123.5 36h-75v54l209 226h-317v70h416v-64z" />
    <glyph glyph-name="four.tnum" horiz-adv-x="590" 
d="M439 405v-168h106v-70h-106v-167h-76v167h-319v63l268 480h82l-264 -473h233v168h76z" />
    <glyph glyph-name="five.tnum" horiz-adv-x="590" 
d="M420.5 438q46.5 -26 73.5 -75t27 -116v-44q0 -64 -28 -113t-78.5 -76t-115.5 -27q-63 0 -111 24t-75.5 63.5t-31.5 86.5h76q5 -42 42.5 -74t99.5 -32q64 0 104.5 39.5t40.5 108.5v44q0 70 -40.5 109.5t-105.5 39.5q-56 0 -91 -26.5t-47 -68.5h-71v409h406v-70h-330v-247
q23 33 62.5 52t88.5 19q58 0 104.5 -26z" />
    <glyph glyph-name="six.tnum" horiz-adv-x="590" 
d="M419.5 421.5q51.5 -28.5 81 -80t29.5 -117.5q0 -72 -30.5 -125.5t-84 -82.5t-121.5 -29t-122 28.5t-85 80t-31 117.5q0 50 19 99t67 112l217 286h89l-205 -268q30 8 60 8q65 0 116.5 -28.5zM409 98.5q44 43.5 44 120.5q0 76 -44 119.5t-116 43.5t-115.5 -43.5
t-43.5 -119.5q0 -77 43.5 -120.5t115.5 -43.5t116 43.5z" />
    <glyph glyph-name="seven.tnum" horiz-adv-x="590" 
d="M86 640v70h421v-64l-263 -646h-83l263 640h-338z" />
    <glyph glyph-name="eight.tnum" horiz-adv-x="590" 
d="M503 310.5q34 -46.5 34 -112.5q0 -65 -30.5 -113t-85.5 -73.5t-126 -25.5t-126 25.5t-85.5 73.5t-30.5 113q0 66 34 112.5t94 67.5q-49 20 -76 61t-27 96q0 54 27.5 97t77 67.5t112.5 24.5t112.5 -24.5t77.5 -67.5t28 -97q0 -55 -27 -96t-77 -61q60 -21 94 -67.5z
M193 623.5q-39 -33.5 -39 -91.5t38.5 -91.5t102.5 -33.5t102.5 33.5t38.5 91.5t-38.5 91.5t-102.5 33.5q-63 0 -102 -33.5zM415 92.5q45 39.5 45 107.5q0 67 -45 105.5t-120 38.5t-120 -38.5t-45 -105.5q0 -68 45.5 -107.5t119.5 -39.5q75 0 120 39.5z" />
    <glyph glyph-name="nine.tnum" horiz-adv-x="590" 
d="M418 694.5q54 -28.5 85 -80t31 -117.5q0 -50 -19 -99t-67 -112l-217 -286h-89l204 267q-33 -7 -59 -7q-65 0 -117 28.5t-81.5 80t-29.5 117.5q0 72 30.5 125.5t84.5 82.5t122 29t122 -28.5zM412 371.5q44 43.5 44 119.5q0 77 -44 120.5t-116 43.5t-115.5 -43.5
t-43.5 -120.5q0 -76 43.5 -119.5t115.5 -43.5t116 43.5z" />
    <glyph glyph-name="one.tnum.ss04" horiz-adv-x="590" 
d="M112 573v71l294 73v-717h-76v627z" />
    <glyph glyph-name="zero.tnum.zero" horiz-adv-x="590" 
d="M417.5 695q53.5 -30 84 -90t30.5 -147v-205q0 -87 -30.5 -146.5t-84.5 -89.5t-122 -30t-121.5 30t-84 89.5t-30.5 146.5v205q0 87 30.5 147t84 90t121.5 30q69 0 122.5 -30zM178.5 608.5q-43.5 -48.5 -43.5 -150.5v-152l319 190q-8 83 -50.5 122t-108.5 39
q-73 0 -116.5 -48.5zM412 103q44 48 44 151v168l-320 -191q5 -91 48 -133.5t111 -42.5q73 0 117 48z" />
    <glyph glyph-name="uni2080" unicode="&#x2080;" horiz-adv-x="320" 
d="M76 -138.5q-33 33.5 -33 96.5v84q0 63 33 96.5t84 33.5t84 -33.5t33 -96.5v-84q0 -63 -33 -96.5t-84 -33.5t-84 33.5zM205 -104.5q17 19.5 17 62.5v84q0 43 -17 62.5t-45 19.5t-45 -19.5t-17 -62.5v-84q0 -43 17 -62.5t45 -19.5t45 19.5z" />
    <glyph glyph-name="uni2081" unicode="&#x2081;" horiz-adv-x="255" 
d="M230 -165h-187v50h67v231h-73v50h129v-281h64v-50z" />
    <glyph glyph-name="uni2082" unicode="&#x2082;" horiz-adv-x="304" 
d="M111 -115h154v-50h-221v46l124 128q21 21 29.5 35.5t8.5 33.5t-14.5 32.5t-39.5 13.5q-29 0 -44 -15t-17 -40h-55q1 49 33 76t84 27q51 0 79.5 -26.5t28.5 -62.5q0 -30 -14 -54t-55 -64z" />
    <glyph glyph-name="uni2083" unicode="&#x2083;" horiz-adv-x="297" 
d="M150 27q50 0 80 -24t30 -61v-16q0 -43 -31 -70.5t-81 -27.5q-49 0 -79.5 25t-32.5 71h55q3 -23 17.5 -35.5t39.5 -12.5t41 14.5t16 36.5v10q0 22 -17 35.5t-48 13.5h-51v42l94 87h-140v51h206v-46l-100 -93h1z" />
    <glyph glyph-name="uni2084" unicode="&#x2084;" horiz-adv-x="309" 
d="M229 20v-62h52v-51h-52v-72h-55v72h-146v46l123 212h63l-122 -207h82v62h55z" />
    <glyph glyph-name="uni2085" unicode="&#x2085;" horiz-adv-x="303" 
d="M237.5 32.5q27.5 -28.5 27.5 -75.5v-22q0 -50 -30.5 -78.5t-80.5 -28.5q-49 0 -79 23.5t-34 67.5h56q7 -43 56 -43q27 0 42 15t15 43v23q0 27 -14.5 41.5t-40.5 14.5q-22 0 -35.5 -9.5t-21.5 -28.5h-51v191h206v-51h-153v-87q25 33 70 33q40 0 67.5 -28.5z" />
    <glyph glyph-name="uni2086" unicode="&#x2086;" horiz-adv-x="306" 
d="M241.5 25.5q33.5 -29.5 33.5 -80.5q0 -55 -34 -86t-87 -31q-55 0 -88.5 31t-33.5 85q0 30 11 54.5t38 57.5l89 110h64l-94 -113q14 2 22 2q46 0 79.5 -29.5zM202 -105q18 18 18 50q0 30 -18 48t-49 18t-49 -18t-18 -49t18 -49t49 -18t49 18z" />
    <glyph glyph-name="uni2087" unicode="&#x2087;" horiz-adv-x="280" 
d="M28 115v50h226v-44l-139 -286h-59l138 280h-166z" />
    <glyph glyph-name="uni2088" unicode="&#x2088;" horiz-adv-x="328" 
d="M275.5 -23q15.5 -21 15.5 -50q0 -46 -35.5 -73t-91.5 -27t-91.5 27t-35.5 73q0 28 16 49.5t45 32.5q-23 10 -35 29t-12 43q0 40 31.5 65t81.5 25t81.5 -25t31.5 -65q0 -24 -12 -43t-35 -29q30 -11 45.5 -32zM122 109.5q-16 -12.5 -16 -33.5q0 -23 16 -35t42 -12
q27 0 42.5 12t15.5 35q0 21 -16 33.5t-42 12.5t-42 -12.5zM216.5 -109q19.5 15 19.5 42t-20 43t-52 16t-52 -16t-20 -43t19.5 -42t52.5 -15t52.5 15z" />
    <glyph glyph-name="uni2089" unicode="&#x2089;" horiz-adv-x="306" 
d="M240.5 141.5q33.5 -30.5 33.5 -84.5q0 -30 -11 -54.5t-38 -57.5l-89 -110h-63l94 113q-14 -2 -23 -2q-45 0 -79 29.5t-34 80.5q0 55 34 85.5t88 30.5t87.5 -30.5zM202 8q18 18 18 49t-18 49t-49 18t-49 -18.5t-18 -49.5t18 -48.5t49 -17.5t49 18z" />
    <glyph glyph-name="zero.dnom" horiz-adv-x="320" 
d="M76 26.5q-33 33.5 -33 96.5v84q0 63 33 96.5t84 33.5t84 -33.5t33 -96.5v-84q0 -63 -33 -96.5t-84 -33.5t-84 33.5zM205 60.5q17 19.5 17 62.5v84q0 43 -17 62.5t-45 19.5t-45 -19.5t-17 -62.5v-84q0 -43 17 -62.5t45 -19.5t45 19.5z" />
    <glyph glyph-name="one.dnom" horiz-adv-x="255" 
d="M230 0h-187v50h67v231h-73v50h129v-281h64v-50z" />
    <glyph glyph-name="two.dnom" horiz-adv-x="304" 
d="M111 50h154v-50h-221v46l124 128q21 21 29.5 35.5t8.5 33.5t-14.5 32.5t-39.5 13.5q-29 0 -44 -15t-17 -40h-55q1 49 33 76t84 27q51 0 79.5 -26.5t28.5 -62.5q0 -30 -14 -54t-55 -64z" />
    <glyph glyph-name="three.dnom" horiz-adv-x="297" 
d="M150 192q50 0 80 -24t30 -61v-16q0 -43 -31 -70.5t-81 -27.5q-49 0 -79.5 25t-32.5 71h55q3 -23 17.5 -35.5t39.5 -12.5t41 14.5t16 36.5v10q0 22 -17 35.5t-48 13.5h-51v42l94 87h-140v51h206v-46l-100 -93h1z" />
    <glyph glyph-name="four.dnom" horiz-adv-x="309" 
d="M229 185v-62h52v-51h-52v-72h-55v72h-146v46l123 212h63l-122 -207h82v62h55z" />
    <glyph glyph-name="five.dnom" horiz-adv-x="303" 
d="M237.5 197.5q27.5 -28.5 27.5 -75.5v-22q0 -50 -30.5 -78.5t-80.5 -28.5q-49 0 -79 23.5t-34 67.5h56q7 -43 56 -43q27 0 42 15t15 43v23q0 27 -14.5 41.5t-40.5 14.5q-22 0 -35.5 -9.5t-21.5 -28.5h-51v191h206v-51h-153v-87q25 33 70 33q40 0 67.5 -28.5z" />
    <glyph glyph-name="six.dnom" horiz-adv-x="306" 
d="M241.5 190.5q33.5 -29.5 33.5 -80.5q0 -55 -34 -86t-87 -31q-55 0 -88.5 31t-33.5 85q0 30 11 54.5t38 57.5l89 110h64l-94 -113q14 2 22 2q46 0 79.5 -29.5zM202 60q18 18 18 50q0 30 -18 48t-49 18t-49 -18t-18 -49t18 -49t49 -18t49 18z" />
    <glyph glyph-name="seven.dnom" horiz-adv-x="280" 
d="M28 280v50h226v-44l-139 -286h-59l138 280h-166z" />
    <glyph glyph-name="eight.dnom" horiz-adv-x="328" 
d="M275.5 142q15.5 -21 15.5 -50q0 -46 -35.5 -73t-91.5 -27t-91.5 27t-35.5 73q0 28 16 49.5t45 32.5q-23 10 -35 29t-12 43q0 40 31.5 65t81.5 25t81.5 -25t31.5 -65q0 -24 -12 -43t-35 -29q30 -11 45.5 -32zM122 274.5q-16 -12.5 -16 -33.5q0 -23 16 -35t42 -12
q27 0 42.5 12t15.5 35q0 21 -16 33.5t-42 12.5t-42 -12.5zM216.5 56q19.5 15 19.5 42t-20 43t-52 16t-52 -16t-20 -43t19.5 -42t52.5 -15t52.5 15z" />
    <glyph glyph-name="nine.dnom" horiz-adv-x="306" 
d="M240.5 306.5q33.5 -30.5 33.5 -84.5q0 -30 -11 -54.5t-38 -57.5l-89 -110h-63l94 113q-14 -2 -23 -2q-45 0 -79 29.5t-34 80.5q0 55 34 85.5t88 30.5t87.5 -30.5zM202 173q18 18 18 49t-18 49t-49 18t-49 -18.5t-18 -49.5t18 -48.5t49 -17.5t49 18z" />
    <glyph glyph-name="zero.numr" horiz-adv-x="320" 
d="M76 405.5q-33 33.5 -33 96.5v84q0 63 33 96.5t84 33.5t84 -33.5t33 -96.5v-84q0 -63 -33 -96.5t-84 -33.5t-84 33.5zM205 439.5q17 19.5 17 62.5v84q0 43 -17 62.5t-45 19.5t-45 -19.5t-17 -62.5v-84q0 -43 17 -62.5t45 -19.5t45 19.5z" />
    <glyph glyph-name="one.numr" horiz-adv-x="255" 
d="M230 379h-187v50h67v231h-73v50h129v-281h64v-50z" />
    <glyph glyph-name="two.numr" horiz-adv-x="304" 
d="M111 429h154v-50h-221v46l124 128q21 21 29.5 35.5t8.5 33.5t-14.5 32.5t-39.5 13.5q-29 0 -44 -15t-17 -40h-55q1 49 33 76t84 27q51 0 79.5 -26.5t28.5 -62.5q0 -30 -14 -54t-55 -64z" />
    <glyph glyph-name="three.numr" horiz-adv-x="297" 
d="M150 571q50 0 80 -24t30 -61v-16q0 -43 -31 -70.5t-81 -27.5q-49 0 -79.5 25t-32.5 71h55q3 -23 17.5 -35.5t39.5 -12.5t41 14.5t16 36.5v10q0 22 -17 35.5t-48 13.5h-51v42l94 87h-140v51h206v-46l-100 -93h1z" />
    <glyph glyph-name="four.numr" horiz-adv-x="309" 
d="M229 564v-62h52v-51h-52v-72h-55v72h-146v46l123 212h63l-122 -207h82v62h55z" />
    <glyph glyph-name="five.numr" horiz-adv-x="303" 
d="M237.5 576.5q27.5 -28.5 27.5 -75.5v-22q0 -50 -30.5 -78.5t-80.5 -28.5q-49 0 -79 23.5t-34 67.5h56q7 -43 56 -43q27 0 42 15t15 43v23q0 27 -14.5 41.5t-40.5 14.5q-22 0 -35.5 -9.5t-21.5 -28.5h-51v191h206v-51h-153v-87q25 33 70 33q40 0 67.5 -28.5z" />
    <glyph glyph-name="six.numr" horiz-adv-x="306" 
d="M241.5 569.5q33.5 -29.5 33.5 -80.5q0 -55 -34 -86t-87 -31q-55 0 -88.5 31t-33.5 85q0 30 11 54.5t38 57.5l89 110h64l-94 -113q14 2 22 2q46 0 79.5 -29.5zM202 439q18 18 18 50q0 30 -18 48t-49 18t-49 -18t-18 -49t18 -49t49 -18t49 18z" />
    <glyph glyph-name="seven.numr" horiz-adv-x="280" 
d="M28 659v50h226v-44l-139 -286h-59l138 280h-166z" />
    <glyph glyph-name="eight.numr" horiz-adv-x="328" 
d="M275.5 521q15.5 -21 15.5 -50q0 -46 -35.5 -73t-91.5 -27t-91.5 27t-35.5 73q0 28 16 49.5t45 32.5q-23 10 -35 29t-12 43q0 40 31.5 65t81.5 25t81.5 -25t31.5 -65q0 -24 -12 -43t-35 -29q30 -11 45.5 -32zM122 653.5q-16 -12.5 -16 -33.5q0 -23 16 -35t42 -12
q27 0 42.5 12t15.5 35q0 21 -16 33.5t-42 12.5t-42 -12.5zM216.5 435q19.5 15 19.5 42t-20 43t-52 16t-52 -16t-20 -43t19.5 -42t52.5 -15t52.5 15z" />
    <glyph glyph-name="nine.numr" horiz-adv-x="306" 
d="M240.5 685.5q33.5 -30.5 33.5 -84.5q0 -30 -11 -54.5t-38 -57.5l-89 -110h-63l94 113q-14 -2 -23 -2q-45 0 -79 29.5t-34 80.5q0 55 34 85.5t88 30.5t87.5 -30.5zM202 552q18 18 18 49t-18 49t-49 18t-49 -18.5t-18 -49.5t18 -48.5t49 -17.5t49 18z" />
    <glyph glyph-name="uni2070" unicode="&#x2070;" horiz-adv-x="320" 
d="M76 405.5q-33 33.5 -33 96.5v84q0 63 33 96.5t84 33.5t84 -33.5t33 -96.5v-84q0 -63 -33 -96.5t-84 -33.5t-84 33.5zM205 439.5q17 19.5 17 62.5v84q0 43 -17 62.5t-45 19.5t-45 -19.5t-17 -62.5v-84q0 -43 17 -62.5t45 -19.5t45 19.5z" />
    <glyph glyph-name="uni00B9" unicode="&#xb9;" horiz-adv-x="255" 
d="M230 379h-187v50h67v231h-73v50h129v-281h64v-50z" />
    <glyph glyph-name="uni00B2" unicode="&#xb2;" horiz-adv-x="304" 
d="M111 429h154v-50h-221v46l124 128q21 21 29.5 35.5t8.5 33.5t-14.5 32.5t-39.5 13.5q-29 0 -44 -15t-17 -40h-55q1 49 33 76t84 27q51 0 79.5 -26.5t28.5 -62.5q0 -30 -14 -54t-55 -64z" />
    <glyph glyph-name="uni00B3" unicode="&#xb3;" horiz-adv-x="297" 
d="M150 571q50 0 80 -24t30 -61v-16q0 -43 -31 -70.5t-81 -27.5q-49 0 -79.5 25t-32.5 71h55q3 -23 17.5 -35.5t39.5 -12.5t41 14.5t16 36.5v10q0 22 -17 35.5t-48 13.5h-51v42l94 87h-140v51h206v-46l-100 -93h1z" />
    <glyph glyph-name="uni2074" unicode="&#x2074;" horiz-adv-x="309" 
d="M229 564v-62h52v-51h-52v-72h-55v72h-146v46l123 212h63l-122 -207h82v62h55z" />
    <glyph glyph-name="uni2075" unicode="&#x2075;" horiz-adv-x="303" 
d="M237.5 576.5q27.5 -28.5 27.5 -75.5v-22q0 -50 -30.5 -78.5t-80.5 -28.5q-49 0 -79 23.5t-34 67.5h56q7 -43 56 -43q27 0 42 15t15 43v23q0 27 -14.5 41.5t-40.5 14.5q-22 0 -35.5 -9.5t-21.5 -28.5h-51v191h206v-51h-153v-87q25 33 70 33q40 0 67.5 -28.5z" />
    <glyph glyph-name="uni2076" unicode="&#x2076;" horiz-adv-x="306" 
d="M241.5 569.5q33.5 -29.5 33.5 -80.5q0 -55 -34 -86t-87 -31q-55 0 -88.5 31t-33.5 85q0 30 11 54.5t38 57.5l89 110h64l-94 -113q14 2 22 2q46 0 79.5 -29.5zM202 439q18 18 18 50q0 30 -18 48t-49 18t-49 -18t-18 -49t18 -49t49 -18t49 18z" />
    <glyph glyph-name="uni2077" unicode="&#x2077;" horiz-adv-x="280" 
d="M28 659v50h226v-44l-139 -286h-59l138 280h-166z" />
    <glyph glyph-name="uni2078" unicode="&#x2078;" horiz-adv-x="328" 
d="M275.5 521q15.5 -21 15.5 -50q0 -46 -35.5 -73t-91.5 -27t-91.5 27t-35.5 73q0 28 16 49.5t45 32.5q-23 10 -35 29t-12 43q0 40 31.5 65t81.5 25t81.5 -25t31.5 -65q0 -24 -12 -43t-35 -29q30 -11 45.5 -32zM122 653.5q-16 -12.5 -16 -33.5q0 -23 16 -35t42 -12
q27 0 42.5 12t15.5 35q0 21 -16 33.5t-42 12.5t-42 -12.5zM216.5 435q19.5 15 19.5 42t-20 43t-52 16t-52 -16t-20 -43t19.5 -42t52.5 -15t52.5 15z" />
    <glyph glyph-name="uni2079" unicode="&#x2079;" horiz-adv-x="306" 
d="M240.5 685.5q33.5 -30.5 33.5 -84.5q0 -30 -11 -54.5t-38 -57.5l-89 -110h-63l94 113q-14 -2 -23 -2q-45 0 -79 29.5t-34 80.5q0 55 34 85.5t88 30.5t87.5 -30.5zM202 552q18 18 18 49t-18 49t-49 18t-49 -18.5t-18 -49.5t18 -48.5t49 -17.5t49 18z" />
    <glyph glyph-name="uni2081.aalt" horiz-adv-x="230" 
d="M25 94v50l150 25v-334h-55v275z" />
    <glyph glyph-name="one.dnom.ss04" horiz-adv-x="230" 
d="M25 259v50l150 25v-334h-55v275z" />
    <glyph glyph-name="one.numr.ss04" horiz-adv-x="230" 
d="M25 638v50l150 25v-334h-55v275z" />
    <glyph glyph-name="uni00B9.aalt" horiz-adv-x="230" 
d="M25 638v50l150 25v-334h-55v275z" />
    <glyph glyph-name="onehalf.aalt" horiz-adv-x="688" 
d="M25 638v50l150 25v-334h-55v275zM109 0h-64l464 710h65zM496 50h154v-50h-221v46l124 128q21 21 29.5 35.5t8.5 33.5t-14.5 32.5t-39.5 13.5q-29 0 -44 -15t-17 -40h-55q1 49 33 76t84 27q51 0 79.5 -26.5t28.5 -62.5q0 -30 -14 -54t-55 -64z" />
    <glyph glyph-name="onethird.aalt" horiz-adv-x="681" 
d="M25 638v50l150 25v-334h-55v275zM109 0h-64l464 710h65zM535 192q50 0 80 -24t30 -61v-16q0 -43 -31 -70.5t-81 -27.5q-49 0 -79.5 25t-32.5 71h55q3 -23 17.5 -35.5t39.5 -12.5t41 14.5t16 36.5v10q0 22 -17 35.5t-48 13.5h-51v42l94 87h-140v51h206v-46l-100 -93h1z
" />
    <glyph glyph-name="onequarter.aalt" horiz-adv-x="666" 
d="M25 638v50l150 25v-334h-55v275zM109 0h-64l464 710h65zM586 185v-62h52v-51h-52v-72h-55v72h-146v46l123 212h63l-122 -207h82v62h55z" />
    <glyph glyph-name="fraction" unicode="&#x2044;" horiz-adv-x="155" 
d="M-121 0h-64l464 710h65z" />
    <glyph glyph-name="onehalf" unicode="&#xbd;" horiz-adv-x="713" 
d="M230 379h-187v50h67v231h-73v50h129v-281h64v-50zM134 0h-64l464 710h65zM521 50h154v-50h-221v46l124 128q21 21 29.5 35.5t8.5 33.5t-14.5 32.5t-39.5 13.5q-29 0 -44 -15t-17 -40h-55q1 49 33 76t84 27q51 0 79.5 -26.5t28.5 -62.5q0 -30 -14 -54t-55 -64z" />
    <glyph glyph-name="onethird" unicode="&#x2153;" horiz-adv-x="706" 
d="M230 379h-187v50h67v231h-73v50h129v-281h64v-50zM134 0h-64l464 710h65zM560 192q50 0 80 -24t30 -61v-16q0 -43 -31 -70.5t-81 -27.5q-49 0 -79.5 25t-32.5 71h55q3 -23 17.5 -35.5t39.5 -12.5t41 14.5t16 36.5v10q0 22 -17 35.5t-48 13.5h-51v42l94 87h-140v51h206
v-46l-100 -93h1z" />
    <glyph glyph-name="twothirds" unicode="&#x2154;" horiz-adv-x="755" 
d="M111 429h154v-50h-221v46l124 128q21 21 29.5 35.5t8.5 33.5t-14.5 32.5t-39.5 13.5q-29 0 -44 -15t-17 -40h-55q1 49 33 76t84 27q51 0 79.5 -26.5t28.5 -62.5q0 -30 -14 -54t-55 -64zM183 0h-64l464 710h65zM609 192q50 0 80 -24t30 -61v-16q0 -43 -31 -70.5t-81 -27.5
q-49 0 -79.5 25t-32.5 71h55q3 -23 17.5 -35.5t39.5 -12.5t41 14.5t16 36.5v10q0 22 -17 35.5t-48 13.5h-51v42l94 87h-140v51h206v-46l-100 -93h1z" />
    <glyph glyph-name="onequarter" unicode="&#xbc;" horiz-adv-x="691" 
d="M230 379h-187v50h67v231h-73v50h129v-281h64v-50zM134 0h-64l464 710h65zM611 185v-62h52v-51h-52v-72h-55v72h-146v46l123 212h63l-122 -207h82v62h55z" />
    <glyph glyph-name="threequarters" unicode="&#xbe;" horiz-adv-x="733" 
d="M150 571q50 0 80 -24t30 -61v-16q0 -43 -31 -70.5t-81 -27.5q-49 0 -79.5 25t-32.5 71h55q3 -23 17.5 -35.5t39.5 -12.5t41 14.5t16 36.5v10q0 22 -17 35.5t-48 13.5h-51v42l94 87h-140v51h206v-46l-100 -93h1zM176 0h-64l464 710h65zM653 185v-62h52v-51h-52v-72h-55v72
h-146v46l123 212h63l-122 -207h82v62h55z" />
    <glyph glyph-name="period" unicode="." horiz-adv-x="255" 
d="M177 0h-99v102h99v-102z" />
    <glyph glyph-name="comma" unicode="," horiz-adv-x="253" 
d="M76 0v102h101v-93l-52 -153h-48l50 144h-51z" />
    <glyph glyph-name="colon" unicode=":" horiz-adv-x="257" 
d="M178 432h-99v102h99v-102zM178 0h-99v102h99v-102z" />
    <glyph glyph-name="semicolon" unicode=";" horiz-adv-x="265" 
d="M183 432h-99v102h99v-102zM82 0v102h101v-93l-52 -153h-48l50 144h-51z" />
    <glyph glyph-name="ellipsis" unicode="&#x2026;" horiz-adv-x="764" 
d="M432 0h-99v102h99v-102zM686 0h-99v102h99v-102zM177 0h-99v102h99v-102z" />
    <glyph glyph-name="exclam" unicode="!" horiz-adv-x="274" 
d="M166 226h-58l-17 484h92zM187 0h-99v102h99v-102z" />
    <glyph glyph-name="exclamdown" unicode="&#xa1;" horiz-adv-x="258" 
d="M80 431v102h99v-102h-99zM83 -177l18 485h57l17 -485h-92z" />
    <glyph glyph-name="question" unicode="?" horiz-adv-x="487" 
d="M192 226q0 57 26.5 93t77.5 73q33 24 49.5 51.5t16.5 62.5v33q0 54 -31.5 86t-91.5 32q-61 0 -93.5 -38.5t-34.5 -98.5h-75q3 91 57.5 148t145.5 57t145 -51t54 -134v-36q0 -61 -29.5 -100.5t-72.5 -70.5q-39 -28 -55.5 -50.5t-16.5 -56.5h-72zM278 0h-100v102h100v-102z
" />
    <glyph glyph-name="questiondown" unicode="&#xbf;" horiz-adv-x="479" 
d="M204 533h99v-102h-99v102zM289 308q0 -58 -26.5 -94.5t-77.5 -72.5q-33 -23 -49 -51t-16 -63v-32q0 -55 31 -86.5t92 -31.5t93.5 38t34.5 98h74q-3 -90 -57.5 -147t-144.5 -57q-91 0 -145 50.5t-54 133.5v36q0 102 102 171q39 28 55.5 50.5t16.5 57.5h71z" />
    <glyph glyph-name="periodcentered" unicode="&#xb7;" horiz-adv-x="257" 
d="M178 270h-99v102h99v-102z" />
    <glyph glyph-name="bullet" unicode="&#x2022;" horiz-adv-x="364" 
d="M263 243h-162v156h162v-156z" />
    <glyph glyph-name="asterisk" unicode="*" horiz-adv-x="492" 
d="M385 656l31 -52l-130 -63l130 -63l-31 -52l-118 80l9 -134h-60l10 134l-119 -80l-30 51l130 64l-130 63l30 52l119 -81l-10 135h60l-9 -135z" />
    <glyph glyph-name="numbersign" unicode="#" horiz-adv-x="628" 
d="M588 531l-9 -58h-100l-31 -198h98l-7 -59h-101l-34 -216h-64l34 216h-169l-34 -216h-64l34 216h-99l9 59h100l31 198h-99l9 58h100l28 179h64l-28 -179h169l28 179h64l-28 -179h99zM215 275h169l31 198h-169z" />
    <glyph glyph-name="slash" unicode="/" horiz-adv-x="570" 
d="M98 -85h-77l452 860h77z" />
    <glyph glyph-name="backslash" unicode="\" horiz-adv-x="570" 
d="M97 775l452 -860h-77l-452 860h77z" />
    <glyph glyph-name="exclamdown.aalt" horiz-adv-x="276" 
d="M89 608v102h99v-102h-99zM92 0l18 485h57l17 -485h-92z" />
    <glyph glyph-name="questiondown.aalt" horiz-adv-x="487" 
d="M208 710h99v-102h-99v102zM293 485q0 -58 -26.5 -94.5t-77.5 -72.5q-33 -23 -49 -51t-16 -63v-32q0 -55 31 -86.5t92 -31.5t93.5 38t34.5 98h74q-3 -90 -57.5 -147t-144.5 -57q-91 0 -145 50.5t-54 133.5v36q0 102 102 171q39 28 55.5 50.5t16.5 57.5h71z" />
    <glyph glyph-name="periodcentered.aalt" horiz-adv-x="261" 
d="M180 305h-99v102h99v-102z" />
    <glyph glyph-name="bullet.aalt" horiz-adv-x="364" 
d="M263 278h-162v156h162v-156z" />
    <glyph glyph-name="parenleft" unicode="(" horiz-adv-x="319" 
d="M278 -85q-72 0 -114 27.5t-61.5 91.5t-19.5 175v272q0 111 20 175t62 91.5t113 27.5v-65q-50 0 -76.5 -21t-37 -72t-10.5 -147v-250q0 -96 11 -147t37.5 -72t75.5 -21v-65z" />
    <glyph glyph-name="parenright" unicode=")" horiz-adv-x="319" 
d="M41 -20q49 0 75.5 21t37.5 72t11 147v250q0 96 -11 147t-37 72t-76 21v65q71 0 113 -27.5t62 -91.5t20 -175v-272q0 -111 -19.5 -175t-61.5 -91.5t-114 -27.5v65z" />
    <glyph glyph-name="braceleft" unicode="{" horiz-adv-x="334" 
d="M195 456q0 -51 -19.5 -76.5t-56.5 -34.5q38 -8 57 -34t19 -77v-164q0 -37 8.5 -56.5t25.5 -26.5t48 -7h14v-65h-18q-80 0 -114.5 32t-34.5 114v172q0 48 -18 64t-65 16h-11v65h11q48 0 65.5 16t17.5 63v172q0 82 34.5 114t114.5 32h18v-65h-14q-31 0 -48 -7t-25.5 -26.5
t-8.5 -56.5v-164z" />
    <glyph glyph-name="braceright" unicode="}" horiz-adv-x="334" 
d="M304 377v-65h-11q-48 0 -65 -16t-17 -63v-172q0 -82 -34.5 -114t-114.5 -32h-19v65h15q31 0 48 7t25 26.5t8 56.5v164q0 51 19.5 77t56.5 34q-38 8 -57 34t-19 77v164q0 37 -8 56.5t-25 26.5t-48 7h-15v65h19q80 0 114.5 -32t34.5 -114v-172q0 -48 17.5 -64t64.5 -16h11z
" />
    <glyph glyph-name="bracketleft" unicode="[" horiz-adv-x="333" 
d="M292 -85h-196v860h196v-65h-124v-730h124v-65z" />
    <glyph glyph-name="bracketright" unicode="]" horiz-adv-x="333" 
d="M41 775h195v-860h-195v65h124v730h-124v65z" />
    <glyph glyph-name="parenleft.aalt" horiz-adv-x="323" 
d="M280 -75q-72 0 -114 27.5t-61.5 91.5t-19.5 175v272q0 111 20 175t62 91.5t113 27.5v-65q-50 0 -76.5 -21t-37 -72t-10.5 -147v-250q0 -96 11 -147t37.5 -72t75.5 -21v-65z" />
    <glyph glyph-name="parenright.aalt" horiz-adv-x="323" 
d="M43 -10q49 0 75.5 21t37.5 72t11 147v250q0 96 -11 147t-37 72t-76 21v65q71 0 113 -27.5t62 -91.5t20 -175v-272q0 -111 -19.5 -175t-61.5 -91.5t-114 -27.5v65z" />
    <glyph glyph-name="braceleft.aalt" horiz-adv-x="337" 
d="M196 466q0 -51 -19.5 -76.5t-56.5 -34.5q38 -8 57 -34t19 -77v-164q0 -37 8.5 -56.5t25.5 -26.5t48 -7h14v-65h-18q-80 0 -114.5 32t-34.5 114v172q0 48 -18 64t-65 16h-11v65h11q48 0 65.5 16t17.5 63v172q0 82 34.5 114t114.5 32h18v-65h-14q-31 0 -48 -7t-25.5 -26.5
t-8.5 -56.5v-164z" />
    <glyph glyph-name="braceright.aalt" horiz-adv-x="337" 
d="M306 387v-65h-11q-48 0 -65 -16t-17 -63v-172q0 -82 -34.5 -114t-114.5 -32h-19v65h15q31 0 48 7t25 26.5t8 56.5v164q0 51 19.5 77t56.5 34q-38 8 -57 34t-19 77v164q0 37 -8 56.5t-25 26.5t-48 7h-15v65h19q80 0 114.5 -32t34.5 -114v-172q0 -48 17.5 -64t64.5 -16h11z
" />
    <glyph glyph-name="bracketleft.aalt" horiz-adv-x="336" 
d="M293 -75h-196v860h196v-65h-124v-730h124v-65z" />
    <glyph glyph-name="bracketright.aalt" horiz-adv-x="336" 
d="M43 785h195v-860h-195v65h124v730h-124v65z" />
    <glyph glyph-name="hyphen" unicode="-" horiz-adv-x="386" 
d="M312 286h-238v68h238v-68z" />
    <glyph glyph-name="uni00AD" unicode="&#xad;" horiz-adv-x="386" 
d="M312 286h-238v68h238v-68z" />
    <glyph glyph-name="endash" unicode="&#x2013;" horiz-adv-x="554" 
d="M483 288h-412v65h412v-65z" />
    <glyph glyph-name="emdash" unicode="&#x2014;" horiz-adv-x="674" 
d="M604 288h-533v65h533v-65z" />
    <glyph glyph-name="figuredash" unicode="&#x2012;" horiz-adv-x="590" 
d="M502 288h-414v65h414v-65z" />
    <glyph glyph-name="uni2015" unicode="&#x2015;" horiz-adv-x="674" 
d="M604 288h-533v65h533v-65z" />
    <glyph glyph-name="uni2010" unicode="&#x2010;" horiz-adv-x="386" 
d="M312 286h-238v68h238v-68z" />
    <glyph glyph-name="uni2011" unicode="&#x2011;" horiz-adv-x="386" 
d="M312 286h-238v68h238v-68z" />
    <glyph glyph-name="uni2E3A" unicode="&#x2e3a;" horiz-adv-x="1420" 
d="M0 639v67h1420v-67h-1420z" />
    <glyph glyph-name="underscore" unicode="_" horiz-adv-x="351" 
d="M351 -169h-351v68h351v-68z" />
    <glyph glyph-name="hyphen.aalt" horiz-adv-x="392" 
d="M315 321h-238v68h238v-68z" />
    <glyph glyph-name="uni00AD.aalt" horiz-adv-x="392" 
d="M315 321h-238v68h238v-68z" />
    <glyph glyph-name="endash.aalt" horiz-adv-x="563" 
d="M488 323h-412v65h412v-65z" />
    <glyph glyph-name="emdash.aalt" horiz-adv-x="684" 
d="M609 323h-533v65h533v-65z" />
    <glyph glyph-name="uni2015.aalt" horiz-adv-x="684" 
d="M609 323h-533v65h533v-65z" />
    <glyph glyph-name="uni2010.aalt" horiz-adv-x="392" 
d="M315 321h-238v68h238v-68z" />
    <glyph glyph-name="uni2011.aalt" horiz-adv-x="392" 
d="M315 321h-238v68h238v-68z" />
    <glyph glyph-name="quotesinglbase" unicode="&#x201a;" horiz-adv-x="253" 
d="M76 0v102h101v-93l-46 -135h-49l45 126h-51z" />
    <glyph glyph-name="quotedblbase" unicode="&#x201e;" horiz-adv-x="424" 
d="M126 0h-50v102h101v-92l-46 -135h-49zM248 0v102h100v-92l-46 -135h-48l44 125h-50z" />
    <glyph glyph-name="quotedblleft" unicode="&#x201c;" horiz-adv-x="417" 
d="M116 708h49l-44 -125h50v-102h-100v93zM336 708l-44 -125h51v-102h-101v93l46 134h48z" />
    <glyph glyph-name="quotedblright" unicode="&#x201d;" horiz-adv-x="408" 
d="M124 608h-50v102h101v-92l-46 -135h-49zM246 608v102h100v-92l-46 -135h-48l44 125h-50z" />
    <glyph glyph-name="quoteleft" unicode="&#x2018;" horiz-adv-x="247" 
d="M166 710l-44 -126h50v-101h-101v92l46 135h49z" />
    <glyph glyph-name="quoteright" unicode="&#x2019;" horiz-adv-x="237" 
d="M74 608v102h101v-92l-46 -135h-49l44 125h-50z" />
    <glyph glyph-name="quotereversed" unicode="&#x201b;" horiz-adv-x="237" 
d="M62 710h101v-102h-50l44 -125h-49l-46 135v92z" />
    <glyph glyph-name="uni201F" unicode="&#x201f;" horiz-adv-x="408" 
d="M108 483l-46 135v92h101v-102h-50l44 -125h-49zM233 710h101v-102h-50l44 -125h-49l-46 135v92z" />
    <glyph glyph-name="guillemotleft" unicode="&#xab;" horiz-adv-x="612" 
d="M45 320l216 217l46 -44l-176 -173l176 -173l-46 -46zM283 320l216 217l46 -44l-176 -173l176 -173l-46 -46z" />
    <glyph glyph-name="guillemotright" unicode="&#xbb;" horiz-adv-x="612" 
d="M328 320l-215 -217l-46 44l176 173l-176 173l46 46zM566 320l-215 -217l-46 44l176 173l-176 173l46 46z" />
    <glyph glyph-name="guilsinglleft" unicode="&#x2039;" horiz-adv-x="374" 
d="M45 320l216 217l46 -44l-176 -173l176 -173l-46 -46z" />
    <glyph glyph-name="guilsinglright" unicode="&#x203a;" horiz-adv-x="374" 
d="M328 320l-215 -217l-46 44l176 173l-176 173l46 46z" />
    <glyph glyph-name="uni2034" unicode="&#x2034;" horiz-adv-x="536" 
d="M289 456h-72l40 254h71zM439 456h-72l40 254h71zM139 456h-72l40 254h71z" />
    <glyph glyph-name="quotedbl" unicode="&#x22;" horiz-adv-x="399" 
d="M321 476h-71v234h71v-234zM150 476h-71v234h71v-234z" />
    <glyph glyph-name="quotesingle" unicode="'" horiz-adv-x="229" 
d="M150 476h-71v234h71v-234z" />
    <glyph glyph-name="guillemotleft.aalt" horiz-adv-x="621" 
d="M52 355l216 217l46 -44l-176 -173l176 -173l-46 -46zM290 355l216 217l46 -44l-176 -173l176 -173l-46 -46z" />
    <glyph glyph-name="guillemotright.aalt" horiz-adv-x="622" 
d="M332 355l-215 -217l-46 44l176 173l-176 173l46 46zM570 355l-215 -217l-46 44l176 173l-176 173l46 46z" />
    <glyph glyph-name="guilsinglleft.aalt" horiz-adv-x="383" 
d="M58 355l216 217l46 -44l-176 -173l176 -173l-46 -46z" />
    <glyph glyph-name="guilsinglright.aalt" horiz-adv-x="384" 
d="M332 355l-215 -217l-46 44l176 173l-176 173l46 46z" />
    <glyph glyph-name="uni2002" unicode="&#x2002;" horiz-adv-x="500" 
 />
    <glyph glyph-name="uni2007" unicode="&#x2007;" horiz-adv-x="590" 
 />
    <glyph glyph-name="uni2008" unicode="&#x2008;" horiz-adv-x="255" 
 />
    <glyph glyph-name="uni00A0" unicode="&#xa0;" horiz-adv-x="264" 
 />
    <glyph glyph-name="uni2009" unicode="&#x2009;" horiz-adv-x="125" 
 />
    <glyph glyph-name="uni200B" unicode="&#x200b;" horiz-adv-x="0" 
 />
    <glyph glyph-name="uniFEFF" unicode="&#xfeff;" horiz-adv-x="0" 
 />
    <glyph glyph-name="cent" unicode="&#xa2;" horiz-adv-x="590" 
d="M509 263q-4 -70 -51 -114t-129 -49v-100h-60v101q-88 10 -135 66t-47 149v77q0 95 47 151t135 66v100h60v-99q82 -6 128 -49.5t49 -112.5h-73q-3 40 -29.5 65.5t-76.5 30.5v-379q52 4 78.5 30.5t30.5 66.5h73zM160 318q0 -66 28 -104t83 -46v375q-55 -8 -83 -47t-28 -105
v-73z" />
    <glyph glyph-name="currency" unicode="&#xa4;" horiz-adv-x="590" 
d="M445 211l74 -69l-42 -44l-74 71q-47 -33 -109 -33q-61 0 -107 32l-75 -71l-41 46l74 66q-33 47 -33 111t33 110l-75 67l42 46l75 -71q46 32 107 32q62 0 108 -32l75 71l42 -45l-75 -68q33 -47 33 -110t-32 -109zM205.5 227q34.5 -34 88.5 -34q55 0 89.5 34t34.5 93
t-34.5 93t-89.5 34q-54 0 -88.5 -34t-34.5 -93t34.5 -93z" />
    <glyph glyph-name="dollar" unicode="$" horiz-adv-x="590" 
d="M468.5 46q-57.5 -52 -144.5 -60v-106h-60v106q-94 8 -146.5 63.5t-54.5 145.5h75q2 -62 32 -97.5t94 -42.5v281q-94 30 -141 78.5t-47 130.5q0 74 51.5 123t136.5 56v106h60v-107q91 -8 139.5 -60.5t50.5 -140.5h-75q-2 59 -28.5 92.5t-86.5 40.5v-261l5 -2
q101 -31 149 -81t48 -133q0 -80 -57.5 -132zM178 470.5q26 -30.5 86 -55.5v241q-52 -6 -82 -34.5t-30 -75.5q0 -45 26 -75.5zM324 54q59 6 92 37.5t33 86.5q0 50 -28 81t-97 57v-262z" />
    <glyph glyph-name="Euro" unicode="&#x20ac;" horiz-adv-x="590" 
d="M427 90.5q30 35.5 34 109.5h76q-3 -102 -55.5 -157.5t-147.5 -55.5q-96 0 -154 60.5t-58 177.5v45h-78v57h78v76h-78v57h78v25q0 117 58 177.5t154 60.5q93 0 146.5 -52.5t56.5 -143.5h-76q-8 128 -127 128q-136 0 -136 -170v-25h210v-57h-210v-76h210v-57h-210v-45
q0 -170 136 -170q63 0 93 35.5z" />
    <glyph glyph-name="florin" unicode="&#x192;" horiz-adv-x="590" 
d="M431 645q-49 0 -74 -24.5t-25 -76.5v-150h135v-57h-135v-180q0 -74 -42.5 -115.5t-117.5 -41.5h-54v65h42q50 0 75 24.5t25 76.5v171h-135v57h135v159q0 74 42.5 115.5t117.5 41.5h54v-65h-43z" />
    <glyph glyph-name="uni20B4" unicode="&#x20b4;" horiz-adv-x="590" 
d="M552 460v-57h-515v57h347q39 36 39 88q0 49 -35 78t-89 29q-57 0 -92 -27.5t-41 -79.5h-75q7 79 62.5 127t145.5 48q58 0 103.5 -21.5t71.5 -59.5t26 -86q0 -54 -33 -96h85zM37 270v57h515v-57h-343q-50 -40 -50 -98q0 -53 39 -85t98 -32q57 0 96 29.5t47 83.5h76
q-8 -87 -69.5 -134t-149.5 -47q-59 0 -108 21.5t-77 61.5t-28 94q0 63 42 106h-88z" />
    <glyph glyph-name="uni20BA" unicode="&#x20ba;" horiz-adv-x="590" 
d="M533 221q0 -221 -223 -221h-144v240l-94 -26v59l94 26v78l-94 -26v60l94 26v273h76v-252l191 53v-59l-191 -53v-78l191 53v-60l-191 -53v-192h68q81 0 114 36t35 116h74z" />
    <glyph glyph-name="uni20BC" unicode="&#x20bc;" horiz-adv-x="590" 
d="M328 721q80 -10 129.5 -64t49.5 -140v-517h-70v517q0 60 -29.5 96.5t-79.5 45.5v-659h-60v660q-52 -8 -83.5 -44.5t-31.5 -98.5v-517h-70v517q0 88 51 142.5t134 62.5v108h60v-109z" />
    <glyph glyph-name="uni20BD" unicode="&#x20bd;" horiz-adv-x="590" 
d="M207 319v-77h201v-57h-201v-185h-75v185h-77v57h77v75h-77v57h77v336h184q108 0 170 -53t62 -146q0 -91 -62.5 -141.5t-174.5 -50.5h-104zM207 642v-268h109q74 0 115.5 32.5t41.5 98.5q0 69 -41.5 103t-115.5 34h-109z" />
    <glyph glyph-name="sterling" unicode="&#xa3;" horiz-adv-x="590" 
d="M231 70h299v-70h-469v70h94v222h-94v57h94v172q0 98 47.5 150t133.5 52q87 0 133 -51t48 -145h-76q-2 67 -27.5 97.5t-78.5 30.5q-52 0 -78 -31.5t-26 -102.5v-172h170v-57h-170v-222z" />
    <glyph glyph-name="uni20B8" unicode="&#x20b8;" horiz-adv-x="590" 
d="M59 653v57h473v-57h-473zM257 520h-198v58h473v-58h-199v-520h-76v520z" />
    <glyph glyph-name="uni20AE" unicode="&#x20ae;" horiz-adv-x="590" 
d="M534 710v-70h-199v-183l143 40v-60l-143 -40v-77l143 40v-60l-143 -40v-260h-76v239l-142 -40v60l142 40v77l-142 -39v59l142 40v204h-199v70h474z" />
    <glyph glyph-name="yen" unicode="&#xa5;" horiz-adv-x="590" 
d="M546 710l-212 -331v-29h144v-57h-144v-91h144v-57h-144v-145h-76v145h-146v57h146v91h-146v57h146v26l-213 334h90l162 -255l162 255h87z" />
    <glyph glyph-name="equivalence" unicode="&#x2261;" horiz-adv-x="540" 
d="M91 432v59h359v-59h-359zM91 291v58h359v-58h-359zM91 149v59h359v-59h-359z" />
    <glyph glyph-name="uni2259" unicode="&#x2259;" horiz-adv-x="540" 
d="M352 534l-83 102l-83 -102h-69l128 158h48l129 -158h-70zM91 375v58h359v-58h-359zM450 207h-359v58h359v-58z" />
    <glyph glyph-name="uni226B" unicode="&#x226b;" horiz-adv-x="655" 
d="M77 539l264 -195v-48l-264 -195v71l199 148l-199 148v71zM334 468v71l263 -195v-48l-263 -195v71l199 148z" />
    <glyph glyph-name="uni226A" unicode="&#x226a;" horiz-adv-x="655" 
d="M321 539v-71l-199 -148l199 -148v-71l-264 195v48zM314 344l263 195v-71l-199 -148l199 -148v-71l-263 195v48z" />
    <glyph glyph-name="plus" unicode="+" horiz-adv-x="540" 
d="M300 349h153v-58h-153v-159h-60v159h-153v58h153v160h60v-160z" />
    <glyph glyph-name="minus" unicode="&#x2212;" horiz-adv-x="540" 
d="M453 291h-366v58h366v-58z" />
    <glyph glyph-name="multiply" unicode="&#xd7;" horiz-adv-x="540" 
d="M415 502l40 -43l-142 -138l142 -138l-40 -43l-144 140l-145 -140l-40 43l142 138l-142 138l40 43l145 -140z" />
    <glyph glyph-name="divide" unicode="&#xf7;" horiz-adv-x="540" 
d="M312 424h-85v91h85v-91zM457 291h-374v58h374v-58zM312 127h-85v91h85v-91z" />
    <glyph glyph-name="equal" unicode="=" horiz-adv-x="540" 
d="M450 375h-359v58h359v-58zM450 207h-359v58h359v-58z" />
    <glyph glyph-name="notequal" unicode="&#x2260;" horiz-adv-x="540" 
d="M449 433v-58h-125l-45 -110h170v-58h-194l-47 -113h-63l47 113h-102v58h126l46 110h-172v58h196l47 113h62l-47 -113h101z" />
    <glyph glyph-name="greater" unicode="&#x3e;" horiz-adv-x="540" 
d="M110 442v66l348 -164v-48l-348 -164v66l268 122z" />
    <glyph glyph-name="less" unicode="&#x3c;" horiz-adv-x="540" 
d="M82 344l348 164v-66l-268 -122l268 -122v-66l-348 164v48z" />
    <glyph glyph-name="greaterequal" unicode="&#x2265;" horiz-adv-x="540" 
d="M448 346l-352 -147v67l270 103l-270 103v68l352 -147v-47zM449 105h-353v58h353v-58z" />
    <glyph glyph-name="lessequal" unicode="&#x2264;" horiz-adv-x="540" 
d="M444 266v-67l-352 147v47l352 147v-68l-270 -102zM444 105h-353v58h353v-58z" />
    <glyph glyph-name="plusminus" unicode="&#xb1;" horiz-adv-x="540" 
d="M300 525v-137h154v-59h-154v-109h-59v109h-154v59h154v137h59zM454 105h-367v58h367v-58z" />
    <glyph glyph-name="approxequal" unicode="&#x2248;" horiz-adv-x="540" 
d="M78 176q1 68 24.5 102t74.5 34q33 0 56.5 -12t57.5 -36q24 -18 39.5 -26.5t32.5 -8.5q22 0 32.5 18t11.5 60h58q-1 -68 -24.5 -102.5t-74.5 -34.5q-32 0 -55.5 11.5t-57.5 36.5q-23 19 -39 27.5t-34 8.5q-22 0 -32.5 -18t-11.5 -60h-58zM78 346q1 68 24.5 102t74.5 34
q33 0 56.5 -12t57.5 -36q24 -18 39.5 -26.5t32.5 -8.5q22 0 32.5 18t11.5 60h58q-1 -68 -24.5 -102.5t-74.5 -34.5q-32 0 -55.5 11.5t-57.5 36.5q-23 19 -39 27.5t-34 8.5q-22 0 -32.5 -18t-11.5 -60h-58z" />
    <glyph glyph-name="asciitilde" unicode="~" horiz-adv-x="540" 
d="M78 257q1 68 24.5 102t74.5 34q33 0 56.5 -12t57.5 -36q24 -18 39.5 -26.5t32.5 -8.5q22 0 32.5 18t11.5 60h58q-1 -68 -24.5 -102.5t-74.5 -34.5q-32 0 -55.5 11.5t-57.5 36.5q-23 19 -39 27.5t-34 8.5q-22 0 -32.5 -18t-11.5 -60h-58z" />
    <glyph glyph-name="logicalnot" unicode="&#xac;" horiz-adv-x="540" 
d="M82 349h374v-184h-59v126h-315v58z" />
    <glyph glyph-name="asciicircum" unicode="^" horiz-adv-x="540" 
d="M124 397h-67l190 313h48l189 -313h-68l-146 241z" />
    <glyph glyph-name="emptyset" unicode="&#x2205;" horiz-adv-x="590" 
d="M534 511l-63 -62q40 -54 40 -129q0 -62 -27.5 -110.5t-76.5 -75t-111 -26.5q-76 0 -133 41l-63 -62l-42 42l63 62q-40 54 -40 129q0 62 28 110.5t77 75t110 26.5q76 0 133 -41l63 62zM165 233l221 216q-39 25 -90 25q-68 0 -111 -42t-43 -112q0 -50 23 -87zM427 406
l-221 -215q39 -25 90 -25q68 0 110.5 42t42.5 112q0 50 -22 86z" />
    <glyph glyph-name="infinity" unicode="&#x221e;" horiz-adv-x="825" 
d="M684.5 469.5q36.5 -22.5 57 -61.5t20.5 -88t-20.5 -88t-57 -61.5t-81.5 -22.5q-51 0 -93 30.5t-97 97.5q-56 -67 -98 -97.5t-93 -30.5q-45 0 -81.5 22.5t-57 61.5t-20.5 88t20.5 88t57 61.5t81.5 22.5q51 0 93 -30.5t98 -97.5q55 67 97 97.5t93 30.5q45 0 81.5 -22.5z
M289 229q31 23 87 91q-56 68 -87 91t-65 23q-44 0 -71.5 -32t-27.5 -82t27.5 -82t71.5 -32q34 0 65 23zM672.5 238q27.5 32 27.5 82t-27.5 82t-71.5 32q-34 0 -65 -23t-87 -91q56 -68 87 -91t65 -23q44 0 71.5 32z" />
    <glyph glyph-name="integral" unicode="&#x222b;" horiz-adv-x="328" 
d="M21 -168v65h16q50 0 71 19.5t21 70.5v577q0 72 38.5 109t112.5 37h29v-65h-16q-50 0 -71.5 -19.5t-21.5 -70.5v-577q0 -72 -38.5 -109t-111.5 -37h-29z" />
    <glyph glyph-name="Omega" unicode="&#x2126;" horiz-adv-x="674" 
d="M466 70h140v-70h-207v223q64 12 96 58t32 123v57q0 94 -50.5 145t-139.5 51t-139.5 -51t-50.5 -145v-57q0 -77 32 -123t96 -58v-223h-207v70h140v110q-67 21 -102 77t-35 146v58q0 80 32.5 140t92.5 92t141 32t141 -32t92.5 -92t32.5 -140v-58q0 -90 -35 -146t-102 -77
v-110z" />
    <glyph glyph-name="Delta" unicode="&#x2206;" horiz-adv-x="620" 
d="M273 710h75l241 -651v-59h-557v59zM309 601l-189 -529h377z" />
    <glyph glyph-name="product" unicode="&#x220f;" horiz-adv-x="666" 
d="M569 710v-878h-76v807h-319v-807h-76v878h471z" />
    <glyph glyph-name="summation" unicode="&#x2211;" horiz-adv-x="526" 
d="M486 -168h-445v64l246 380l-240 370v64h424v-71h-332l234 -363l-241 -372h354v-72z" />
    <glyph glyph-name="radical" unicode="&#x221a;" horiz-adv-x="553" 
d="M221 89l250 640h75l-288 -729h-71l-165 365h78z" />
    <glyph glyph-name="partialdiff" unicode="&#x2202;" horiz-adv-x="557" 
d="M401 519q52 -48 74 -97t22 -116v-79q0 -67 -25.5 -121.5t-74.5 -86t-117 -31.5t-117 31.5t-74.5 86t-25.5 121.5v79q0 103 57 167.5t160 64.5h7l-226 211h94zM424 297q0 84 -35.5 132.5t-108.5 48.5t-108.5 -48.5t-35.5 -132.5v-60q0 -85 35.5 -134t108.5 -49t108.5 49
t35.5 134v60z" />
    <glyph glyph-name="mu" unicode="&#xb5;" horiz-adv-x="584" 
d="M421 533h73v-533h-69v88q-18 -46 -60 -73t-99 -27q-59 0 -103 28v-204h-73v721h73v-350q0 -61 31.5 -95.5t88.5 -34.5q64 0 101 39.5t37 103.5v337z" />
    <glyph glyph-name="percent" unicode="%" horiz-adv-x="759" 
d="M76.5 476.5q-41.5 39.5 -41.5 102.5q0 62 41.5 101.5t104.5 39.5q62 0 104 -39.5t42 -101.5q0 -63 -42 -102.5t-104 -39.5q-63 0 -104.5 39.5zM205 0h-72l419 710h72zM241 516.5q23 22.5 23 62.5t-22.5 62t-60.5 22t-61 -22t-23 -62t23 -62.5t61 -22.5q37 0 60 22.5z
M474.5 28.5q-41.5 39.5 -41.5 101.5q0 63 41.5 102.5t104.5 39.5q62 0 104 -39.5t42 -102.5q0 -62 -42 -101.5t-104 -39.5q-63 0 -104.5 39.5zM639.5 68q22.5 22 22.5 62t-23 62.5t-60 22.5q-38 0 -61 -22.5t-23 -62.5t23 -62t61 -22t60.5 22z" />
    <glyph glyph-name="perthousand" unicode="&#x2030;" horiz-adv-x="1107" 
d="M76.5 476.5q-41.5 39.5 -41.5 102.5q0 62 41.5 101.5t104.5 39.5q62 0 104 -39.5t42 -101.5q0 -63 -42 -102.5t-104 -39.5q-63 0 -104.5 39.5zM205 0h-72l419 710h72zM241 516.5q23 22.5 23 62.5t-22.5 62t-60.5 22t-61 -22t-23 -62t23 -62.5t61 -22.5q37 0 60 22.5z
M474.5 28.5q-41.5 39.5 -41.5 101.5q0 63 41.5 102.5t104.5 39.5q62 0 104 -39.5t42 -102.5q0 -62 -42 -101.5t-104 -39.5q-63 0 -104.5 39.5zM825.5 28.5q-41.5 39.5 -41.5 101.5q0 63 41.5 102.5t104.5 39.5q62 0 103.5 -39.5t41.5 -102.5q0 -62 -41.5 -101.5
t-103.5 -39.5q-63 0 -104.5 39.5zM639.5 68q22.5 22 22.5 62t-23 62.5t-60 22.5q-38 0 -61 -22.5t-23 -62.5t23 -62t61 -22t60.5 22zM990.5 68q22.5 22 22.5 62t-23 62.5t-60 22.5q-38 0 -61 -22.5t-23 -62.5t23 -62t61 -22t60.5 22z" />
    <glyph glyph-name="uni2236" unicode="&#x2236;" horiz-adv-x="414" 
d="M257 504h-99v102h99v-102zM257 114h-99v102h99v-102z" />
    <glyph glyph-name="minus.aalt" horiz-adv-x="540" 
d="M453 326h-366v58h366v-58z" />
    <glyph glyph-name="arrowup" unicode="&#x2191;" horiz-adv-x="1200" 
d="M601 847l222 -320h-188v-651h-69v651h-190z" />
    <glyph glyph-name="uni2197" unicode="&#x2197;" horiz-adv-x="1200" 
d="M565 637l384 67l-68 -383l-133 134l-461 -461l-48 48l461 461z" />
    <glyph glyph-name="arrowright" unicode="&#x2192;" horiz-adv-x="1200" 
d="M778 543l319 -225l-319 -222v189h-651v68h651v190z" />
    <glyph glyph-name="uni2198" unicode="&#x2198;" horiz-adv-x="1200" 
d="M882 391l67 -385l-383 69l133 133l-460 461l48 48l461 -460z" />
    <glyph glyph-name="arrowdown" unicode="&#x2193;" horiz-adv-x="1200" 
d="M633 829v-651h190l-225 -319l-222 319h189v651h68z" />
    <glyph glyph-name="uni2199" unicode="&#x2199;" horiz-adv-x="1200" 
d="M913 717l48 -48l-460 -460l134 -135l-384 -67l68 383l134 -133z" />
    <glyph glyph-name="arrowleft" unicode="&#x2190;" horiz-adv-x="1201" 
d="M423 384h651v-68h-651v-190l-320 225l320 222v-189z" />
    <glyph glyph-name="uni2196" unicode="&#x2196;" horiz-adv-x="1200" 
d="M501 504l460 -461l-48 -48l-460 461l-135 -135l-67 384l383 -68z" />
    <glyph glyph-name="arrowboth" unicode="&#x2194;" horiz-adv-x="1200" 
d="M828 543l319 -225l-319 -222v190h-456v-190l-319 225l319 222v-189h456v189z" />
    <glyph glyph-name="arrowupdn" unicode="&#x2195;" horiz-adv-x="1200" 
d="M823 527h-188v-348h188l-225 -320l-222 320h190v348h-190l225 320z" />
    <glyph glyph-name="uni21B0" unicode="&#x21b0;" horiz-adv-x="1200" 
d="M423 543v-190h651v-541h-68v473h-583v-189l-320 222z" />
    <glyph glyph-name="uni21B1" unicode="&#x21b1;" horiz-adv-x="1200" 
d="M778 543l319 -225l-319 -222v189h-583v-473h-68v541h651v190z" />
    <glyph glyph-name="uni21B2" unicode="&#x21b2;" horiz-adv-x="1200" 
d="M1006 353v476h68v-544h-651v-189l-320 222l320 225v-190h583z" />
    <glyph glyph-name="uni21B3" unicode="&#x21b3;" horiz-adv-x="1200" 
d="M778 543l319 -225l-319 -222v189h-651v544h68v-476h583v190z" />
    <glyph glyph-name="uni21B4" unicode="&#x21b4;" horiz-adv-x="1200" 
d="M906 829v-427h190l-225 -320l-222 320h189v359h-711v68h779z" />
    <glyph glyph-name="uniEA00" unicode="&#xea00;" horiz-adv-x="1200" 
d="M871 847l225 -320h-190v-427h-779v68h711v359h-189z" />
    <glyph glyph-name="uniEA01" unicode="&#xea01;" horiz-adv-x="1200" 
d="M385 527v-359h711v-68h-779v427h-190l225 320l222 -320h-189z" />
    <glyph glyph-name="uniEA02" unicode="&#xea02;" horiz-adv-x="1200" 
d="M1096 829v-68h-711v-359h189l-222 -320l-225 320h190v427h779z" />
    <glyph glyph-name="H18533" unicode="&#x25cf;" horiz-adv-x="900" 
d="M261 25.5q-86 49.5 -135.5 135.5t-49.5 190t49.5 190t135.5 135.5t190 49.5t190 -49.5t135.5 -135.5t49.5 -190t-49.5 -190t-135.5 -135.5t-190 -49.5t-190 49.5z" />
    <glyph glyph-name="circle" unicode="&#x25cb;" horiz-adv-x="900" 
d="M261 25.5q-86 49.5 -135.5 135.5t-49.5 190t49.5 190t135.5 135.5t190 49.5t190 -49.5t135.5 -135.5t49.5 -190t-49.5 -190t-135.5 -135.5t-190 -49.5t-190 49.5zM585.5 121q60.5 35 95.5 95.5t35 134.5t-35 134.5t-95.5 95.5t-134.5 35t-134.5 -35t-95.5 -95.5
t-35 -134.5t35 -134.5t95.5 -95.5t134.5 -35t134.5 35z" />
    <glyph glyph-name="lozenge" unicode="&#x25ca;" horiz-adv-x="631" 
d="M282 710h66l241 -355l-241 -355h-65l-242 355zM313 626l-180 -268l185 -274l180 269z" />
    <glyph glyph-name="filledbox" unicode="&#x25a0;" horiz-adv-x="900" 
d="M95 710h710v-710h-710v710z" />
    <glyph glyph-name="H22073" unicode="&#x25a1;" horiz-adv-x="900" 
d="M95 710h710v-710h-710v710zM205 600v-490h490v490h-490z" />
    <glyph glyph-name="triagup" unicode="&#x25b2;" horiz-adv-x="900" 
d="M450 730l421 -730h-842z" />
    <glyph glyph-name="triagdn" unicode="&#x25bc;" horiz-adv-x="900" 
d="M450 -20l-421 730h842z" />
    <glyph glyph-name="uni25B3" unicode="&#x25b3;" horiz-adv-x="900" 
d="M29 0l421 730l421 -730h-842zM218 110h464l-232 401z" />
    <glyph glyph-name="uni25BD" unicode="&#x25bd;" horiz-adv-x="900" 
d="M450 -20l-421 730h842zM450 199l232 401h-464z" />
    <glyph glyph-name="uni2605" unicode="&#x2605;" horiz-adv-x="900" 
d="M555 487h335l-270 -197l103 -322l-272 198l-273 -198l104 322l-272 197h335l106 321z" />
    <glyph glyph-name="uni2610" unicode="&#x2610;" horiz-adv-x="1100" 
d="M127 -74v848h847v-848h-847zM194 -6h712v712h-712v-712z" />
    <glyph glyph-name="uni2611" unicode="&#x2611;" horiz-adv-x="1100" 
d="M127 -74v848h847v-848h-847zM194 -6h712v712h-712v-712zM495 209l275 385l56 -40l-327 -457l-209 259l54 45z" />
    <glyph glyph-name="uni2612" unicode="&#x2612;" horiz-adv-x="1100" 
d="M127 -74v848h847v-848h-847zM194 -6h712v712h-712v-712zM551 300l-182 -182l-49 49l182 182l-182 182l49 49l182 -182l182 182l49 -49l-182 -182l182 -182l-49 -49z" />
    <glyph glyph-name="uni2706" unicode="&#x2706;" horiz-adv-x="1200" 
d="M745 -86q-93 0 -182 76t-191 208q-84 110 -131.5 200t-47.5 171q0 98 80 170q22 20 46 38t51 37l39 28l210 -276l-114 -95q-10 -9 -10 -15q0 -5 4 -12q9 -18 29.5 -47t39.5 -53q61 -82 85 -96q4 -3 8 -3q5 0 11 5l124 84l212 -273q-56 -47 -81 -66t-55 -39
q-62 -42 -127 -42zM874 37.5q19 14.5 43 33.5l-138 177l-79 -56q-19 -14 -43 -14q-26 0 -56.5 27t-84.5 98q-48 62 -68 98t-20 64q0 26 20 43l81 68l-134 175q-24 -17 -42.5 -31.5t-34.5 -29.5q-60 -54 -60 -123q0 -59 40.5 -138t125.5 -190q104 -135 180 -197t140 -62
q45 0 93 31q18 12 37 26.5z" />
    <glyph glyph-name="uni2709" unicode="&#x2709;" horiz-adv-x="1200" 
d="M135 1v631h931v-631h-931zM251 566l350 -349l350 349h-700zM204 115l203 202l-203 203v-405zM997 519l-202 -201l202 -202v403zM601 124l-147 147l-205 -204h704l-205 204z" />
    <glyph glyph-name="uni2713" unicode="&#x2713;" horiz-adv-x="900" 
d="M336 229l436 463l78 -77l-515 -544l-244 270l78 78z" />
    <glyph glyph-name="uni2714" unicode="&#x2714;" horiz-adv-x="900" 
d="M336 229l436 463l78 -77l-515 -544l-244 270l78 78z" />
    <glyph glyph-name="uni2715" unicode="&#x2715;" horiz-adv-x="900" 
d="M835 815l78 -78l-385 -385l385 -385l-78 -78l-385 385l-385 -385l-78 78l385 385l-385 385l78 78l385 -385z" />
    <glyph glyph-name="uni2716" unicode="&#x2716;" horiz-adv-x="900" 
d="M722 702l78 -78l-272 -272l272 -272l-78 -78l-272 272l-272 -272l-78 78l272 272l-272 272l78 78l272 -272z" />
    <glyph glyph-name="uni2717" unicode="&#x2717;" horiz-adv-x="900" 
d="M722 702l78 -78l-272 -272l272 -272l-78 -78l-272 272l-272 -272l-78 78l272 272l-272 272l78 78l272 -272z" />
    <glyph glyph-name="uni2757" unicode="&#x2757;" horiz-adv-x="900" 
d="M334 808h232l-50 -571h-132zM549 101v-199h-198v199h198z" />
    <glyph glyph-name="u1F5A4" unicode="&#x1f5a4;" horiz-adv-x="900" 
d="M737 650.5q44 -25.5 70.5 -68.5t26.5 -93q0 -60 -24 -107.5t-87 -113.5l-273 -288l-273 288q-63 66 -87 113.5t-24 107.5q0 50 26.5 93t70.5 68.5t96 25.5q65 0 119 -40t72 -100q18 60 72 100t119 40q52 0 96 -25.5z" />
    <glyph glyph-name="u1F5A4" unicode="&#x2764;" horiz-adv-x="900" 
d="M737 650.5q44 -25.5 70.5 -68.5t26.5 -93q0 -60 -24 -107.5t-87 -113.5l-273 -288l-273 288q-63 66 -87 113.5t-24 107.5q0 50 26.5 93t70.5 68.5t96 25.5q65 0 119 -40t72 -100q18 60 72 100t119 40q52 0 96 -25.5z" />
    <glyph glyph-name="at" unicode="@" horiz-adv-x="946" 
d="M686.5 695q92.5 -49 143.5 -138.5t51 -207.5v-76q0 -116 -43.5 -169.5t-117.5 -53.5q-46 0 -79 23.5t-48 63.5q-21 -40 -58 -62t-86 -22q-78 0 -127 53t-49 151v58q0 63 23 108.5t62 69.5t87 24t82.5 -19t54.5 -54v61h63v-292q0 -53 20 -79t57 -26q93 0 93 168v73
q0 103 -42 179.5t-119.5 117t-181.5 40.5t-181.5 -40.5t-119.5 -117t-42 -179.5v-134q0 -159 93 -245.5t274 -86.5v-63q-136 0 -233.5 48.5t-148.5 137.5t-51 209v134q0 118 50.5 207.5t143 138.5t214.5 49q123 0 215.5 -49zM578 312q0 71 -31 108t-89 37q-57 0 -88 -37
t-31 -108v-53q0 -72 30.5 -109t88.5 -37q59 0 89.5 37t30.5 109v53z" />
    <glyph glyph-name="ampersand" unicode="&#x26;" horiz-adv-x="668" 
d="M649 0h-92l-95 102q-46 -58 -96.5 -86.5t-118.5 -28.5q-90 0 -144 46t-54 121q0 62 34 108t118 101l10 7q-65 69 -88 108t-23 88q0 45 24 81t66 56.5t96 20.5q51 0 92.5 -20.5t65.5 -56t24 -77.5q0 -55 -34 -101t-119 -103l-6 -4l51 -54l95 -101l15 24l81 134h76
l-98 -163q-2 -4 -28 -44zM202 634q-32 -28 -32 -69q0 -35 18.5 -64.5t77.5 -92.5q55 36 83.5 63t38.5 49t10 48q0 39 -32 66.5t-81 27.5q-51 0 -83 -28zM338 73q40 24 79 77l-109 117q-37 39 -54 58l-22 -15q-67 -46 -90 -78t-23 -73q0 -49 35.5 -79.5t91.5 -30.5
q52 0 92 24z" />
    <glyph glyph-name="paragraph" unicode="&#xb6;" horiz-adv-x="543" 
d="M445 -168h-59v822h-74v-822h-59v507h-56q-77 0 -120 40.5t-43 118.5v54q0 78 43 118t120 40h248v-878z" />
    <glyph glyph-name="section" unicode="&#xa7;" horiz-adv-x="545" 
d="M475 67q0 -50 -26.5 -88t-72.5 -58.5t-102 -20.5q-93 0 -149.5 47.5t-58.5 126.5h70q2 -51 39.5 -80t100.5 -29q59 0 94 27t35 72q0 44 -37.5 67.5t-121.5 45.5q-93 25 -138 61.5t-45 97.5q0 38 22.5 68.5t62.5 48.5q-65 43 -65 115q0 69 51.5 113t134.5 44
q90 0 142 -44.5t54 -120.5h-70q-2 47 -35 73.5t-91 26.5q-54 0 -85 -23.5t-31 -65.5q0 -40 36.5 -63.5t112.5 -43.5q93 -27 137.5 -64t44.5 -98q0 -36 -20 -65.5t-57 -49.5q68 -42 68 -120zM173 279q41 -25 125 -48q41 -11 62 -20q26 13 40.5 33t14.5 46q0 32 -19 53
t-52.5 35t-93.5 32q-22 6 -51 17q-31 -11 -49 -31t-18 -48q0 -44 41 -69z" />
    <glyph glyph-name="copyright" unicode="&#xa9;" horiz-adv-x="755" 
d="M216.5 73q-71.5 40 -112 113.5t-40.5 168.5t40.5 168.5t112 113.5t161.5 40t161 -40t111.5 -113.5t40.5 -168.5t-40.5 -168.5t-111.5 -113.5t-161 -40t-161.5 40zM511 116.5q58 32.5 91 94t33 144.5t-33 144.5t-91 94t-133 32.5t-133.5 -32.5t-91.5 -94t-33 -144.5
t33 -144.5t91.5 -94t133.5 -32.5t133 32.5zM281 221.5q-38 39.5 -38 109.5v52q0 70 38.5 109.5t100.5 39.5q55 0 89.5 -30t37.5 -77h-59q-2 26 -20 41t-48 15q-36 0 -58 -25t-22 -73v-51q0 -49 22 -74t58 -25q64 0 68 57h59q-2 -50 -37 -79t-92 -29q-61 0 -99 39.5z" />
    <glyph glyph-name="registered" unicode="&#xae;" horiz-adv-x="520" 
d="M361.5 719q45.5 -25 71.5 -70.5t26 -105.5t-26 -105.5t-71.5 -70t-101.5 -24.5t-101.5 24.5t-71.5 70t-26 105.5t26 105.5t71.5 70.5t101.5 25t101.5 -25zM370 427q42 42 42 116t-42 116t-110 42q-67 0 -109.5 -42t-42.5 -116t42.5 -116t109.5 -42q68 0 110 42z
M328.5 553.5q-11.5 -14.5 -32.5 -20.5l60 -93h-51l-54 89h-17v-89h-44v209h66q42 0 63 -16t21 -45q0 -20 -11.5 -34.5zM234 610v-46h30q29 0 29 23t-29 23h-30z" />
    <glyph glyph-name="uni2117" unicode="&#x2117;" horiz-adv-x="755" 
d="M539 637q71 -40 111.5 -113.5t40.5 -168.5t-40.5 -168.5t-111.5 -113.5t-161 -40t-161.5 40t-112 113.5t-40.5 168.5t40.5 168.5t112 113.5t161.5 40t161 -40zM511 116.5q58 32.5 91 94t33 144.5t-33 144.5t-91 94t-133 32.5t-133.5 -32.5t-91.5 -94t-33 -144.5
t33 -144.5t91.5 -94t133.5 -32.5t133 32.5zM481 497q33 -28 33 -76t-33 -75.5t-85 -27.5h-50v-129h-59v336h109q52 0 85 -28zM397 370q26 0 42 14t16 37q0 24 -15.5 37.5t-42.5 13.5h-51v-102h51z" />
    <glyph glyph-name="trademark" unicode="&#x2122;" horiz-adv-x="709" 
d="M137 661h-94v49h240v-49h-93v-257h-53v257zM483 573l101 137h39v-306h-53v206l-82 -105h-12l-81 104v-205h-54v306h40z" />
    <glyph glyph-name="degree" unicode="&#xb0;" horiz-adv-x="443" 
d="M104 447.5q-47 44.5 -47 116.5t47 116.5t118 44.5q46 0 84 -20t59.5 -57t21.5 -84t-21.5 -84t-59.5 -57t-84 -20q-71 0 -118 44.5zM296 487.5q29 28.5 29 76.5t-29 76.5t-74 28.5q-46 0 -74.5 -28t-28.5 -77t28.5 -77t74.5 -28q45 0 74 28.5z" />
    <glyph glyph-name="minute" unicode="&#x2032;" horiz-adv-x="236" 
d="M139 456h-72l40 254h71z" />
    <glyph glyph-name="second" unicode="&#x2033;" horiz-adv-x="400" 
d="M303 456h-72l40 254h71zM139 456h-72l40 254h71z" />
    <glyph glyph-name="uni2300" unicode="&#x2300;" horiz-adv-x="583" 
d="M531 511l-63 -62q40 -54 40 -129q0 -62 -27.5 -110.5t-76.5 -75t-111 -26.5q-76 0 -133 41l-63 -62l-42 42l63 62q-40 54 -40 129q0 62 28 110.5t77 75t110 26.5q76 0 133 -41l63 62zM162 233l221 216q-39 25 -90 25q-68 0 -111 -42t-43 -112q0 -50 23 -87zM424 406
l-221 -215q39 -25 90 -25q68 0 110.5 42t42.5 112q0 50 -22 86z" />
    <glyph glyph-name="bar" unicode="|" horiz-adv-x="264" 
d="M168 -85h-72v860h72v-860z" />
    <glyph glyph-name="brokenbar" unicode="&#xa6;" horiz-adv-x="264" 
d="M168 436h-72v339h72v-339zM168 -85h-72v339h72v-339z" />
    <glyph glyph-name="dagger" unicode="&#x2020;" horiz-adv-x="359" 
d="M209 627h88v-55h-88v-191h-59v191h-89v55h89v82h59v-82z" />
    <glyph glyph-name="daggerdbl" unicode="&#x2021;" horiz-adv-x="382" 
d="M309 633v-53h-88v-70h88v-53h-88v-76h-59v76h-89v53h89v70h-89v53h89v76h59v-76h88z" />
    <glyph glyph-name="uni2116" unicode="&#x2116;" horiz-adv-x="990" 
d="M905 693.5q31 -32.5 31 -88.5v-37q0 -56 -31 -87.5t-84 -31.5q-54 0 -84.5 31.5t-30.5 87.5v37q0 56 31 88.5t84 32.5t84 -32.5zM165 710l367 -564v564h76v-710h-68l-366 564v-564h-76v710h67zM883 604q0 36 -16.5 55t-45.5 19t-45.5 -19t-16.5 -55v-35q0 -36 16.5 -55
t45.5 -19t45.5 19t16.5 55v35zM926 322h-209v46h209v-46z" />
    <glyph glyph-name="uni2B51" unicode="&#x2b51;" horiz-adv-x="900" 
d="M555 487h335l-270 -197l103 -322l-272 198l-273 -198l104 322l-272 197h335l106 321z" />
    <glyph glyph-name="uni2423" unicode="&#x2423;" horiz-adv-x="549" 
d="M490 -142h-430v142h59v-83h312v83h59v-142z" />
    <glyph glyph-name="uni2796" unicode="&#x2796;" horiz-adv-x="900" 
d="M505 407h320v-110h-320v-320h-110v320h-320v110h320v320h110v-320z" />
    <glyph glyph-name="uni2795" unicode="&#x2795;" horiz-adv-x="900" 
d="M85 407h730v-110h-730v110z" />
    <glyph glyph-name="uni2B52" unicode="&#x2b52;" horiz-adv-x="900" 
d="M555 487h335l-270 -197l103 -322l-272 198l-273 -198l104 322l-272 197h335l106 321zM530 319l126 92h-157l-49 151l-49 -151h-157l127 -92l-48 -151l127 93l128 -93z" />
    <glyph glyph-name="uni02BC" unicode="&#x2bc;" horiz-adv-x="237" 
d="M74 608v102h101v-92l-46 -135h-49l44 125h-50z" />
    <glyph glyph-name="uni02BB" unicode="&#x2bb;" horiz-adv-x="247" 
d="M166 710l-44 -126h50v-101h-101v92l46 135h49z" />
    <glyph glyph-name="uni0308" unicode="&#x308;" horiz-adv-x="0" 
d="M-259 648h-87v87h87v-87zM-61 648h-85v87h85v-87z" />
    <glyph glyph-name="gravecomb" unicode="&#x300;" horiz-adv-x="0" 
d="M-215 765l100 -139h-76l-112 139h88z" />
    <glyph glyph-name="acutecomb" unicode="&#x301;" horiz-adv-x="0" 
d="M-383 626h-76l100 139h88z" />
    <glyph glyph-name="uni030B" unicode="&#x30b;" horiz-adv-x="0" 
d="M-356 626h-75l94 129h80zM-182 626h-73l99 129h84z" />
    <glyph glyph-name="uni0306" unicode="&#x306;" horiz-adv-x="0" 
d="M-372 659.5q-40 34.5 -40 105.5h60q0 -88 93 -88t93 88h59q0 -71 -40 -105.5t-112 -34.5q-73 0 -113 34.5z" />
    <glyph glyph-name="tildecomb" unicode="&#x303;" horiz-adv-x="0" 
d="M-236 638q-19 9 -40 24q-7 5 -20.5 15.5t-23.5 16t-19 5.5q-17 0 -26.5 -17t-9.5 -48h-61q1 55 27 88.5t68 33.5q36 0 79 -33l17 -13q15 -12 25 -18t21 -6q17 0 26.5 16.5t10.5 48.5h60q0 -55 -26.5 -88.5t-68.5 -33.5q-20 0 -39 9z" />
    <glyph glyph-name="uni0304" unicode="&#x304;" horiz-adv-x="0" 
d="M-148 643h-289v61h289v-61z" />
    <glyph glyph-name="uni0312" unicode="&#x312;" horiz-adv-x="0" 
d="M-381 775h49l-54 -103h42v-69h-92v64z" />
    <glyph glyph-name="uni0326" unicode="&#x326;" horiz-adv-x="0" 
d="M-401 -112v68h93v-63l-56 -108h-49l54 103h-42z" />
    <glyph glyph-name="uni0335" unicode="&#x335;" horiz-adv-x="0" 
d="M56 353v-65h-307v65h307z" />
    <glyph glyph-name="dieresis" unicode="&#xa8;" horiz-adv-x="591" 
d="M181 648h-87v87h87v-87zM379 648h-85v87h85v-87z" />
    <glyph glyph-name="dotaccent" unicode="&#x2d9;" horiz-adv-x="668" 
d="M135 651h-85v91h85v-91z" />
    <glyph glyph-name="grave" unicode="`" horiz-adv-x="704" 
d="M313 765l100 -139h-76l-112 139h88z" />
    <glyph glyph-name="acute" unicode="&#xb4;" horiz-adv-x="704" 
d="M169 626h-76l100 139h88z" />
    <glyph glyph-name="hungarumlaut" unicode="&#x2dd;" horiz-adv-x="704" 
d="M197 626h-75l94 129h80zM371 626h-73l99 129h84z" />
    <glyph glyph-name="circumflex" unicode="&#x2c6;" horiz-adv-x="704" 
d="M453 765l124 -139h-81l-77 88l-75 -88h-80l124 139h65z" />
    <glyph glyph-name="caron" unicode="&#x2c7;" horiz-adv-x="704" 
d="M403 677l75 88h80l-124 -139h-64l-125 139h82z" />
    <glyph glyph-name="breve" unicode="&#x2d8;" horiz-adv-x="704" 
d="M158 659.5q-40 34.5 -40 105.5h60q0 -88 93 -88t93 88h59q0 -71 -40 -105.5t-112 -34.5q-73 0 -113 34.5z" />
    <glyph glyph-name="ring" unicode="&#x2da;" horiz-adv-x="710" 
d="M296 642.5q-33 31.5 -33 82.5t33.5 82t86.5 31q54 0 87.5 -31t33.5 -82q0 -52 -33.5 -83t-87.5 -31t-87 31.5zM432 675q18 18 18 50q0 30 -18.5 48.5t-48.5 18.5q-29 0 -47.5 -18.5t-18.5 -48.5q0 -32 18 -50t48 -18q31 0 49 18z" />
    <glyph glyph-name="tilde" unicode="&#x2dc;" horiz-adv-x="707" 
d="M319 638q-19 9 -40 24q-7 5 -20.5 15.5t-23.5 16t-19 5.5q-17 0 -26.5 -17t-9.5 -48h-61q1 55 27 88.5t68 33.5q36 0 79 -33l17 -13q15 -12 25 -18t21 -6q17 0 26.5 16.5t10.5 48.5h60q0 -55 -26.5 -88.5t-68.5 -33.5q-20 0 -39 9z" />
    <glyph glyph-name="macron" unicode="&#xaf;" horiz-adv-x="704" 
d="M402 643h-289v61h289v-61z" />
    <glyph glyph-name="cedilla" unicode="&#xb8;" horiz-adv-x="704" 
d="M294 -49q89 -9 89 -74q0 -42 -30 -61t-94 -19h-40v58h46q26 0 36.5 6t10.5 19q0 14 -10.5 19.5t-36.5 5.5h-39l37 118l55 -1z" />
    <glyph glyph-name="ogonek" unicode="&#x2db;" horiz-adv-x="549" 
d="M434 -185q-123 0 -123 78q0 25 13.5 46t45.5 45l42 32l50 -16l-42 -31q-24 -18 -33 -30.5t-9 -26.5q0 -20 15.5 -29.5t50.5 -9.5h28v-58h-38z" />
    <glyph glyph-name="uni0335.aalt" horiz-adv-x="0" 
d="M-350 324v68h359v-68h-359z" />
    <glyph glyph-name="dotaccent.aalt" horiz-adv-x="185" 
d="M135 824h-85v91h85v-91z" />
    <glyph glyph-name="cedilla.aalt" horiz-adv-x="704" 
d="M294 -49q89 -9 89 -74q0 -42 -30 -61t-94 -19h-40v58h46q26 0 36.5 6t10.5 19q0 14 -10.5 19.5t-36.5 5.5h-39l37 118l55 -1z" />
    <glyph glyph-name="glyph749" horiz-adv-x="0" 
d="M-312 17v-156h-76v156h76z" />
    <glyph glyph-name="glyph750" horiz-adv-x="0" 
d="M-311 17v-141h-71v141h71z" />
    <glyph glyph-name="glyph751" horiz-adv-x="0" 
d="M-160 735h76v-87h-76v87zM-17 735h77v-87h-77v87z" />
    <glyph glyph-name="glyph752" horiz-adv-x="0" 
d="M-171 912h76v-87h-76v87zM-29 912h78v-87h-78v87z" />
    <glyph glyph-name="glyph753" horiz-adv-x="412" 
d="M187 547h-59l8 202h69z" />
    </font>
</defs>
</svg>
